<?xml version="1.0" encoding="UTF-8"?>
<!DOCTYPE svg PUBLIC "-//W3C//DTD SVG 1.1//EN" "http://www.w3.org/Graphics/SVG/1.1/DTD/svg11.dtd">
<!-- Creator: CorelDRAW X6 -->
<svg xmlns="http://www.w3.org/2000/svg" xml:space="preserve" width="1000mm" height="1000mm" version="1.1" style="shape-rendering:geometricPrecision; text-rendering:geometricPrecision; image-rendering:optimizeQuality; fill-rule:evenodd; clip-rule:evenodd"
viewBox="0 0 100000 100000"
 xmlns:xlink="http://www.w3.org/1999/xlink">
 <defs>
  <style type="text/css">
   <![CDATA[
    .str0 {stroke:black;stroke-width:52.92;stroke-linecap:round;stroke-linejoin:round}
    .str1 {stroke:blue;stroke-width:52.92;stroke-linecap:round;stroke-linejoin:round}
    .fil0 {fill:none}
   ]]>
  </style>
 </defs>
 <g id="Layer_x0020_1">
  <metadata id="CorelCorpID_0Corel-Layer"/>
  <g id="_879843696">
   <g>
    <circle class="fil0 str0" cx="50000" cy="50750" r="2850"/>
    <circle class="fil0 str0" cx="41000" cy="50750" r="2850"/>
    <circle class="fil0 str0" cx="32000" cy="50750" r="2850"/>
    <circle class="fil0 str0" cx="59000" cy="50750" r="2850"/>
    <circle class="fil0 str0" cx="68000" cy="50750" r="2850"/>
    <path class="fil0 str1" d="M29808 47957c1393,-1096 3417,-1002 4702,283 1204,1204 1362,3059 474,4434l339 339 -1061 1061 -339 -339c-1375,888 -3229,730 -4434,-474 -1285,-1285 -1379,-3309 -283,-4702l-442 -442 601 -601 442 442z"/>
    <path class="fil0 str1" d="M38808 47957c1393,-1096 3417,-1002 4702,283 1204,1204 1362,3059 474,4434l339 339 -1061 1061 -339 -339c-1375,888 -3229,730 -4434,-474 -1285,-1285 -1379,-3309 -283,-4702l-442 -442 601 -601 442 442z"/>
    <path class="fil0 str1" d="M47808 47957c1393,-1096 3417,-1002 4702,283 1204,1204 1362,3059 474,4434l339 339 -1061 1061 -339 -339c-1375,888 -3229,730 -4434,-474 -1285,-1285 -1379,-3309 -283,-4702l-442 -442 601 -601 442 442z"/>
    <path class="fil0 str1" d="M56808 47957c1393,-1096 3417,-1002 4702,283 1204,1204 1362,3059 474,4434l339 339 -1061 1061 -339 -339c-1375,888 -3229,730 -4434,-474 -1285,-1285 -1379,-3309 -283,-4702l-442 -442 601 -601 442 442z"/>
    <path class="fil0 str1" d="M65808 47957c1393,-1096 3417,-1002 4702,283 1204,1204 1362,3059 474,4434l339 339 -1061 1061 -339 -339c-1375,888 -3229,730 -4434,-474 -1285,-1285 -1379,-3309 -283,-4702l-442 -442 601 -601 442 442z"/>
   </g>
   <g>
    <path class="fil0 str0" d="M28300 53950l0 -7900c0,-276 224,-500 500,-500l42400 0c276,0 500,224 500,500l0 7900c0,276 -224,500 -500,500l-42400 0c-276,0 -500,-224 -500,-500z"/>
    <circle class="fil0 str0" cx="63500" cy="53750" r="300"/>
    <circle class="fil0 str0" cx="62750" cy="53750" r="150"/>
    <circle class="fil0 str0" cx="64250" cy="53750" r="150"/>
    <circle class="fil0 str0" cx="63500" cy="53000" r="150"/>
    <circle class="fil0 str0" cx="63500" cy="52250" r="300"/>
    <circle class="fil0 str0" cx="62750" cy="52250" r="150"/>
    <circle class="fil0 str0" cx="64250" cy="52250" r="150"/>
    <circle class="fil0 str0" cx="63500" cy="51500" r="150"/>
    <circle class="fil0 str0" cx="63500" cy="50750" r="300"/>
    <circle class="fil0 str0" cx="62750" cy="50750" r="150"/>
    <circle class="fil0 str0" cx="64250" cy="50750" r="150"/>
    <circle class="fil0 str0" cx="63500" cy="50000" r="150"/>
    <circle class="fil0 str0" cx="63500" cy="49250" r="300"/>
    <circle class="fil0 str0" cx="62750" cy="49250" r="150"/>
    <circle class="fil0 str0" cx="64250" cy="49250" r="150"/>
    <circle class="fil0 str0" cx="63500" cy="48500" r="150"/>
    <circle class="fil0 str0" cx="29000" cy="47750" r="300"/>
    <circle class="fil0 str0" cx="29750" cy="47750" r="150"/>
    <circle class="fil0 str0" cx="29000" cy="47000" r="150"/>
    <circle class="fil0 str0" cx="30500" cy="47000" r="150"/>
    <circle class="fil0 str0" cx="32000" cy="47000" r="150"/>
    <circle class="fil0 str0" cx="35000" cy="47750" r="300"/>
    <circle class="fil0 str0" cx="34250" cy="47750" r="150"/>
    <circle class="fil0 str0" cx="33500" cy="47000" r="150"/>
    <circle class="fil0 str0" cx="35000" cy="47000" r="150"/>
    <circle class="fil0 str0" cx="36500" cy="47750" r="300"/>
    <circle class="fil0 str0" cx="38000" cy="47750" r="300"/>
    <circle class="fil0 str0" cx="35750" cy="47750" r="150"/>
    <circle class="fil0 str0" cx="37250" cy="47750" r="150"/>
    <circle class="fil0 str0" cx="36500" cy="47000" r="150"/>
    <circle class="fil0 str0" cx="38000" cy="47000" r="150"/>
    <circle class="fil0 str0" cx="38750" cy="47750" r="150"/>
    <circle class="fil0 str0" cx="39500" cy="47000" r="150"/>
    <circle class="fil0 str0" cx="41000" cy="47000" r="150"/>
    <circle class="fil0 str0" cx="44000" cy="47750" r="300"/>
    <circle class="fil0 str0" cx="43250" cy="47750" r="150"/>
    <circle class="fil0 str0" cx="42500" cy="47000" r="150"/>
    <circle class="fil0 str0" cx="44000" cy="47000" r="150"/>
    <circle class="fil0 str0" cx="45500" cy="47750" r="300"/>
    <circle class="fil0 str0" cx="47000" cy="47750" r="300"/>
    <circle class="fil0 str0" cx="44750" cy="47750" r="150"/>
    <circle class="fil0 str0" cx="46250" cy="47750" r="150"/>
    <circle class="fil0 str0" cx="45500" cy="47000" r="150"/>
    <circle class="fil0 str0" cx="47000" cy="47000" r="150"/>
    <circle class="fil0 str0" cx="48500" cy="47750" r="300"/>
    <circle class="fil0 str0" cx="47750" cy="47750" r="150"/>
    <circle class="fil0 str0" cx="48500" cy="47000" r="150"/>
    <circle class="fil0 str0" cx="50000" cy="47000" r="150"/>
    <circle class="fil0 str0" cx="51500" cy="47750" r="300"/>
    <circle class="fil0 str0" cx="53000" cy="47750" r="300"/>
    <circle class="fil0 str0" cx="52250" cy="47750" r="150"/>
    <circle class="fil0 str0" cx="51500" cy="47000" r="150"/>
    <circle class="fil0 str0" cx="53000" cy="47000" r="150"/>
    <circle class="fil0 str0" cx="54500" cy="47750" r="300"/>
    <circle class="fil0 str0" cx="56000" cy="47750" r="300"/>
    <circle class="fil0 str0" cx="53750" cy="47750" r="150"/>
    <circle class="fil0 str0" cx="55250" cy="47750" r="150"/>
    <circle class="fil0 str0" cx="54500" cy="47000" r="150"/>
    <circle class="fil0 str0" cx="56000" cy="47000" r="150"/>
    <circle class="fil0 str0" cx="56750" cy="47750" r="150"/>
    <circle class="fil0 str0" cx="57500" cy="47000" r="150"/>
    <circle class="fil0 str0" cx="59000" cy="47000" r="150"/>
    <circle class="fil0 str0" cx="62000" cy="47750" r="300"/>
    <circle class="fil0 str0" cx="61250" cy="47750" r="150"/>
    <circle class="fil0 str0" cx="60500" cy="47000" r="150"/>
    <circle class="fil0 str0" cx="62000" cy="47000" r="150"/>
    <circle class="fil0 str0" cx="63500" cy="47750" r="300"/>
    <circle class="fil0 str0" cx="65000" cy="47750" r="300"/>
    <circle class="fil0 str0" cx="62750" cy="47750" r="150"/>
    <circle class="fil0 str0" cx="64250" cy="47750" r="150"/>
    <circle class="fil0 str0" cx="63500" cy="47000" r="150"/>
    <circle class="fil0 str0" cx="65000" cy="47000" r="150"/>
    <circle class="fil0 str0" cx="65750" cy="47750" r="150"/>
    <circle class="fil0 str0" cx="66500" cy="47000" r="150"/>
    <circle class="fil0 str0" cx="68000" cy="47000" r="150"/>
    <circle class="fil0 str0" cx="71000" cy="47750" r="300"/>
    <circle class="fil0 str0" cx="70250" cy="47750" r="150"/>
    <circle class="fil0 str0" cx="69500" cy="47000" r="150"/>
    <circle class="fil0 str0" cx="71000" cy="47000" r="150"/>
    <circle class="fil0 str0" cx="30500" cy="46250" r="300"/>
    <circle class="fil0 str0" cx="29000" cy="46250" r="300"/>
    <circle class="fil0 str0" cx="32000" cy="46250" r="300"/>
    <circle class="fil0 str0" cx="29750" cy="46250" r="150"/>
    <circle class="fil0 str0" cx="31250" cy="46250" r="150"/>
    <circle class="fil0 str0" cx="33500" cy="46250" r="300"/>
    <circle class="fil0 str0" cx="35000" cy="46250" r="300"/>
    <circle class="fil0 str0" cx="32750" cy="46250" r="150"/>
    <circle class="fil0 str0" cx="34250" cy="46250" r="150"/>
    <circle class="fil0 str0" cx="36500" cy="46250" r="300"/>
    <circle class="fil0 str0" cx="38000" cy="46250" r="300"/>
    <circle class="fil0 str0" cx="35750" cy="46250" r="150"/>
    <circle class="fil0 str0" cx="37250" cy="46250" r="150"/>
    <circle class="fil0 str0" cx="39500" cy="46250" r="300"/>
    <circle class="fil0 str0" cx="41000" cy="46250" r="300"/>
    <circle class="fil0 str0" cx="38750" cy="46250" r="150"/>
    <circle class="fil0 str0" cx="40250" cy="46250" r="150"/>
    <circle class="fil0 str0" cx="42500" cy="46250" r="300"/>
    <circle class="fil0 str0" cx="44000" cy="46250" r="300"/>
    <circle class="fil0 str0" cx="41750" cy="46250" r="150"/>
    <circle class="fil0 str0" cx="43250" cy="46250" r="150"/>
    <circle class="fil0 str0" cx="45500" cy="46250" r="300"/>
    <circle class="fil0 str0" cx="47000" cy="46250" r="300"/>
    <circle class="fil0 str0" cx="44750" cy="46250" r="150"/>
    <circle class="fil0 str0" cx="46250" cy="46250" r="150"/>
    <circle class="fil0 str0" cx="48500" cy="46250" r="300"/>
    <circle class="fil0 str0" cx="50000" cy="46250" r="300"/>
    <circle class="fil0 str0" cx="47750" cy="46250" r="150"/>
    <circle class="fil0 str0" cx="49250" cy="46250" r="150"/>
    <circle class="fil0 str0" cx="51500" cy="46250" r="300"/>
    <circle class="fil0 str0" cx="53000" cy="46250" r="300"/>
    <circle class="fil0 str0" cx="50750" cy="46250" r="150"/>
    <circle class="fil0 str0" cx="52250" cy="46250" r="150"/>
    <circle class="fil0 str0" cx="54500" cy="46250" r="300"/>
    <circle class="fil0 str0" cx="56000" cy="46250" r="300"/>
    <circle class="fil0 str0" cx="53750" cy="46250" r="150"/>
    <circle class="fil0 str0" cx="55250" cy="46250" r="150"/>
    <circle class="fil0 str0" cx="57500" cy="46250" r="300"/>
    <circle class="fil0 str0" cx="59000" cy="46250" r="300"/>
    <circle class="fil0 str0" cx="56750" cy="46250" r="150"/>
    <circle class="fil0 str0" cx="58250" cy="46250" r="150"/>
    <circle class="fil0 str0" cx="60500" cy="46250" r="300"/>
    <circle class="fil0 str0" cx="62000" cy="46250" r="300"/>
    <circle class="fil0 str0" cx="59750" cy="46250" r="150"/>
    <circle class="fil0 str0" cx="61250" cy="46250" r="150"/>
    <circle class="fil0 str0" cx="63500" cy="46250" r="300"/>
    <circle class="fil0 str0" cx="65000" cy="46250" r="300"/>
    <circle class="fil0 str0" cx="62750" cy="46250" r="150"/>
    <circle class="fil0 str0" cx="64250" cy="46250" r="150"/>
    <circle class="fil0 str0" cx="66500" cy="46250" r="300"/>
    <circle class="fil0 str0" cx="68000" cy="46250" r="300"/>
    <circle class="fil0 str0" cx="65750" cy="46250" r="150"/>
    <circle class="fil0 str0" cx="67250" cy="46250" r="150"/>
    <circle class="fil0 str0" cx="69500" cy="46250" r="300"/>
    <circle class="fil0 str0" cx="71000" cy="46250" r="300"/>
    <circle class="fil0 str0" cx="68750" cy="46250" r="150"/>
    <circle class="fil0 str0" cx="70250" cy="46250" r="150"/>
    <circle class="fil0 str0" cx="62000" cy="53750" r="300"/>
    <circle class="fil0 str0" cx="65000" cy="53750" r="300"/>
    <circle class="fil0 str0" cx="71000" cy="53750" r="300"/>
    <circle class="fil0 str0" cx="70250" cy="53750" r="150"/>
    <circle class="fil0 str0" cx="54500" cy="53750" r="300"/>
    <circle class="fil0 str0" cx="53750" cy="53750" r="150"/>
    <circle class="fil0 str0" cx="55250" cy="53750" r="150"/>
    <circle class="fil0 str0" cx="54500" cy="53000" r="150"/>
    <circle class="fil0 str0" cx="54500" cy="52250" r="300"/>
    <circle class="fil0 str0" cx="53750" cy="52250" r="150"/>
    <circle class="fil0 str0" cx="55250" cy="52250" r="150"/>
    <circle class="fil0 str0" cx="54500" cy="51500" r="150"/>
    <circle class="fil0 str0" cx="54500" cy="50750" r="300"/>
    <circle class="fil0 str0" cx="53750" cy="50750" r="150"/>
    <circle class="fil0 str0" cx="55250" cy="50750" r="150"/>
    <circle class="fil0 str0" cx="54500" cy="50000" r="150"/>
    <circle class="fil0 str0" cx="54500" cy="49250" r="300"/>
    <circle class="fil0 str0" cx="53750" cy="49250" r="150"/>
    <circle class="fil0 str0" cx="55250" cy="49250" r="150"/>
    <circle class="fil0 str0" cx="54500" cy="48500" r="150"/>
    <circle class="fil0 str0" cx="53000" cy="53750" r="300"/>
    <circle class="fil0 str0" cx="56000" cy="53750" r="300"/>
    <circle class="fil0 str0" cx="45500" cy="53750" r="300"/>
    <circle class="fil0 str0" cx="44750" cy="53750" r="150"/>
    <circle class="fil0 str0" cx="46250" cy="53750" r="150"/>
    <circle class="fil0 str0" cx="45500" cy="53000" r="150"/>
    <circle class="fil0 str0" cx="45500" cy="52250" r="300"/>
    <circle class="fil0 str0" cx="44750" cy="52250" r="150"/>
    <circle class="fil0 str0" cx="46250" cy="52250" r="150"/>
    <circle class="fil0 str0" cx="45500" cy="51500" r="150"/>
    <circle class="fil0 str0" cx="45500" cy="50750" r="300"/>
    <circle class="fil0 str0" cx="44750" cy="50750" r="150"/>
    <circle class="fil0 str0" cx="46250" cy="50750" r="150"/>
    <circle class="fil0 str0" cx="45500" cy="50000" r="150"/>
    <circle class="fil0 str0" cx="45500" cy="49250" r="300"/>
    <circle class="fil0 str0" cx="44750" cy="49250" r="150"/>
    <circle class="fil0 str0" cx="46250" cy="49250" r="150"/>
    <circle class="fil0 str0" cx="45500" cy="48500" r="150"/>
    <circle class="fil0 str0" cx="44000" cy="53750" r="300"/>
    <circle class="fil0 str0" cx="47000" cy="53750" r="300"/>
    <circle class="fil0 str0" cx="36500" cy="53750" r="300"/>
    <circle class="fil0 str0" cx="35750" cy="53750" r="150"/>
    <circle class="fil0 str0" cx="37250" cy="53750" r="150"/>
    <circle class="fil0 str0" cx="36500" cy="53000" r="150"/>
    <circle class="fil0 str0" cx="36500" cy="52250" r="300"/>
    <circle class="fil0 str0" cx="35750" cy="52250" r="150"/>
    <circle class="fil0 str0" cx="37250" cy="52250" r="150"/>
    <circle class="fil0 str0" cx="36500" cy="51500" r="150"/>
    <circle class="fil0 str0" cx="36500" cy="50750" r="300"/>
    <circle class="fil0 str0" cx="35750" cy="50750" r="150"/>
    <circle class="fil0 str0" cx="37250" cy="50750" r="150"/>
    <circle class="fil0 str0" cx="36500" cy="50000" r="150"/>
    <circle class="fil0 str0" cx="36500" cy="49250" r="300"/>
    <circle class="fil0 str0" cx="35750" cy="49250" r="150"/>
    <circle class="fil0 str0" cx="37250" cy="49250" r="150"/>
    <circle class="fil0 str0" cx="36500" cy="48500" r="150"/>
    <circle class="fil0 str0" cx="35000" cy="53750" r="300"/>
    <circle class="fil0 str0" cx="38000" cy="53750" r="300"/>
    <circle class="fil0 str0" cx="29750" cy="53750" r="150"/>
    <circle class="fil0 str0" cx="29000" cy="53750" r="300"/>
   </g>
  </g>
 </g>
</svg>
