<?xml version="1.0" encoding="UTF-8"?>
<!DOCTYPE svg PUBLIC "-//W3C//DTD SVG 1.1//EN" "http://www.w3.org/Graphics/SVG/1.1/DTD/svg11.dtd">
<!-- Creator: CorelDRAW X6 -->
<svg xmlns="http://www.w3.org/2000/svg" xml:space="preserve" width="1000mm" height="1000mm" version="1.1" style="shape-rendering:geometricPrecision; text-rendering:geometricPrecision; image-rendering:optimizeQuality; fill-rule:evenodd; clip-rule:evenodd"
viewBox="0 0 100000 100000"
 xmlns:xlink="http://www.w3.org/1999/xlink">
 <defs>
  <style type="text/css">
   <![CDATA[
    .str1 {stroke:black;stroke-width:52.92;stroke-linecap:round;stroke-linejoin:round}
    .str0 {stroke:blue;stroke-width:52.92;stroke-linecap:round;stroke-linejoin:round}
    .fil0 {fill:none}
   ]]>
  </style>
 </defs>
 <g id="Layer_x0020_1">
  <metadata id="CorelCorpID_0Corel-Layer"/>
  <g id="_885818384">
   <g>
    <path class="fil0 str0" d="M30129 57278c1215,-922 2954,-829 4063,280 1028,1028 1183,2597 466,3789l348 348 -1061 1061 -348 -348c-1192,717 -2761,562 -3789,-466 -1109,-1109 -1202,-2848 -280,-4063l-374 -374 601 -601 374 374z"/>
    <circle class="fil0 str1" cx="32000" cy="59750" r="2750"/>
   </g>
   <path class="fil0 str1" d="M28300 62950l0 -25900c0,-276 224,-500 500,-500l451 0c27,1496 1247,2700 2749,2700 1502,0 2723,-1204 2749,-2700l6501 0c27,1496 1247,2700 2749,2700 1502,0 2723,-1204 2749,-2700l6501 0c27,1496 1247,2700 2749,2700 1502,0 2723,-1204 2749,-2700l6501 0c27,1496 1247,2700 2749,2700 1502,0 2723,-1204 2749,-2700l451 0c276,0 500,224 500,500l0 25900c0,276 -224,500 -500,500l-42400 0c-276,0 -500,-224 -500,-500z"/>
   <g>
    <path class="fil0 str0" d="M36129 54278c1215,-922 2954,-829 4063,280 1028,1028 1183,2597 466,3789l348 348 -1061 1061 -348 -348c-1192,717 -2761,562 -3789,-466 -1109,-1109 -1202,-2848 -280,-4063l-374 -374 601 -601 374 374z"/>
    <circle class="fil0 str1" cx="38000" cy="56750" r="2750"/>
   </g>
   <g>
    <path class="fil0 str0" d="M42129 57278c1215,-922 2954,-829 4063,280 1028,1028 1183,2597 466,3789l348 348 -1061 1061 -348 -348c-1192,717 -2761,562 -3789,-466 -1109,-1109 -1202,-2848 -280,-4063l-374 -374 601 -601 374 374z"/>
    <circle class="fil0 str1" cx="44000" cy="59750" r="2750"/>
   </g>
   <g>
    <path class="fil0 str0" d="M48129 54278c1215,-922 2954,-829 4063,280 1028,1028 1183,2597 466,3789l348 348 -1061 1061 -348 -348c-1192,717 -2761,562 -3789,-466 -1109,-1109 -1202,-2848 -280,-4063l-374 -374 601 -601 374 374z"/>
    <circle class="fil0 str1" cx="50000" cy="56750" r="2750"/>
   </g>
   <g>
    <path class="fil0 str0" d="M54129 57278c1215,-922 2954,-829 4063,280 1028,1028 1183,2597 466,3789l348 348 -1061 1061 -348 -348c-1192,717 -2761,562 -3789,-466 -1109,-1109 -1202,-2848 -280,-4063l-374 -374 601 -601 374 374z"/>
    <circle class="fil0 str1" cx="56000" cy="59750" r="2750"/>
   </g>
   <g>
    <path class="fil0 str0" d="M60129 54278c1215,-922 2954,-829 4063,280 1028,1028 1183,2597 466,3789l348 348 -1061 1061 -348 -348c-1192,717 -2761,562 -3789,-466 -1109,-1109 -1202,-2848 -280,-4063l-374 -374 601 -601 374 374z"/>
    <circle class="fil0 str1" cx="62000" cy="56750" r="2750"/>
   </g>
   <g>
    <path class="fil0 str0" d="M66129 57278c1215,-922 2954,-829 4063,280 1028,1028 1183,2597 466,3789l348 348 -1061 1061 -348 -348c-1192,717 -2761,562 -3789,-466 -1109,-1109 -1202,-2848 -280,-4063l-374 -374 601 -601 374 374z"/>
    <circle class="fil0 str1" cx="68000" cy="59750" r="2750"/>
   </g>
   <g>
    <path class="fil0 str0" d="M30129 49778c1215,-922 2954,-829 4063,280 1028,1028 1183,2597 466,3789l348 348 -1061 1061 -348 -348c-1192,717 -2761,562 -3789,-466 -1109,-1109 -1202,-2848 -280,-4063l-374 -374 601 -601 374 374z"/>
    <circle class="fil0 str1" cx="32000" cy="52250" r="2750"/>
   </g>
   <g>
    <path class="fil0 str0" d="M36129 46778c1215,-922 2954,-829 4063,280 1028,1028 1183,2597 466,3789l348 348 -1061 1061 -348 -348c-1192,717 -2761,562 -3789,-466 -1109,-1109 -1202,-2848 -280,-4063l-374 -374 601 -601 374 374z"/>
    <circle class="fil0 str1" cx="38000" cy="49250" r="2750"/>
   </g>
   <g>
    <path class="fil0 str0" d="M42129 49778c1215,-922 2954,-829 4063,280 1028,1028 1183,2597 466,3789l348 348 -1061 1061 -348 -348c-1192,717 -2761,562 -3789,-466 -1109,-1109 -1202,-2848 -280,-4063l-374 -374 601 -601 374 374z"/>
    <circle class="fil0 str1" cx="44000" cy="52250" r="2750"/>
   </g>
   <g>
    <path class="fil0 str0" d="M48129 46778c1215,-922 2954,-829 4063,280 1028,1028 1183,2597 466,3789l348 348 -1061 1061 -348 -348c-1192,717 -2761,562 -3789,-466 -1109,-1109 -1202,-2848 -280,-4063l-374 -374 601 -601 374 374z"/>
    <circle class="fil0 str1" cx="50000" cy="49250" r="2750"/>
   </g>
   <g>
    <path class="fil0 str0" d="M54129 49778c1215,-922 2954,-829 4063,280 1028,1028 1183,2597 466,3789l348 348 -1061 1061 -348 -348c-1192,717 -2761,562 -3789,-466 -1109,-1109 -1202,-2848 -280,-4063l-374 -374 601 -601 374 374z"/>
    <circle class="fil0 str1" cx="56000" cy="52250" r="2750"/>
   </g>
   <g>
    <path class="fil0 str0" d="M60129 46778c1215,-922 2954,-829 4063,280 1028,1028 1183,2597 466,3789l348 348 -1061 1061 -348 -348c-1192,717 -2761,562 -3789,-466 -1109,-1109 -1202,-2848 -280,-4063l-374 -374 601 -601 374 374z"/>
    <circle class="fil0 str1" cx="62000" cy="49250" r="2750"/>
   </g>
   <g>
    <path class="fil0 str0" d="M66129 49778c1215,-922 2954,-829 4063,280 1028,1028 1183,2597 466,3789l348 348 -1061 1061 -348 -348c-1192,717 -2761,562 -3789,-466 -1109,-1109 -1202,-2848 -280,-4063l-374 -374 601 -601 374 374z"/>
    <circle class="fil0 str1" cx="68000" cy="52250" r="2750"/>
   </g>
   <g>
    <path class="fil0 str0" d="M30129 42278c1215,-922 2954,-829 4063,280 1028,1028 1183,2597 466,3789l348 348 -1061 1061 -348 -348c-1192,717 -2761,562 -3789,-466 -1109,-1109 -1202,-2848 -280,-4063l-374 -374 601 -601 374 374z"/>
    <circle class="fil0 str1" cx="32000" cy="44750" r="2750"/>
   </g>
   <g>
    <path class="fil0 str0" d="M36129 39278c1215,-922 2954,-829 4063,280 1028,1028 1183,2597 466,3789l348 348 -1061 1061 -348 -348c-1192,717 -2761,562 -3789,-466 -1109,-1109 -1202,-2848 -280,-4063l-374 -374 601 -601 374 374z"/>
    <circle class="fil0 str1" cx="38000" cy="41750" r="2750"/>
   </g>
   <g>
    <path class="fil0 str0" d="M42129 42278c1215,-922 2954,-829 4063,280 1028,1028 1183,2597 466,3789l348 348 -1061 1061 -348 -348c-1192,717 -2761,562 -3789,-466 -1109,-1109 -1202,-2848 -280,-4063l-374 -374 601 -601 374 374z"/>
    <circle class="fil0 str1" cx="44000" cy="44750" r="2750"/>
   </g>
   <g>
    <path class="fil0 str0" d="M48129 39278c1215,-922 2954,-829 4063,280 1028,1028 1183,2597 466,3789l348 348 -1061 1061 -348 -348c-1192,717 -2761,562 -3789,-466 -1109,-1109 -1202,-2848 -280,-4063l-374 -374 601 -601 374 374z"/>
    <circle class="fil0 str1" cx="50000" cy="41750" r="2750"/>
   </g>
   <g>
    <path class="fil0 str0" d="M54129 42278c1215,-922 2954,-829 4063,280 1028,1028 1183,2597 466,3789l348 348 -1061 1061 -348 -348c-1192,717 -2761,562 -3789,-466 -1109,-1109 -1202,-2848 -280,-4063l-374 -374 601 -601 374 374z"/>
    <circle class="fil0 str1" cx="56000" cy="44750" r="2750"/>
   </g>
   <g>
    <path class="fil0 str0" d="M60129 39278c1215,-922 2954,-829 4063,280 1028,1028 1183,2597 466,3789l348 348 -1061 1061 -348 -348c-1192,717 -2761,562 -3789,-466 -1109,-1109 -1202,-2848 -280,-4063l-374 -374 601 -601 374 374z"/>
    <circle class="fil0 str1" cx="62000" cy="41750" r="2750"/>
   </g>
   <g>
    <path class="fil0 str0" d="M66129 42278c1215,-922 2954,-829 4063,280 1028,1028 1183,2597 466,3789l348 348 -1061 1061 -348 -348c-1192,717 -2761,562 -3789,-466 -1109,-1109 -1202,-2848 -280,-4063l-374 -374 601 -601 374 374z"/>
    <circle class="fil0 str1" cx="68000" cy="44750" r="2750"/>
   </g>
   <circle class="fil0 str1" cx="29000" cy="62750" r="300"/>
   <circle class="fil0 str1" cx="29000" cy="62000" r="150"/>
   <circle class="fil0 str1" cx="29000" cy="61250" r="300"/>
   <circle class="fil0 str1" cx="29000" cy="60500" r="150"/>
   <circle class="fil0 str1" cx="29000" cy="59750" r="300"/>
   <circle class="fil0 str1" cx="29000" cy="59000" r="150"/>
   <circle class="fil0 str1" cx="29000" cy="58250" r="300"/>
   <circle class="fil0 str1" cx="29000" cy="57500" r="150"/>
   <circle class="fil0 str1" cx="29000" cy="56750" r="300"/>
   <circle class="fil0 str1" cx="29000" cy="56000" r="150"/>
   <circle class="fil0 str1" cx="29000" cy="55250" r="300"/>
   <circle class="fil0 str1" cx="29000" cy="54500" r="150"/>
   <circle class="fil0 str1" cx="29000" cy="53750" r="300"/>
   <circle class="fil0 str1" cx="29000" cy="53000" r="150"/>
   <circle class="fil0 str1" cx="29000" cy="52250" r="300"/>
   <circle class="fil0 str1" cx="29000" cy="51500" r="150"/>
   <circle class="fil0 str1" cx="29000" cy="50750" r="300"/>
   <circle class="fil0 str1" cx="29000" cy="50000" r="150"/>
   <circle class="fil0 str1" cx="29000" cy="49250" r="300"/>
   <circle class="fil0 str1" cx="29000" cy="48500" r="150"/>
   <circle class="fil0 str1" cx="29000" cy="47750" r="300"/>
   <circle class="fil0 str1" cx="29000" cy="47000" r="150"/>
   <circle class="fil0 str1" cx="29000" cy="46250" r="300"/>
   <circle class="fil0 str1" cx="29000" cy="45500" r="150"/>
   <circle class="fil0 str1" cx="29000" cy="44750" r="300"/>
   <circle class="fil0 str1" cx="29000" cy="44000" r="150"/>
   <circle class="fil0 str1" cx="29000" cy="43250" r="300"/>
   <circle class="fil0 str1" cx="29000" cy="42500" r="150"/>
   <circle class="fil0 str1" cx="29000" cy="41750" r="300"/>
   <circle class="fil0 str1" cx="29000" cy="41000" r="150"/>
   <circle class="fil0 str1" cx="29000" cy="40250" r="300"/>
   <circle class="fil0 str1" cx="29000" cy="39500" r="150"/>
   <circle class="fil0 str1" cx="29000" cy="38750" r="300"/>
   <circle class="fil0 str1" cx="29000" cy="38000" r="150"/>
   <circle class="fil0 str1" cx="29000" cy="37250" r="300"/>
   <circle class="fil0 str1" cx="30500" cy="56000" r="150"/>
   <circle class="fil0 str1" cx="32000" cy="56000" r="150"/>
   <circle class="fil0 str1" cx="33500" cy="56000" r="150"/>
   <circle class="fil0 str1" cx="36500" cy="62750" r="300"/>
   <circle class="fil0 str1" cx="36500" cy="62000" r="150"/>
   <circle class="fil0 str1" cx="36500" cy="61250" r="300"/>
   <circle class="fil0 str1" cx="36500" cy="60500" r="150"/>
   <circle class="fil0 str1" cx="38000" cy="62750" r="300"/>
   <circle class="fil0 str1" cx="38000" cy="62000" r="150"/>
   <circle class="fil0 str1" cx="38000" cy="61250" r="300"/>
   <circle class="fil0 str1" cx="38000" cy="60500" r="150"/>
   <circle class="fil0 str1" cx="39500" cy="62750" r="300"/>
   <circle class="fil0 str1" cx="39500" cy="62000" r="150"/>
   <circle class="fil0 str1" cx="39500" cy="61250" r="300"/>
   <circle class="fil0 str1" cx="39500" cy="60500" r="150"/>
   <circle class="fil0 str1" cx="41000" cy="62750" r="300"/>
   <circle class="fil0 str1" cx="41000" cy="62000" r="150"/>
   <circle class="fil0 str1" cx="41000" cy="61250" r="300"/>
   <circle class="fil0 str1" cx="41000" cy="60500" r="150"/>
   <circle class="fil0 str1" cx="35750" cy="61250" r="150"/>
   <circle class="fil0 str1" cx="35750" cy="62750" r="150"/>
   <circle class="fil0 str1" cx="37250" cy="61250" r="150"/>
   <circle class="fil0 str1" cx="38750" cy="61250" r="150"/>
   <circle class="fil0 str1" cx="40250" cy="61250" r="150"/>
   <circle class="fil0 str1" cx="37250" cy="62750" r="150"/>
   <circle class="fil0 str1" cx="38750" cy="62750" r="150"/>
   <circle class="fil0 str1" cx="40250" cy="62750" r="150"/>
   <circle class="fil0 str1" cx="36500" cy="53750" r="300"/>
   <circle class="fil0 str1" cx="36500" cy="53000" r="150"/>
   <circle class="fil0 str1" cx="36500" cy="52250" r="300"/>
   <circle class="fil0 str1" cx="38000" cy="53000" r="150"/>
   <circle class="fil0 str1" cx="39500" cy="53750" r="300"/>
   <circle class="fil0 str1" cx="39500" cy="52250" r="300"/>
   <circle class="fil0 str1" cx="41000" cy="53750" r="300"/>
   <circle class="fil0 str1" cx="35750" cy="52250" r="150"/>
   <circle class="fil0 str1" cx="35750" cy="53750" r="150"/>
   <circle class="fil0 str1" cx="40250" cy="52250" r="150"/>
   <circle class="fil0 str1" cx="40250" cy="53750" r="150"/>
   <circle class="fil0 str1" cx="39500" cy="53000" r="150"/>
   <g>
    <circle class="fil0 str1" cx="48500" cy="53750" r="300"/>
    <circle class="fil0 str1" cx="48500" cy="53000" r="150"/>
    <circle class="fil0 str1" cx="48500" cy="52250" r="300"/>
    <circle class="fil0 str1" cx="50000" cy="53000" r="150"/>
    <circle class="fil0 str1" cx="51500" cy="53750" r="300"/>
    <circle class="fil0 str1" cx="51500" cy="52250" r="300"/>
    <circle class="fil0 str1" cx="53000" cy="53750" r="300"/>
    <circle class="fil0 str1" cx="47750" cy="52250" r="150"/>
    <circle class="fil0 str1" cx="47750" cy="53750" r="150"/>
    <circle class="fil0 str1" cx="52250" cy="52250" r="150"/>
    <circle class="fil0 str1" cx="52250" cy="53750" r="150"/>
    <circle class="fil0 str1" cx="51500" cy="53000" r="150"/>
    <circle class="fil0 str1" cx="42500" cy="56000" r="150"/>
    <circle class="fil0 str1" cx="44000" cy="56000" r="150"/>
    <circle class="fil0 str1" cx="45500" cy="56000" r="150"/>
   </g>
   <g>
    <circle class="fil0 str1" cx="60500" cy="53750" r="300"/>
    <circle class="fil0 str1" cx="60500" cy="53000" r="150"/>
    <circle class="fil0 str1" cx="60500" cy="52250" r="300"/>
    <circle class="fil0 str1" cx="62000" cy="53000" r="150"/>
    <circle class="fil0 str1" cx="63500" cy="53750" r="300"/>
    <circle class="fil0 str1" cx="63500" cy="52250" r="300"/>
    <circle class="fil0 str1" cx="65000" cy="53750" r="300"/>
    <circle class="fil0 str1" cx="59750" cy="52250" r="150"/>
    <circle class="fil0 str1" cx="59750" cy="53750" r="150"/>
    <circle class="fil0 str1" cx="64250" cy="52250" r="150"/>
    <circle class="fil0 str1" cx="64250" cy="53750" r="150"/>
    <circle class="fil0 str1" cx="63500" cy="53000" r="150"/>
    <circle class="fil0 str1" cx="54500" cy="56000" r="150"/>
    <circle class="fil0 str1" cx="56000" cy="56000" r="150"/>
    <circle class="fil0 str1" cx="57500" cy="56000" r="150"/>
   </g>
   <circle class="fil0 str1" cx="66500" cy="56000" r="150"/>
   <circle class="fil0 str1" cx="68000" cy="56000" r="150"/>
   <circle class="fil0 str1" cx="69500" cy="56000" r="150"/>
   <circle class="fil0 str1" cx="30500" cy="48500" r="150"/>
   <circle class="fil0 str1" cx="32000" cy="48500" r="150"/>
   <circle class="fil0 str1" cx="33500" cy="48500" r="150"/>
   <circle class="fil0 str1" cx="36500" cy="46250" r="300"/>
   <circle class="fil0 str1" cx="36500" cy="45500" r="150"/>
   <circle class="fil0 str1" cx="36500" cy="44750" r="300"/>
   <circle class="fil0 str1" cx="38000" cy="45500" r="150"/>
   <circle class="fil0 str1" cx="39500" cy="46250" r="300"/>
   <circle class="fil0 str1" cx="39500" cy="44750" r="300"/>
   <circle class="fil0 str1" cx="41000" cy="46250" r="300"/>
   <circle class="fil0 str1" cx="35750" cy="44750" r="150"/>
   <circle class="fil0 str1" cx="35750" cy="46250" r="150"/>
   <circle class="fil0 str1" cx="40250" cy="44750" r="150"/>
   <circle class="fil0 str1" cx="40250" cy="46250" r="150"/>
   <circle class="fil0 str1" cx="39500" cy="45500" r="150"/>
   <g>
    <circle class="fil0 str1" cx="48500" cy="46250" r="300"/>
    <circle class="fil0 str1" cx="48500" cy="45500" r="150"/>
    <circle class="fil0 str1" cx="48500" cy="44750" r="300"/>
    <circle class="fil0 str1" cx="50000" cy="45500" r="150"/>
    <circle class="fil0 str1" cx="51500" cy="46250" r="300"/>
    <circle class="fil0 str1" cx="51500" cy="44750" r="300"/>
    <circle class="fil0 str1" cx="53000" cy="46250" r="300"/>
    <circle class="fil0 str1" cx="47750" cy="44750" r="150"/>
    <circle class="fil0 str1" cx="47750" cy="46250" r="150"/>
    <circle class="fil0 str1" cx="52250" cy="44750" r="150"/>
    <circle class="fil0 str1" cx="52250" cy="46250" r="150"/>
    <circle class="fil0 str1" cx="51500" cy="45500" r="150"/>
    <circle class="fil0 str1" cx="42500" cy="48500" r="150"/>
    <circle class="fil0 str1" cx="44000" cy="48500" r="150"/>
    <circle class="fil0 str1" cx="45500" cy="48500" r="150"/>
   </g>
   <g>
    <circle class="fil0 str1" cx="60500" cy="46250" r="300"/>
    <circle class="fil0 str1" cx="60500" cy="45500" r="150"/>
    <circle class="fil0 str1" cx="60500" cy="44750" r="300"/>
    <circle class="fil0 str1" cx="62000" cy="45500" r="150"/>
    <circle class="fil0 str1" cx="63500" cy="46250" r="300"/>
    <circle class="fil0 str1" cx="63500" cy="44750" r="300"/>
    <circle class="fil0 str1" cx="65000" cy="46250" r="300"/>
    <circle class="fil0 str1" cx="59750" cy="44750" r="150"/>
    <circle class="fil0 str1" cx="59750" cy="46250" r="150"/>
    <circle class="fil0 str1" cx="64250" cy="44750" r="150"/>
    <circle class="fil0 str1" cx="64250" cy="46250" r="150"/>
    <circle class="fil0 str1" cx="63500" cy="45500" r="150"/>
    <circle class="fil0 str1" cx="54500" cy="48500" r="150"/>
    <circle class="fil0 str1" cx="56000" cy="48500" r="150"/>
    <circle class="fil0 str1" cx="57500" cy="48500" r="150"/>
   </g>
   <circle class="fil0 str1" cx="66500" cy="48500" r="150"/>
   <circle class="fil0 str1" cx="68000" cy="48500" r="150"/>
   <circle class="fil0 str1" cx="69500" cy="48500" r="150"/>
   <circle class="fil0 str1" cx="30500" cy="41000" r="150"/>
   <circle class="fil0 str1" cx="32000" cy="41000" r="150"/>
   <circle class="fil0 str1" cx="33500" cy="41000" r="150"/>
   <circle class="fil0 str1" cx="36500" cy="38750" r="300"/>
   <circle class="fil0 str1" cx="36500" cy="38000" r="150"/>
   <circle class="fil0 str1" cx="36500" cy="37250" r="300"/>
   <circle class="fil0 str1" cx="38000" cy="38000" r="150"/>
   <circle class="fil0 str1" cx="39500" cy="38750" r="300"/>
   <circle class="fil0 str1" cx="39500" cy="37250" r="300"/>
   <circle class="fil0 str1" cx="41000" cy="38750" r="300"/>
   <circle class="fil0 str1" cx="35750" cy="37250" r="150"/>
   <circle class="fil0 str1" cx="35750" cy="38750" r="150"/>
   <circle class="fil0 str1" cx="40250" cy="37250" r="150"/>
   <circle class="fil0 str1" cx="40250" cy="38750" r="150"/>
   <circle class="fil0 str1" cx="39500" cy="38000" r="150"/>
   <g>
    <circle class="fil0 str1" cx="48500" cy="38750" r="300"/>
    <circle class="fil0 str1" cx="48500" cy="38000" r="150"/>
    <circle class="fil0 str1" cx="48500" cy="37250" r="300"/>
    <circle class="fil0 str1" cx="50000" cy="38000" r="150"/>
    <circle class="fil0 str1" cx="51500" cy="38750" r="300"/>
    <circle class="fil0 str1" cx="51500" cy="37250" r="300"/>
    <circle class="fil0 str1" cx="53000" cy="38750" r="300"/>
    <circle class="fil0 str1" cx="47750" cy="37250" r="150"/>
    <circle class="fil0 str1" cx="47750" cy="38750" r="150"/>
    <circle class="fil0 str1" cx="52250" cy="37250" r="150"/>
    <circle class="fil0 str1" cx="52250" cy="38750" r="150"/>
    <circle class="fil0 str1" cx="51500" cy="38000" r="150"/>
    <circle class="fil0 str1" cx="42500" cy="41000" r="150"/>
    <circle class="fil0 str1" cx="44000" cy="41000" r="150"/>
    <circle class="fil0 str1" cx="45500" cy="41000" r="150"/>
   </g>
   <g>
    <circle class="fil0 str1" cx="60500" cy="38750" r="300"/>
    <circle class="fil0 str1" cx="60500" cy="38000" r="150"/>
    <circle class="fil0 str1" cx="60500" cy="37250" r="300"/>
    <circle class="fil0 str1" cx="62000" cy="38000" r="150"/>
    <circle class="fil0 str1" cx="63500" cy="38750" r="300"/>
    <circle class="fil0 str1" cx="63500" cy="37250" r="300"/>
    <circle class="fil0 str1" cx="65000" cy="38750" r="300"/>
    <circle class="fil0 str1" cx="59750" cy="37250" r="150"/>
    <circle class="fil0 str1" cx="59750" cy="38750" r="150"/>
    <circle class="fil0 str1" cx="64250" cy="37250" r="150"/>
    <circle class="fil0 str1" cx="64250" cy="38750" r="150"/>
    <circle class="fil0 str1" cx="63500" cy="38000" r="150"/>
    <circle class="fil0 str1" cx="54500" cy="41000" r="150"/>
    <circle class="fil0 str1" cx="56000" cy="41000" r="150"/>
    <circle class="fil0 str1" cx="57500" cy="41000" r="150"/>
   </g>
   <circle class="fil0 str1" cx="66500" cy="41000" r="150"/>
   <circle class="fil0 str1" cx="68000" cy="41000" r="150"/>
   <circle class="fil0 str1" cx="69500" cy="41000" r="150"/>
   <circle class="fil0 str1" cx="48500" cy="62750" r="300"/>
   <circle class="fil0 str1" cx="48500" cy="62000" r="150"/>
   <circle class="fil0 str1" cx="48500" cy="61250" r="300"/>
   <circle class="fil0 str1" cx="48500" cy="60500" r="150"/>
   <circle class="fil0 str1" cx="50000" cy="62750" r="300"/>
   <circle class="fil0 str1" cx="50000" cy="62000" r="150"/>
   <circle class="fil0 str1" cx="50000" cy="61250" r="300"/>
   <circle class="fil0 str1" cx="50000" cy="60500" r="150"/>
   <circle class="fil0 str1" cx="51500" cy="62750" r="300"/>
   <circle class="fil0 str1" cx="51500" cy="62000" r="150"/>
   <circle class="fil0 str1" cx="51500" cy="61250" r="300"/>
   <circle class="fil0 str1" cx="51500" cy="60500" r="150"/>
   <circle class="fil0 str1" cx="53000" cy="62750" r="300"/>
   <circle class="fil0 str1" cx="53000" cy="62000" r="150"/>
   <circle class="fil0 str1" cx="53000" cy="61250" r="300"/>
   <circle class="fil0 str1" cx="53000" cy="60500" r="150"/>
   <circle class="fil0 str1" cx="47750" cy="61250" r="150"/>
   <circle class="fil0 str1" cx="47750" cy="62750" r="150"/>
   <circle class="fil0 str1" cx="49250" cy="61250" r="150"/>
   <circle class="fil0 str1" cx="50750" cy="61250" r="150"/>
   <circle class="fil0 str1" cx="52250" cy="61250" r="150"/>
   <circle class="fil0 str1" cx="49250" cy="62750" r="150"/>
   <circle class="fil0 str1" cx="50750" cy="62750" r="150"/>
   <circle class="fil0 str1" cx="52250" cy="62750" r="150"/>
   <circle class="fil0 str1" cx="60500" cy="62750" r="300"/>
   <circle class="fil0 str1" cx="60500" cy="62000" r="150"/>
   <circle class="fil0 str1" cx="60500" cy="61250" r="300"/>
   <circle class="fil0 str1" cx="60500" cy="60500" r="150"/>
   <circle class="fil0 str1" cx="62000" cy="62750" r="300"/>
   <circle class="fil0 str1" cx="62000" cy="62000" r="150"/>
   <circle class="fil0 str1" cx="62000" cy="61250" r="300"/>
   <circle class="fil0 str1" cx="62000" cy="60500" r="150"/>
   <circle class="fil0 str1" cx="63500" cy="62750" r="300"/>
   <circle class="fil0 str1" cx="63500" cy="62000" r="150"/>
   <circle class="fil0 str1" cx="63500" cy="61250" r="300"/>
   <circle class="fil0 str1" cx="63500" cy="60500" r="150"/>
   <circle class="fil0 str1" cx="65000" cy="62750" r="300"/>
   <circle class="fil0 str1" cx="65000" cy="62000" r="150"/>
   <circle class="fil0 str1" cx="65000" cy="61250" r="300"/>
   <circle class="fil0 str1" cx="65000" cy="60500" r="150"/>
   <circle class="fil0 str1" cx="59750" cy="61250" r="150"/>
   <circle class="fil0 str1" cx="59750" cy="62750" r="150"/>
   <circle class="fil0 str1" cx="61250" cy="61250" r="150"/>
   <circle class="fil0 str1" cx="62750" cy="61250" r="150"/>
   <circle class="fil0 str1" cx="64250" cy="61250" r="150"/>
   <circle class="fil0 str1" cx="61250" cy="62750" r="150"/>
   <circle class="fil0 str1" cx="62750" cy="62750" r="150"/>
   <circle class="fil0 str1" cx="64250" cy="62750" r="150"/>
   <circle class="fil0 str1" cx="71000" cy="62750" r="300"/>
   <circle class="fil0 str1" cx="71000" cy="62000" r="150"/>
   <circle class="fil0 str1" cx="71000" cy="61250" r="300"/>
   <circle class="fil0 str1" cx="71000" cy="60500" r="150"/>
   <circle class="fil0 str1" cx="71000" cy="59750" r="300"/>
   <circle class="fil0 str1" cx="71000" cy="59000" r="150"/>
   <circle class="fil0 str1" cx="71000" cy="58250" r="300"/>
   <circle class="fil0 str1" cx="71000" cy="57500" r="150"/>
   <circle class="fil0 str1" cx="71000" cy="56750" r="300"/>
   <circle class="fil0 str1" cx="71000" cy="56000" r="150"/>
   <circle class="fil0 str1" cx="71000" cy="55250" r="300"/>
   <circle class="fil0 str1" cx="71000" cy="54500" r="150"/>
   <circle class="fil0 str1" cx="71000" cy="53750" r="300"/>
   <circle class="fil0 str1" cx="71000" cy="53000" r="150"/>
   <circle class="fil0 str1" cx="71000" cy="52250" r="300"/>
   <circle class="fil0 str1" cx="71000" cy="51500" r="150"/>
   <circle class="fil0 str1" cx="71000" cy="50750" r="300"/>
   <circle class="fil0 str1" cx="71000" cy="50000" r="150"/>
   <circle class="fil0 str1" cx="71000" cy="49250" r="300"/>
   <circle class="fil0 str1" cx="71000" cy="48500" r="150"/>
   <circle class="fil0 str1" cx="71000" cy="47750" r="300"/>
   <circle class="fil0 str1" cx="71000" cy="47000" r="150"/>
   <circle class="fil0 str1" cx="71000" cy="46250" r="300"/>
   <circle class="fil0 str1" cx="71000" cy="45500" r="150"/>
   <circle class="fil0 str1" cx="71000" cy="44750" r="300"/>
   <circle class="fil0 str1" cx="71000" cy="44000" r="150"/>
   <circle class="fil0 str1" cx="71000" cy="43250" r="300"/>
   <circle class="fil0 str1" cx="71000" cy="42500" r="150"/>
   <circle class="fil0 str1" cx="71000" cy="41750" r="300"/>
   <circle class="fil0 str1" cx="71000" cy="41000" r="150"/>
   <circle class="fil0 str1" cx="71000" cy="40250" r="300"/>
   <circle class="fil0 str1" cx="71000" cy="39500" r="150"/>
   <circle class="fil0 str1" cx="71000" cy="38750" r="300"/>
   <circle class="fil0 str1" cx="71000" cy="38000" r="150"/>
   <circle class="fil0 str1" cx="71000" cy="37250" r="300"/>
   <circle class="fil0 str1" cx="50000" cy="37250" r="300"/>
   <circle class="fil0 str1" cx="38000" cy="37250" r="300"/>
   <circle class="fil0 str1" cx="62000" cy="37250" r="300"/>
   <circle class="fil0 str1" cx="53000" cy="40250" r="300"/>
   <circle class="fil0 str1" cx="54500" cy="40250" r="300"/>
   <circle class="fil0 str1" cx="56000" cy="40250" r="300"/>
   <circle class="fil0 str1" cx="57500" cy="40250" r="300"/>
   <circle class="fil0 str1" cx="66500" cy="40250" r="300"/>
   <circle class="fil0 str1" cx="68000" cy="40250" r="300"/>
   <circle class="fil0 str1" cx="69500" cy="40250" r="300"/>
   <circle class="fil0 str1" cx="45500" cy="40250" r="300"/>
   <circle class="fil0 str1" cx="44000" cy="40250" r="300"/>
   <circle class="fil0 str1" cx="42500" cy="40250" r="300"/>
   <circle class="fil0 str1" cx="33500" cy="40250" r="300"/>
   <circle class="fil0 str1" cx="32000" cy="40250" r="300"/>
   <circle class="fil0 str1" cx="30500" cy="40250" r="300"/>
  </g>
 </g>
</svg>
