<?xml version="1.0" encoding="UTF-8"?>
<!DOCTYPE svg PUBLIC "-//W3C//DTD SVG 1.1//EN" "http://www.w3.org/Graphics/SVG/1.1/DTD/svg11.dtd">
<!-- Creator: CorelDRAW X6 -->
<svg xmlns="http://www.w3.org/2000/svg" xml:space="preserve" width="1000mm" height="1000mm" version="1.1" style="shape-rendering:geometricPrecision; text-rendering:geometricPrecision; image-rendering:optimizeQuality; fill-rule:evenodd; clip-rule:evenodd"
viewBox="0 0 100000 100000"
 xmlns:xlink="http://www.w3.org/1999/xlink">
 <defs>
  <style type="text/css">
   <![CDATA[
    .str0 {stroke:black;stroke-width:52.92;stroke-linecap:round;stroke-linejoin:round}
    .str1 {stroke:aqua;stroke-width:52.92;stroke-linecap:round;stroke-linejoin:round}
    .fil0 {fill:none}
   ]]>
  </style>
 </defs>
 <g id="Layer_x0020_1">
  <metadata id="CorelCorpID_0Corel-Layer"/>
  <g id="_866832048">
   <path class="fil0 str0" d="M28300 62950l0 -25900c0,-276 224,-500 500,-500l2950 0 0 5250c0,1105 895,2000 2000,2000l5500 0c1105,0 2000,-895 2000,-2000l0 -5250 4000 0 0 5250c0,1105 895,2000 2000,2000l5500 0c1105,0 2000,-895 2000,-2000l0 -5250 4000 0 0 5250c0,1105 895,2000 2000,2000l5500 0c1105,0 2000,-895 2000,-2000l0 -5250 2950 0c276,0 500,224 500,500l0 25900c0,276 -224,500 -500,500l-42400 0c-276,0 -500,-224 -500,-500z"/>
   <g>
    <g>
     <g>
      <path class="fil0 str1" d="M40350 62900l-7700 0c-1105,0 -2000,-895 -2000,-2000l0 -12800c0,-1105 895,-2000 2000,-2000l7700 0c1105,0 2000,895 2000,2000l0 12800c0,1105 -895,2000 -2000,2000z"/>
      <path class="fil0 str1" d="M40350 62500l-7700 0c-884,0 -1600,-716 -1600,-1600l0 -12800c0,-884 716,-1600 1600,-1600l7700 0c884,0 1600,716 1600,1600l0 12800c0,884 -716,1600 -1600,1600z"/>
     </g>
     <path class="fil0 str1" d="M39350 61500l-5700 0c-884,0 -1600,-716 -1600,-1600l0 -10800c0,-884 716,-1600 1600,-1600l5700 0c884,0 1600,716 1600,1600l0 10800c0,884 -716,1600 -1600,1600z"/>
    </g>
    <path class="fil0 str0" d="M39250 61800l-5500 0c-1105,0 -2000,-895 -2000,-2000l0 -10600c0,-1105 895,-2000 2000,-2000l5500 0c1105,0 2000,895 2000,2000l0 10600c0,1105 -895,2000 -2000,2000z"/>
   </g>
   <g>
    <g>
     <g>
      <path class="fil0 str1" d="M53850 62900l-7700 0c-1105,0 -2000,-895 -2000,-2000l0 -12800c0,-1105 895,-2000 2000,-2000l7700 0c1105,0 2000,895 2000,2000l0 12800c0,1105 -895,2000 -2000,2000z"/>
      <path class="fil0 str1" d="M53850 62500l-7700 0c-884,0 -1600,-716 -1600,-1600l0 -12800c0,-884 716,-1600 1600,-1600l7700 0c884,0 1600,716 1600,1600l0 12800c0,884 -716,1600 -1600,1600z"/>
     </g>
     <path class="fil0 str1" d="M52850 61500l-5700 0c-884,0 -1600,-716 -1600,-1600l0 -10800c0,-884 716,-1600 1600,-1600l5700 0c884,0 1600,716 1600,1600l0 10800c0,884 -716,1600 -1600,1600z"/>
    </g>
    <path class="fil0 str0" d="M52750 61800l-5500 0c-1105,0 -2000,-895 -2000,-2000l0 -10600c0,-1105 895,-2000 2000,-2000l5500 0c1105,0 2000,895 2000,2000l0 10600c0,1105 -895,2000 -2000,2000z"/>
   </g>
   <g>
    <g>
     <g>
      <path class="fil0 str1" d="M67350 62900l-7700 0c-1105,0 -2000,-895 -2000,-2000l0 -12800c0,-1105 895,-2000 2000,-2000l7700 0c1105,0 2000,895 2000,2000l0 12800c0,1105 -895,2000 -2000,2000z"/>
      <path class="fil0 str1" d="M67350 62500l-7700 0c-884,0 -1600,-716 -1600,-1600l0 -12800c0,-884 716,-1600 1600,-1600l7700 0c884,0 1600,716 1600,1600l0 12800c0,884 -716,1600 -1600,1600z"/>
     </g>
     <path class="fil0 str1" d="M66350 61500l-5700 0c-884,0 -1600,-716 -1600,-1600l0 -10800c0,-884 716,-1600 1600,-1600l5700 0c884,0 1600,716 1600,1600l0 10800c0,884 -716,1600 -1600,1600z"/>
    </g>
    <path class="fil0 str0" d="M66250 61800l-5500 0c-1105,0 -2000,-895 -2000,-2000l0 -10600c0,-1105 895,-2000 2000,-2000l5500 0c1105,0 2000,895 2000,2000l0 10600c0,1105 -895,2000 -2000,2000z"/>
   </g>
   <circle class="fil0 str0" cx="29000" cy="62750" r="300"/>
   <circle class="fil0 str0" cx="29000" cy="62000" r="150"/>
   <circle class="fil0 str0" cx="29000" cy="61250" r="300"/>
   <circle class="fil0 str0" cx="29000" cy="60500" r="150"/>
   <circle class="fil0 str0" cx="29000" cy="59750" r="300"/>
   <circle class="fil0 str0" cx="29000" cy="59000" r="150"/>
   <circle class="fil0 str0" cx="29000" cy="58250" r="300"/>
   <circle class="fil0 str0" cx="29000" cy="57500" r="150"/>
   <circle class="fil0 str0" cx="29000" cy="56750" r="300"/>
   <circle class="fil0 str0" cx="29000" cy="56000" r="150"/>
   <circle class="fil0 str0" cx="29000" cy="55250" r="300"/>
   <circle class="fil0 str0" cx="29000" cy="54500" r="150"/>
   <circle class="fil0 str0" cx="29000" cy="53750" r="300"/>
   <circle class="fil0 str0" cx="29000" cy="53000" r="150"/>
   <circle class="fil0 str0" cx="29000" cy="52250" r="300"/>
   <circle class="fil0 str0" cx="29000" cy="51500" r="150"/>
   <circle class="fil0 str0" cx="29000" cy="50750" r="300"/>
   <circle class="fil0 str0" cx="29000" cy="50000" r="150"/>
   <circle class="fil0 str0" cx="29000" cy="49250" r="300"/>
   <circle class="fil0 str0" cx="29000" cy="48500" r="150"/>
   <circle class="fil0 str0" cx="29000" cy="47750" r="300"/>
   <circle class="fil0 str0" cx="29000" cy="47000" r="150"/>
   <circle class="fil0 str0" cx="29000" cy="46250" r="300"/>
   <circle class="fil0 str0" cx="29000" cy="45500" r="150"/>
   <circle class="fil0 str0" cx="29000" cy="44750" r="300"/>
   <circle class="fil0 str0" cx="29000" cy="44000" r="150"/>
   <circle class="fil0 str0" cx="29000" cy="43250" r="300"/>
   <circle class="fil0 str0" cx="29000" cy="42500" r="150"/>
   <circle class="fil0 str0" cx="29000" cy="41750" r="300"/>
   <circle class="fil0 str0" cx="29000" cy="41000" r="150"/>
   <circle class="fil0 str0" cx="29000" cy="40250" r="300"/>
   <circle class="fil0 str0" cx="29000" cy="39500" r="150"/>
   <circle class="fil0 str0" cx="29000" cy="38750" r="300"/>
   <circle class="fil0 str0" cx="29000" cy="38000" r="150"/>
   <circle class="fil0 str0" cx="29000" cy="37250" r="300"/>
   <circle class="fil0 str0" cx="71000" cy="62750" r="300"/>
   <circle class="fil0 str0" cx="71000" cy="62000" r="150"/>
   <circle class="fil0 str0" cx="71000" cy="61250" r="300"/>
   <circle class="fil0 str0" cx="71000" cy="60500" r="150"/>
   <circle class="fil0 str0" cx="71000" cy="59750" r="300"/>
   <circle class="fil0 str0" cx="71000" cy="59000" r="150"/>
   <circle class="fil0 str0" cx="71000" cy="58250" r="300"/>
   <circle class="fil0 str0" cx="71000" cy="57500" r="150"/>
   <circle class="fil0 str0" cx="71000" cy="56750" r="300"/>
   <circle class="fil0 str0" cx="71000" cy="56000" r="150"/>
   <circle class="fil0 str0" cx="71000" cy="55250" r="300"/>
   <circle class="fil0 str0" cx="71000" cy="54500" r="150"/>
   <circle class="fil0 str0" cx="71000" cy="53750" r="300"/>
   <circle class="fil0 str0" cx="71000" cy="53000" r="150"/>
   <circle class="fil0 str0" cx="71000" cy="52250" r="300"/>
   <circle class="fil0 str0" cx="71000" cy="51500" r="150"/>
   <circle class="fil0 str0" cx="71000" cy="50750" r="300"/>
   <circle class="fil0 str0" cx="71000" cy="50000" r="150"/>
   <circle class="fil0 str0" cx="71000" cy="49250" r="300"/>
   <circle class="fil0 str0" cx="71000" cy="48500" r="150"/>
   <circle class="fil0 str0" cx="71000" cy="47750" r="300"/>
   <circle class="fil0 str0" cx="71000" cy="47000" r="150"/>
   <circle class="fil0 str0" cx="71000" cy="46250" r="300"/>
   <circle class="fil0 str0" cx="71000" cy="45500" r="150"/>
   <circle class="fil0 str0" cx="71000" cy="44750" r="300"/>
   <circle class="fil0 str0" cx="71000" cy="44000" r="150"/>
   <circle class="fil0 str0" cx="71000" cy="43250" r="300"/>
   <circle class="fil0 str0" cx="71000" cy="42500" r="150"/>
   <circle class="fil0 str0" cx="71000" cy="41750" r="300"/>
   <circle class="fil0 str0" cx="71000" cy="41000" r="150"/>
   <circle class="fil0 str0" cx="71000" cy="40250" r="300"/>
   <circle class="fil0 str0" cx="71000" cy="39500" r="150"/>
   <circle class="fil0 str0" cx="71000" cy="38750" r="300"/>
   <circle class="fil0 str0" cx="71000" cy="38000" r="150"/>
   <circle class="fil0 str0" cx="71000" cy="37250" r="300"/>
   <circle class="fil0 str0" transform="matrix(4.55009E-014 -1.71802 1.71802 4.55009E-014 54500 62750)" r="175"/>
   <circle class="fil0 str0" transform="matrix(2.27504E-014 -0.859008 0.859008 2.27504E-014 53750 62750)" r="175"/>
   <circle class="fil0 str0" transform="matrix(4.55009E-014 -1.71802 1.71802 4.55009E-014 53000 62750)" r="175"/>
   <circle class="fil0 str0" transform="matrix(2.27504E-014 -0.859008 0.859008 2.27504E-014 52250 62750)" r="175"/>
   <circle class="fil0 str0" transform="matrix(4.55009E-014 -1.71802 1.71802 4.55009E-014 51500 62750)" r="175"/>
   <circle class="fil0 str0" transform="matrix(2.27504E-014 -0.859008 0.859008 2.27504E-014 50750 62750)" r="175"/>
   <circle class="fil0 str0" transform="matrix(4.55009E-014 -1.71802 1.71802 4.55009E-014 50000 62750)" r="175"/>
   <circle class="fil0 str0" transform="matrix(2.27504E-014 -0.859008 0.859008 2.27504E-014 49250 62750)" r="175"/>
   <circle class="fil0 str0" transform="matrix(4.55009E-014 -1.71802 1.71802 4.55009E-014 48500 62750)" r="175"/>
   <circle class="fil0 str0" transform="matrix(2.27504E-014 -0.859008 0.859008 2.27504E-014 47750 62750)" r="175"/>
   <circle class="fil0 str0" transform="matrix(4.55009E-014 -1.71802 1.71802 4.55009E-014 47000 62750)" r="175"/>
   <circle class="fil0 str0" transform="matrix(2.27504E-014 -0.859008 0.859008 2.27504E-014 46250 62750)" r="175"/>
   <circle class="fil0 str0" transform="matrix(4.55009E-014 -1.71802 1.71802 4.55009E-014 45500 62750)" r="175"/>
   <circle class="fil0 str0" transform="matrix(2.27504E-014 -0.859008 0.859008 2.27504E-014 44750 62750)" r="175"/>
   <circle class="fil0 str0" transform="matrix(4.55009E-014 -1.71802 1.71802 4.55009E-014 44000 62750)" r="175"/>
   <circle class="fil0 str0" transform="matrix(2.27504E-014 -0.859008 0.859008 2.27504E-014 43250 62750)" r="175"/>
   <circle class="fil0 str0" transform="matrix(4.55009E-014 -1.71802 1.71802 4.55009E-014 42500 62750)" r="175"/>
   <circle class="fil0 str0" transform="matrix(2.27504E-014 -0.859008 0.859008 2.27504E-014 41750 62750)" r="175"/>
   <circle class="fil0 str0" transform="matrix(4.55009E-014 -1.71802 1.71802 4.55009E-014 41000 62750)" r="175"/>
   <circle class="fil0 str0" transform="matrix(2.27504E-014 -0.859008 0.859008 2.27504E-014 40250 62750)" r="175"/>
   <circle class="fil0 str0" transform="matrix(4.55009E-014 -1.71802 1.71802 4.55009E-014 39500 62750)" r="175"/>
   <circle class="fil0 str0" transform="matrix(2.27504E-014 -0.859008 0.859008 2.27504E-014 38750 62750)" r="175"/>
   <circle class="fil0 str0" transform="matrix(4.55009E-014 -1.71802 1.71802 4.55009E-014 38000 62750)" r="175"/>
   <circle class="fil0 str0" transform="matrix(2.27504E-014 -0.859008 0.859008 2.27504E-014 37250 62750)" r="175"/>
   <circle class="fil0 str0" transform="matrix(4.55009E-014 -1.71802 1.71802 4.55009E-014 36500 62750)" r="175"/>
   <circle class="fil0 str0" transform="matrix(2.27504E-014 -0.859008 0.859008 2.27504E-014 35750 62750)" r="175"/>
   <circle class="fil0 str0" transform="matrix(4.55009E-014 -1.71802 1.71802 4.55009E-014 35000 62750)" r="175"/>
   <circle class="fil0 str0" transform="matrix(2.27504E-014 -0.859008 0.859008 2.27504E-014 34250 62750)" r="175"/>
   <circle class="fil0 str0" transform="matrix(4.55009E-014 -1.71802 1.71802 4.55009E-014 33500 62750)" r="175"/>
   <circle class="fil0 str0" transform="matrix(2.27504E-014 -0.859008 0.859008 2.27504E-014 32750 62750)" r="175"/>
   <circle class="fil0 str0" transform="matrix(4.55009E-014 -1.71802 1.71802 4.55009E-014 32000 62750)" r="175"/>
   <circle class="fil0 str0" transform="matrix(2.27504E-014 -0.859008 0.859008 2.27504E-014 31250 62750)" r="175"/>
   <circle class="fil0 str0" transform="matrix(4.55009E-014 -1.71802 1.71802 4.55009E-014 30500 62750)" r="175"/>
   <circle class="fil0 str0" transform="matrix(2.27504E-014 -0.859008 0.859008 2.27504E-014 29750 62750)" r="175"/>
   <circle class="fil0 str0" transform="matrix(2.27504E-014 -0.859008 0.859008 2.27504E-014 70250 62750)" r="175"/>
   <circle class="fil0 str0" transform="matrix(4.55009E-014 -1.71802 1.71802 4.55009E-014 69500 62750)" r="175"/>
   <circle class="fil0 str0" transform="matrix(2.27504E-014 -0.859008 0.859008 2.27504E-014 68750 62750)" r="175"/>
   <circle class="fil0 str0" transform="matrix(4.55009E-014 -1.71802 1.71802 4.55009E-014 68000 62750)" r="175"/>
   <circle class="fil0 str0" transform="matrix(2.27504E-014 -0.859008 0.859008 2.27504E-014 67250 62750)" r="175"/>
   <circle class="fil0 str0" transform="matrix(4.55009E-014 -1.71802 1.71802 4.55009E-014 66500 62750)" r="175"/>
   <circle class="fil0 str0" transform="matrix(2.27504E-014 -0.859008 0.859008 2.27504E-014 65750 62750)" r="175"/>
   <circle class="fil0 str0" transform="matrix(4.55009E-014 -1.71802 1.71802 4.55009E-014 65000 62750)" r="175"/>
   <circle class="fil0 str0" transform="matrix(2.27504E-014 -0.859008 0.859008 2.27504E-014 64250 62750)" r="175"/>
   <circle class="fil0 str0" transform="matrix(4.55009E-014 -1.71802 1.71802 4.55009E-014 63500 62750)" r="175"/>
   <circle class="fil0 str0" transform="matrix(2.27504E-014 -0.859008 0.859008 2.27504E-014 62750 62750)" r="175"/>
   <circle class="fil0 str0" transform="matrix(4.55009E-014 -1.71802 1.71802 4.55009E-014 62000 62750)" r="175"/>
   <circle class="fil0 str0" transform="matrix(2.27504E-014 -0.859008 0.859008 2.27504E-014 61250 62750)" r="175"/>
   <circle class="fil0 str0" transform="matrix(4.55009E-014 -1.71802 1.71802 4.55009E-014 60500 62750)" r="175"/>
   <circle class="fil0 str0" transform="matrix(2.27504E-014 -0.859008 0.859008 2.27504E-014 59750 62750)" r="175"/>
   <circle class="fil0 str0" transform="matrix(4.55009E-014 -1.71802 1.71802 4.55009E-014 59000 62750)" r="175"/>
   <circle class="fil0 str0" transform="matrix(2.27504E-014 -0.859008 0.859008 2.27504E-014 58250 62750)" r="175"/>
   <circle class="fil0 str0" transform="matrix(4.55009E-014 -1.71802 1.71802 4.55009E-014 57500 62750)" r="175"/>
   <circle class="fil0 str0" transform="matrix(2.27504E-014 -0.859008 0.859008 2.27504E-014 56750 62750)" r="175"/>
   <circle class="fil0 str0" transform="matrix(4.55009E-014 -1.71802 1.71802 4.55009E-014 56000 62750)" r="175"/>
   <circle class="fil0 str0" transform="matrix(2.27504E-014 -0.859008 0.859008 2.27504E-014 55250 62750)" r="175"/>
   <circle class="fil0 str0" transform="matrix(4.55009E-014 -1.71802 1.71802 4.55009E-014 54500 46250)" r="175"/>
   <circle class="fil0 str0" transform="matrix(2.27504E-014 -0.859008 0.859008 2.27504E-014 53750 46250)" r="175"/>
   <circle class="fil0 str0" transform="matrix(4.55009E-014 -1.71802 1.71802 4.55009E-014 53000 46250)" r="175"/>
   <circle class="fil0 str0" transform="matrix(2.27504E-014 -0.859008 0.859008 2.27504E-014 52250 46250)" r="175"/>
   <circle class="fil0 str0" transform="matrix(4.55009E-014 -1.71802 1.71802 4.55009E-014 51500 46250)" r="175"/>
   <circle class="fil0 str0" transform="matrix(2.27504E-014 -0.859008 0.859008 2.27504E-014 50750 46250)" r="175"/>
   <circle class="fil0 str0" transform="matrix(4.55009E-014 -1.71802 1.71802 4.55009E-014 50000 46250)" r="175"/>
   <circle class="fil0 str0" transform="matrix(2.27504E-014 -0.859008 0.859008 2.27504E-014 49250 46250)" r="175"/>
   <circle class="fil0 str0" transform="matrix(4.55009E-014 -1.71802 1.71802 4.55009E-014 48500 46250)" r="175"/>
   <circle class="fil0 str0" transform="matrix(2.27504E-014 -0.859008 0.859008 2.27504E-014 47750 46250)" r="175"/>
   <circle class="fil0 str0" transform="matrix(4.55009E-014 -1.71802 1.71802 4.55009E-014 47000 46250)" r="175"/>
   <circle class="fil0 str0" transform="matrix(2.27504E-014 -0.859008 0.859008 2.27504E-014 46250 46250)" r="175"/>
   <circle class="fil0 str0" transform="matrix(4.55009E-014 -1.71802 1.71802 4.55009E-014 45500 46250)" r="175"/>
   <circle class="fil0 str0" transform="matrix(2.27504E-014 -0.859008 0.859008 2.27504E-014 44750 46250)" r="175"/>
   <circle class="fil0 str0" transform="matrix(4.55009E-014 -1.71802 1.71802 4.55009E-014 44000 46250)" r="175"/>
   <circle class="fil0 str0" transform="matrix(2.27504E-014 -0.859008 0.859008 2.27504E-014 43250 46250)" r="175"/>
   <circle class="fil0 str0" transform="matrix(4.55009E-014 -1.71802 1.71802 4.55009E-014 42500 46250)" r="175"/>
   <circle class="fil0 str0" transform="matrix(2.27504E-014 -0.859008 0.859008 2.27504E-014 41750 46250)" r="175"/>
   <circle class="fil0 str0" transform="matrix(4.55009E-014 -1.71802 1.71802 4.55009E-014 41000 46250)" r="175"/>
   <circle class="fil0 str0" transform="matrix(2.27504E-014 -0.859008 0.859008 2.27504E-014 40250 46250)" r="175"/>
   <circle class="fil0 str0" transform="matrix(4.55009E-014 -1.71802 1.71802 4.55009E-014 39500 46250)" r="175"/>
   <circle class="fil0 str0" transform="matrix(2.27504E-014 -0.859008 0.859008 2.27504E-014 38750 46250)" r="175"/>
   <circle class="fil0 str0" transform="matrix(4.55009E-014 -1.71802 1.71802 4.55009E-014 38000 46250)" r="175"/>
   <circle class="fil0 str0" transform="matrix(2.27504E-014 -0.859008 0.859008 2.27504E-014 37250 46250)" r="175"/>
   <circle class="fil0 str0" transform="matrix(4.55009E-014 -1.71802 1.71802 4.55009E-014 36500 46250)" r="175"/>
   <circle class="fil0 str0" transform="matrix(2.27504E-014 -0.859008 0.859008 2.27504E-014 35750 46250)" r="175"/>
   <circle class="fil0 str0" transform="matrix(4.55009E-014 -1.71802 1.71802 4.55009E-014 35000 46250)" r="175"/>
   <circle class="fil0 str0" transform="matrix(2.27504E-014 -0.859008 0.859008 2.27504E-014 34250 46250)" r="175"/>
   <circle class="fil0 str0" transform="matrix(4.55009E-014 -1.71802 1.71802 4.55009E-014 33500 46250)" r="175"/>
   <circle class="fil0 str0" transform="matrix(2.27504E-014 -0.859008 0.859008 2.27504E-014 32750 46250)" r="175"/>
   <circle class="fil0 str0" transform="matrix(4.55009E-014 -1.71802 1.71802 4.55009E-014 32000 46250)" r="175"/>
   <circle class="fil0 str0" transform="matrix(2.27504E-014 -0.859008 0.859008 2.27504E-014 31250 46250)" r="175"/>
   <circle class="fil0 str0" transform="matrix(4.55009E-014 -1.71802 1.71802 4.55009E-014 30500 46250)" r="175"/>
   <circle class="fil0 str0" transform="matrix(2.27504E-014 -0.859008 0.859008 2.27504E-014 29750 46250)" r="175"/>
   <circle class="fil0 str0" transform="matrix(2.27504E-014 -0.859008 0.859008 2.27504E-014 70250 46250)" r="175"/>
   <circle class="fil0 str0" transform="matrix(4.55009E-014 -1.71802 1.71802 4.55009E-014 69500 46250)" r="175"/>
   <circle class="fil0 str0" transform="matrix(2.27504E-014 -0.859008 0.859008 2.27504E-014 68750 46250)" r="175"/>
   <circle class="fil0 str0" transform="matrix(4.55009E-014 -1.71802 1.71802 4.55009E-014 68000 46250)" r="175"/>
   <circle class="fil0 str0" transform="matrix(2.27504E-014 -0.859008 0.859008 2.27504E-014 67250 46250)" r="175"/>
   <circle class="fil0 str0" transform="matrix(4.55009E-014 -1.71802 1.71802 4.55009E-014 66500 46250)" r="175"/>
   <circle class="fil0 str0" transform="matrix(2.27504E-014 -0.859008 0.859008 2.27504E-014 65750 46250)" r="175"/>
   <circle class="fil0 str0" transform="matrix(4.55009E-014 -1.71802 1.71802 4.55009E-014 65000 46250)" r="175"/>
   <circle class="fil0 str0" transform="matrix(2.27504E-014 -0.859008 0.859008 2.27504E-014 64250 46250)" r="175"/>
   <circle class="fil0 str0" transform="matrix(4.55009E-014 -1.71802 1.71802 4.55009E-014 63500 46250)" r="175"/>
   <circle class="fil0 str0" transform="matrix(2.27504E-014 -0.859008 0.859008 2.27504E-014 62750 46250)" r="175"/>
   <circle class="fil0 str0" transform="matrix(4.55009E-014 -1.71802 1.71802 4.55009E-014 62000 46250)" r="175"/>
   <circle class="fil0 str0" transform="matrix(2.27504E-014 -0.859008 0.859008 2.27504E-014 61250 46250)" r="175"/>
   <circle class="fil0 str0" transform="matrix(4.55009E-014 -1.71802 1.71802 4.55009E-014 60500 46250)" r="175"/>
   <circle class="fil0 str0" transform="matrix(2.27504E-014 -0.859008 0.859008 2.27504E-014 59750 46250)" r="175"/>
   <circle class="fil0 str0" transform="matrix(4.55009E-014 -1.71802 1.71802 4.55009E-014 59000 46250)" r="175"/>
   <circle class="fil0 str0" transform="matrix(2.27504E-014 -0.859008 0.859008 2.27504E-014 58250 46250)" r="175"/>
   <circle class="fil0 str0" transform="matrix(4.55009E-014 -1.71802 1.71802 4.55009E-014 57500 46250)" r="175"/>
   <circle class="fil0 str0" transform="matrix(2.27504E-014 -0.859008 0.859008 2.27504E-014 56750 46250)" r="175"/>
   <circle class="fil0 str0" transform="matrix(4.55009E-014 -1.71802 1.71802 4.55009E-014 56000 46250)" r="175"/>
   <circle class="fil0 str0" transform="matrix(2.27504E-014 -0.859008 0.859008 2.27504E-014 55250 46250)" r="175"/>
   <circle class="fil0 str0" transform="matrix(4.55009E-014 -1.71802 1.71802 4.55009E-014 54500 44750)" r="175"/>
   <circle class="fil0 str0" transform="matrix(2.27504E-014 -0.859008 0.859008 2.27504E-014 53750 44750)" r="175"/>
   <circle class="fil0 str0" transform="matrix(4.55009E-014 -1.71802 1.71802 4.55009E-014 53000 44750)" r="175"/>
   <circle class="fil0 str0" transform="matrix(2.27504E-014 -0.859008 0.859008 2.27504E-014 52250 44750)" r="175"/>
   <circle class="fil0 str0" transform="matrix(4.55009E-014 -1.71802 1.71802 4.55009E-014 51500 44750)" r="175"/>
   <circle class="fil0 str0" transform="matrix(2.27504E-014 -0.859008 0.859008 2.27504E-014 50750 44750)" r="175"/>
   <circle class="fil0 str0" transform="matrix(4.55009E-014 -1.71802 1.71802 4.55009E-014 50000 44750)" r="175"/>
   <circle class="fil0 str0" transform="matrix(2.27504E-014 -0.859008 0.859008 2.27504E-014 49250 44750)" r="175"/>
   <circle class="fil0 str0" transform="matrix(4.55009E-014 -1.71802 1.71802 4.55009E-014 48500 44750)" r="175"/>
   <circle class="fil0 str0" transform="matrix(2.27504E-014 -0.859008 0.859008 2.27504E-014 47750 44750)" r="175"/>
   <circle class="fil0 str0" transform="matrix(4.55009E-014 -1.71802 1.71802 4.55009E-014 47000 44750)" r="175"/>
   <circle class="fil0 str0" transform="matrix(2.27504E-014 -0.859008 0.859008 2.27504E-014 46250 44750)" r="175"/>
   <circle class="fil0 str0" transform="matrix(4.55009E-014 -1.71802 1.71802 4.55009E-014 45500 44750)" r="175"/>
   <circle class="fil0 str0" transform="matrix(2.27504E-014 -0.859008 0.859008 2.27504E-014 44750 44750)" r="175"/>
   <circle class="fil0 str0" transform="matrix(4.55009E-014 -1.71802 1.71802 4.55009E-014 44000 44750)" r="175"/>
   <circle class="fil0 str0" transform="matrix(2.27504E-014 -0.859008 0.859008 2.27504E-014 43250 44750)" r="175"/>
   <circle class="fil0 str0" transform="matrix(4.55009E-014 -1.71802 1.71802 4.55009E-014 42500 44750)" r="175"/>
   <circle class="fil0 str0" transform="matrix(2.27504E-014 -0.859008 0.859008 2.27504E-014 41750 44750)" r="175"/>
   <circle class="fil0 str0" transform="matrix(4.55009E-014 -1.71802 1.71802 4.55009E-014 41000 44750)" r="175"/>
   <circle class="fil0 str0" transform="matrix(2.27504E-014 -0.859008 0.859008 2.27504E-014 40250 44750)" r="175"/>
   <circle class="fil0 str0" transform="matrix(4.55009E-014 -1.71802 1.71802 4.55009E-014 39500 44750)" r="175"/>
   <circle class="fil0 str0" transform="matrix(2.27504E-014 -0.859008 0.859008 2.27504E-014 38750 44750)" r="175"/>
   <circle class="fil0 str0" transform="matrix(4.55009E-014 -1.71802 1.71802 4.55009E-014 38000 44750)" r="175"/>
   <circle class="fil0 str0" transform="matrix(2.27504E-014 -0.859008 0.859008 2.27504E-014 37250 44750)" r="175"/>
   <circle class="fil0 str0" transform="matrix(4.55009E-014 -1.71802 1.71802 4.55009E-014 36500 44750)" r="175"/>
   <circle class="fil0 str0" transform="matrix(2.27504E-014 -0.859008 0.859008 2.27504E-014 35750 44750)" r="175"/>
   <circle class="fil0 str0" transform="matrix(4.55009E-014 -1.71802 1.71802 4.55009E-014 35000 44750)" r="175"/>
   <circle class="fil0 str0" transform="matrix(2.27504E-014 -0.859008 0.859008 2.27504E-014 34250 44750)" r="175"/>
   <circle class="fil0 str0" transform="matrix(4.55009E-014 -1.71802 1.71802 4.55009E-014 33500 44750)" r="175"/>
   <circle class="fil0 str0" transform="matrix(2.27504E-014 -0.859008 0.859008 2.27504E-014 32750 44750)" r="175"/>
   <circle class="fil0 str0" transform="matrix(4.55009E-014 -1.71802 1.71802 4.55009E-014 32000 44750)" r="175"/>
   <circle class="fil0 str0" transform="matrix(2.27504E-014 -0.859008 0.859008 2.27504E-014 31250 44750)" r="175"/>
   <circle class="fil0 str0" transform="matrix(4.55009E-014 -1.71802 1.71802 4.55009E-014 30500 44750)" r="175"/>
   <circle class="fil0 str0" transform="matrix(2.27504E-014 -0.859008 0.859008 2.27504E-014 29750 44750)" r="175"/>
   <circle class="fil0 str0" transform="matrix(2.27504E-014 -0.859008 0.859008 2.27504E-014 70250 44750)" r="175"/>
   <circle class="fil0 str0" transform="matrix(4.55009E-014 -1.71802 1.71802 4.55009E-014 69500 44750)" r="175"/>
   <circle class="fil0 str0" transform="matrix(2.27504E-014 -0.859008 0.859008 2.27504E-014 68750 44750)" r="175"/>
   <circle class="fil0 str0" transform="matrix(4.55009E-014 -1.71802 1.71802 4.55009E-014 68000 44750)" r="175"/>
   <circle class="fil0 str0" transform="matrix(2.27504E-014 -0.859008 0.859008 2.27504E-014 67250 44750)" r="175"/>
   <circle class="fil0 str0" transform="matrix(4.55009E-014 -1.71802 1.71802 4.55009E-014 66500 44750)" r="175"/>
   <circle class="fil0 str0" transform="matrix(2.27504E-014 -0.859008 0.859008 2.27504E-014 65750 44750)" r="175"/>
   <circle class="fil0 str0" transform="matrix(4.55009E-014 -1.71802 1.71802 4.55009E-014 65000 44750)" r="175"/>
   <circle class="fil0 str0" transform="matrix(2.27504E-014 -0.859008 0.859008 2.27504E-014 64250 44750)" r="175"/>
   <circle class="fil0 str0" transform="matrix(4.55009E-014 -1.71802 1.71802 4.55009E-014 63500 44750)" r="175"/>
   <circle class="fil0 str0" transform="matrix(2.27504E-014 -0.859008 0.859008 2.27504E-014 62750 44750)" r="175"/>
   <circle class="fil0 str0" transform="matrix(4.55009E-014 -1.71802 1.71802 4.55009E-014 62000 44750)" r="175"/>
   <circle class="fil0 str0" transform="matrix(2.27504E-014 -0.859008 0.859008 2.27504E-014 61250 44750)" r="175"/>
   <circle class="fil0 str0" transform="matrix(4.55009E-014 -1.71802 1.71802 4.55009E-014 60500 44750)" r="175"/>
   <circle class="fil0 str0" transform="matrix(2.27504E-014 -0.859008 0.859008 2.27504E-014 59750 44750)" r="175"/>
   <circle class="fil0 str0" transform="matrix(4.55009E-014 -1.71802 1.71802 4.55009E-014 59000 44750)" r="175"/>
   <circle class="fil0 str0" transform="matrix(2.27504E-014 -0.859008 0.859008 2.27504E-014 58250 44750)" r="175"/>
   <circle class="fil0 str0" transform="matrix(4.55009E-014 -1.71802 1.71802 4.55009E-014 57500 44750)" r="175"/>
   <circle class="fil0 str0" transform="matrix(2.27504E-014 -0.859008 0.859008 2.27504E-014 56750 44750)" r="175"/>
   <circle class="fil0 str0" transform="matrix(4.55009E-014 -1.71802 1.71802 4.55009E-014 56000 44750)" r="175"/>
   <circle class="fil0 str0" transform="matrix(2.27504E-014 -0.859008 0.859008 2.27504E-014 55250 44750)" r="175"/>
   <circle class="fil0 str0" transform="matrix(2.27504E-014 -0.859008 0.859008 2.27504E-014 54500 45500)" r="175"/>
   <circle class="fil0 str0" transform="matrix(2.27504E-014 -0.859008 0.859008 2.27504E-014 53000 45500)" r="175"/>
   <circle class="fil0 str0" transform="matrix(2.27504E-014 -0.859008 0.859008 2.27504E-014 51500 45500)" r="175"/>
   <circle class="fil0 str0" transform="matrix(2.27504E-014 -0.859008 0.859008 2.27504E-014 50000 45500)" r="175"/>
   <circle class="fil0 str0" transform="matrix(2.27504E-014 -0.859008 0.859008 2.27504E-014 48500 45500)" r="175"/>
   <circle class="fil0 str0" transform="matrix(2.27504E-014 -0.859008 0.859008 2.27504E-014 47000 45500)" r="175"/>
   <circle class="fil0 str0" transform="matrix(2.27504E-014 -0.859008 0.859008 2.27504E-014 45500 45500)" r="175"/>
   <circle class="fil0 str0" transform="matrix(2.27504E-014 -0.859008 0.859008 2.27504E-014 44000 45500)" r="175"/>
   <circle class="fil0 str0" transform="matrix(2.27504E-014 -0.859008 0.859008 2.27504E-014 42500 45500)" r="175"/>
   <circle class="fil0 str0" transform="matrix(2.27504E-014 -0.859008 0.859008 2.27504E-014 41000 45500)" r="175"/>
   <circle class="fil0 str0" transform="matrix(2.27504E-014 -0.859008 0.859008 2.27504E-014 39500 45500)" r="175"/>
   <circle class="fil0 str0" transform="matrix(2.27504E-014 -0.859008 0.859008 2.27504E-014 38000 45500)" r="175"/>
   <circle class="fil0 str0" transform="matrix(2.27504E-014 -0.859008 0.859008 2.27504E-014 36500 45500)" r="175"/>
   <circle class="fil0 str0" transform="matrix(2.27504E-014 -0.859008 0.859008 2.27504E-014 35000 45500)" r="175"/>
   <circle class="fil0 str0" transform="matrix(2.27504E-014 -0.859008 0.859008 2.27504E-014 33500 45500)" r="175"/>
   <circle class="fil0 str0" transform="matrix(2.27504E-014 -0.859008 0.859008 2.27504E-014 32000 45500)" r="175"/>
   <circle class="fil0 str0" transform="matrix(2.27504E-014 -0.859008 0.859008 2.27504E-014 30500 45500)" r="175"/>
   <circle class="fil0 str0" transform="matrix(2.27504E-014 -0.859008 0.859008 2.27504E-014 69500 45500)" r="175"/>
   <circle class="fil0 str0" transform="matrix(2.27504E-014 -0.859008 0.859008 2.27504E-014 68000 45500)" r="175"/>
   <circle class="fil0 str0" transform="matrix(2.27504E-014 -0.859008 0.859008 2.27504E-014 66500 45500)" r="175"/>
   <circle class="fil0 str0" transform="matrix(2.27504E-014 -0.859008 0.859008 2.27504E-014 65000 45500)" r="175"/>
   <circle class="fil0 str0" transform="matrix(2.27504E-014 -0.859008 0.859008 2.27504E-014 63500 45500)" r="175"/>
   <circle class="fil0 str0" transform="matrix(2.27504E-014 -0.859008 0.859008 2.27504E-014 62000 45500)" r="175"/>
   <circle class="fil0 str0" transform="matrix(2.27504E-014 -0.859008 0.859008 2.27504E-014 60500 45500)" r="175"/>
   <circle class="fil0 str0" transform="matrix(2.27504E-014 -0.859008 0.859008 2.27504E-014 59000 45500)" r="175"/>
   <circle class="fil0 str0" transform="matrix(2.27504E-014 -0.859008 0.859008 2.27504E-014 57500 45500)" r="175"/>
   <circle class="fil0 str0" transform="matrix(2.27504E-014 -0.859008 0.859008 2.27504E-014 56000 45500)" r="175"/>
   <circle class="fil0 str0" cx="42500" cy="62000" r="150"/>
   <circle class="fil0 str0" cx="42500" cy="61250" r="300"/>
   <circle class="fil0 str0" cx="42500" cy="60500" r="150"/>
   <circle class="fil0 str0" cx="42500" cy="59750" r="300"/>
   <circle class="fil0 str0" cx="42500" cy="59000" r="150"/>
   <circle class="fil0 str0" cx="42500" cy="58250" r="300"/>
   <circle class="fil0 str0" cx="42500" cy="57500" r="150"/>
   <circle class="fil0 str0" cx="42500" cy="56750" r="300"/>
   <circle class="fil0 str0" cx="42500" cy="56000" r="150"/>
   <circle class="fil0 str0" cx="42500" cy="55250" r="300"/>
   <circle class="fil0 str0" cx="42500" cy="54500" r="150"/>
   <circle class="fil0 str0" cx="42500" cy="53750" r="300"/>
   <circle class="fil0 str0" cx="42500" cy="53000" r="150"/>
   <circle class="fil0 str0" cx="42500" cy="52250" r="300"/>
   <circle class="fil0 str0" cx="42500" cy="51500" r="150"/>
   <circle class="fil0 str0" cx="42500" cy="50750" r="300"/>
   <circle class="fil0 str0" cx="42500" cy="50000" r="150"/>
   <circle class="fil0 str0" cx="42500" cy="49250" r="300"/>
   <circle class="fil0 str0" cx="42500" cy="48500" r="150"/>
   <circle class="fil0 str0" cx="42500" cy="47750" r="300"/>
   <circle class="fil0 str0" cx="42500" cy="47000" r="150"/>
   <circle class="fil0 str0" cx="42500" cy="44000" r="150"/>
   <circle class="fil0 str0" cx="42500" cy="43250" r="300"/>
   <circle class="fil0 str0" cx="42500" cy="42500" r="150"/>
   <circle class="fil0 str0" cx="42500" cy="41750" r="300"/>
   <circle class="fil0 str0" cx="42500" cy="41000" r="150"/>
   <circle class="fil0 str0" cx="42500" cy="40250" r="300"/>
   <circle class="fil0 str0" cx="42500" cy="39500" r="150"/>
   <circle class="fil0 str0" cx="42500" cy="38750" r="300"/>
   <circle class="fil0 str0" cx="42500" cy="38000" r="150"/>
   <circle class="fil0 str0" cx="42500" cy="37250" r="300"/>
   <circle class="fil0 str0" cx="44000" cy="62000" r="150"/>
   <circle class="fil0 str0" cx="44000" cy="61250" r="300"/>
   <circle class="fil0 str0" cx="44000" cy="60500" r="150"/>
   <circle class="fil0 str0" cx="44000" cy="59750" r="300"/>
   <circle class="fil0 str0" cx="44000" cy="59000" r="150"/>
   <circle class="fil0 str0" cx="44000" cy="58250" r="300"/>
   <circle class="fil0 str0" cx="44000" cy="57500" r="150"/>
   <circle class="fil0 str0" cx="44000" cy="56750" r="300"/>
   <circle class="fil0 str0" cx="44000" cy="56000" r="150"/>
   <circle class="fil0 str0" cx="44000" cy="55250" r="300"/>
   <circle class="fil0 str0" cx="44000" cy="54500" r="150"/>
   <circle class="fil0 str0" cx="44000" cy="53750" r="300"/>
   <circle class="fil0 str0" cx="44000" cy="53000" r="150"/>
   <circle class="fil0 str0" cx="44000" cy="52250" r="300"/>
   <circle class="fil0 str0" cx="44000" cy="51500" r="150"/>
   <circle class="fil0 str0" cx="44000" cy="50750" r="300"/>
   <circle class="fil0 str0" cx="44000" cy="50000" r="150"/>
   <circle class="fil0 str0" cx="44000" cy="49250" r="300"/>
   <circle class="fil0 str0" cx="44000" cy="48500" r="150"/>
   <circle class="fil0 str0" cx="44000" cy="47750" r="300"/>
   <circle class="fil0 str0" cx="44000" cy="47000" r="150"/>
   <circle class="fil0 str0" cx="44000" cy="44000" r="150"/>
   <circle class="fil0 str0" cx="44000" cy="43250" r="300"/>
   <circle class="fil0 str0" cx="44000" cy="42500" r="150"/>
   <circle class="fil0 str0" cx="44000" cy="41750" r="300"/>
   <circle class="fil0 str0" cx="44000" cy="41000" r="150"/>
   <circle class="fil0 str0" cx="44000" cy="40250" r="300"/>
   <circle class="fil0 str0" cx="44000" cy="39500" r="150"/>
   <circle class="fil0 str0" cx="44000" cy="38750" r="300"/>
   <circle class="fil0 str0" cx="44000" cy="38000" r="150"/>
   <circle class="fil0 str0" cx="44000" cy="37250" r="300"/>
   <circle class="fil0 str0" cx="57500" cy="62000" r="150"/>
   <circle class="fil0 str0" cx="57500" cy="61250" r="300"/>
   <circle class="fil0 str0" cx="57500" cy="60500" r="150"/>
   <circle class="fil0 str0" cx="57500" cy="59750" r="300"/>
   <circle class="fil0 str0" cx="57500" cy="59000" r="150"/>
   <circle class="fil0 str0" cx="57500" cy="58250" r="300"/>
   <circle class="fil0 str0" cx="57500" cy="57500" r="150"/>
   <circle class="fil0 str0" cx="57500" cy="56750" r="300"/>
   <circle class="fil0 str0" cx="57500" cy="56000" r="150"/>
   <circle class="fil0 str0" cx="57500" cy="55250" r="300"/>
   <circle class="fil0 str0" cx="57500" cy="54500" r="150"/>
   <circle class="fil0 str0" cx="57500" cy="53750" r="300"/>
   <circle class="fil0 str0" cx="57500" cy="53000" r="150"/>
   <circle class="fil0 str0" cx="57500" cy="52250" r="300"/>
   <circle class="fil0 str0" cx="57500" cy="51500" r="150"/>
   <circle class="fil0 str0" cx="57500" cy="50750" r="300"/>
   <circle class="fil0 str0" cx="57500" cy="50000" r="150"/>
   <circle class="fil0 str0" cx="57500" cy="49250" r="300"/>
   <circle class="fil0 str0" cx="57500" cy="48500" r="150"/>
   <circle class="fil0 str0" cx="57500" cy="47750" r="300"/>
   <circle class="fil0 str0" cx="57500" cy="47000" r="150"/>
   <circle class="fil0 str0" cx="57500" cy="44000" r="150"/>
   <circle class="fil0 str0" cx="57500" cy="43250" r="300"/>
   <circle class="fil0 str0" cx="57500" cy="42500" r="150"/>
   <circle class="fil0 str0" cx="57500" cy="41750" r="300"/>
   <circle class="fil0 str0" cx="57500" cy="41000" r="150"/>
   <circle class="fil0 str0" cx="57500" cy="40250" r="300"/>
   <circle class="fil0 str0" cx="57500" cy="39500" r="150"/>
   <circle class="fil0 str0" cx="57500" cy="38750" r="300"/>
   <circle class="fil0 str0" cx="57500" cy="38000" r="150"/>
   <circle class="fil0 str0" cx="57500" cy="37250" r="300"/>
   <circle class="fil0 str0" cx="56000" cy="62000" r="150"/>
   <circle class="fil0 str0" cx="56000" cy="61250" r="300"/>
   <circle class="fil0 str0" cx="56000" cy="60500" r="150"/>
   <circle class="fil0 str0" cx="56000" cy="59750" r="300"/>
   <circle class="fil0 str0" cx="56000" cy="59000" r="150"/>
   <circle class="fil0 str0" cx="56000" cy="58250" r="300"/>
   <circle class="fil0 str0" cx="56000" cy="57500" r="150"/>
   <circle class="fil0 str0" cx="56000" cy="56750" r="300"/>
   <circle class="fil0 str0" cx="56000" cy="56000" r="150"/>
   <circle class="fil0 str0" cx="56000" cy="55250" r="300"/>
   <circle class="fil0 str0" cx="56000" cy="54500" r="150"/>
   <circle class="fil0 str0" cx="56000" cy="53750" r="300"/>
   <circle class="fil0 str0" cx="56000" cy="53000" r="150"/>
   <circle class="fil0 str0" cx="56000" cy="52250" r="300"/>
   <circle class="fil0 str0" cx="56000" cy="51500" r="150"/>
   <circle class="fil0 str0" cx="56000" cy="50750" r="300"/>
   <circle class="fil0 str0" cx="56000" cy="50000" r="150"/>
   <circle class="fil0 str0" cx="56000" cy="49250" r="300"/>
   <circle class="fil0 str0" cx="56000" cy="48500" r="150"/>
   <circle class="fil0 str0" cx="56000" cy="47750" r="300"/>
   <circle class="fil0 str0" cx="56000" cy="47000" r="150"/>
   <circle class="fil0 str0" cx="56000" cy="44000" r="150"/>
   <circle class="fil0 str0" cx="56000" cy="43250" r="300"/>
   <circle class="fil0 str0" cx="56000" cy="42500" r="150"/>
   <circle class="fil0 str0" cx="56000" cy="41750" r="300"/>
   <circle class="fil0 str0" cx="56000" cy="41000" r="150"/>
   <circle class="fil0 str0" cx="56000" cy="40250" r="300"/>
   <circle class="fil0 str0" cx="56000" cy="39500" r="150"/>
   <circle class="fil0 str0" cx="56000" cy="38750" r="300"/>
   <circle class="fil0 str0" cx="56000" cy="38000" r="150"/>
   <circle class="fil0 str0" cx="56000" cy="37250" r="300"/>
   <circle class="fil0 str0" cx="43250" cy="41750" r="150"/>
   <circle class="fil0 str0" cx="43250" cy="43250" r="150"/>
   <circle class="fil0 str0" cx="43250" cy="47750" r="150"/>
   <circle class="fil0 str0" cx="43250" cy="49250" r="150"/>
   <circle class="fil0 str0" cx="43250" cy="50750" r="150"/>
   <circle class="fil0 str0" cx="43250" cy="52250" r="150"/>
   <circle class="fil0 str0" cx="43250" cy="53750" r="150"/>
   <circle class="fil0 str0" cx="43250" cy="55250" r="150"/>
   <circle class="fil0 str0" cx="43250" cy="56750" r="150"/>
   <circle class="fil0 str0" cx="43250" cy="58250" r="150"/>
   <circle class="fil0 str0" cx="43250" cy="59750" r="150"/>
   <circle class="fil0 str0" cx="43250" cy="61250" r="150"/>
   <circle class="fil0 str0" cx="43250" cy="37250" r="150"/>
   <circle class="fil0 str0" cx="43250" cy="38750" r="150"/>
   <circle class="fil0 str0" cx="43250" cy="40250" r="150"/>
   <circle class="fil0 str0" cx="56750" cy="41750" r="150"/>
   <circle class="fil0 str0" cx="56750" cy="43250" r="150"/>
   <circle class="fil0 str0" cx="56750" cy="47750" r="150"/>
   <circle class="fil0 str0" cx="56750" cy="49250" r="150"/>
   <circle class="fil0 str0" cx="56750" cy="50750" r="150"/>
   <circle class="fil0 str0" cx="56750" cy="52250" r="150"/>
   <circle class="fil0 str0" cx="56750" cy="53750" r="150"/>
   <circle class="fil0 str0" cx="56750" cy="55250" r="150"/>
   <circle class="fil0 str0" cx="56750" cy="56750" r="150"/>
   <circle class="fil0 str0" cx="56750" cy="58250" r="150"/>
   <circle class="fil0 str0" cx="56750" cy="59750" r="150"/>
   <circle class="fil0 str0" cx="56750" cy="61250" r="150"/>
   <circle class="fil0 str0" cx="56750" cy="37250" r="150"/>
   <circle class="fil0 str0" cx="56750" cy="38750" r="150"/>
   <circle class="fil0 str0" cx="56750" cy="40250" r="150"/>
   <circle class="fil0 str0" cx="69500" cy="44000" r="150"/>
   <circle class="fil0 str0" cx="69500" cy="43250" r="300"/>
   <circle class="fil0 str0" cx="69500" cy="42500" r="150"/>
   <circle class="fil0 str0" cx="69500" cy="41750" r="300"/>
   <circle class="fil0 str0" cx="69500" cy="41000" r="150"/>
   <circle class="fil0 str0" cx="69500" cy="40250" r="300"/>
   <circle class="fil0 str0" cx="69500" cy="39500" r="150"/>
   <circle class="fil0 str0" cx="69500" cy="38750" r="300"/>
   <circle class="fil0 str0" cx="69500" cy="38000" r="150"/>
   <circle class="fil0 str0" cx="69500" cy="37250" r="300"/>
   <circle class="fil0 str0" cx="69500" cy="62000" r="150"/>
   <circle class="fil0 str0" cx="69500" cy="61250" r="300"/>
   <circle class="fil0 str0" cx="69500" cy="60500" r="150"/>
   <circle class="fil0 str0" cx="69500" cy="59750" r="300"/>
   <circle class="fil0 str0" cx="69500" cy="59000" r="150"/>
   <circle class="fil0 str0" cx="69500" cy="58250" r="300"/>
   <circle class="fil0 str0" cx="69500" cy="57500" r="150"/>
   <circle class="fil0 str0" cx="69500" cy="56750" r="300"/>
   <circle class="fil0 str0" cx="69500" cy="56000" r="150"/>
   <circle class="fil0 str0" cx="69500" cy="55250" r="300"/>
   <circle class="fil0 str0" cx="69500" cy="54500" r="150"/>
   <circle class="fil0 str0" cx="69500" cy="53750" r="300"/>
   <circle class="fil0 str0" cx="69500" cy="53000" r="150"/>
   <circle class="fil0 str0" cx="69500" cy="52250" r="300"/>
   <circle class="fil0 str0" cx="69500" cy="51500" r="150"/>
   <circle class="fil0 str0" cx="69500" cy="50750" r="300"/>
   <circle class="fil0 str0" cx="69500" cy="50000" r="150"/>
   <circle class="fil0 str0" cx="69500" cy="49250" r="300"/>
   <circle class="fil0 str0" cx="69500" cy="48500" r="150"/>
   <circle class="fil0 str0" cx="69500" cy="47750" r="300"/>
   <circle class="fil0 str0" cx="69500" cy="47000" r="150"/>
   <circle class="fil0 str0" cx="30500" cy="62000" r="150"/>
   <circle class="fil0 str0" cx="30500" cy="61250" r="300"/>
   <circle class="fil0 str0" cx="30500" cy="60500" r="150"/>
   <circle class="fil0 str0" cx="30500" cy="59750" r="300"/>
   <circle class="fil0 str0" cx="30500" cy="59000" r="150"/>
   <circle class="fil0 str0" cx="30500" cy="58250" r="300"/>
   <circle class="fil0 str0" cx="30500" cy="57500" r="150"/>
   <circle class="fil0 str0" cx="30500" cy="56750" r="300"/>
   <circle class="fil0 str0" cx="30500" cy="56000" r="150"/>
   <circle class="fil0 str0" cx="30500" cy="55250" r="300"/>
   <circle class="fil0 str0" cx="30500" cy="54500" r="150"/>
   <circle class="fil0 str0" cx="30500" cy="53750" r="300"/>
   <circle class="fil0 str0" cx="30500" cy="53000" r="150"/>
   <circle class="fil0 str0" cx="30500" cy="52250" r="300"/>
   <circle class="fil0 str0" cx="30500" cy="51500" r="150"/>
   <circle class="fil0 str0" cx="30500" cy="50750" r="300"/>
   <circle class="fil0 str0" cx="30500" cy="50000" r="150"/>
   <circle class="fil0 str0" cx="30500" cy="49250" r="300"/>
   <circle class="fil0 str0" cx="30500" cy="48500" r="150"/>
   <circle class="fil0 str0" cx="30500" cy="47750" r="300"/>
   <circle class="fil0 str0" cx="30500" cy="47000" r="150"/>
   <circle class="fil0 str0" cx="30500" cy="44000" r="150"/>
   <circle class="fil0 str0" cx="30500" cy="43250" r="300"/>
   <circle class="fil0 str0" cx="30500" cy="42500" r="150"/>
   <circle class="fil0 str0" cx="30500" cy="41750" r="300"/>
   <circle class="fil0 str0" cx="30500" cy="41000" r="150"/>
   <circle class="fil0 str0" cx="30500" cy="40250" r="300"/>
   <circle class="fil0 str0" cx="30500" cy="39500" r="150"/>
   <circle class="fil0 str0" cx="30500" cy="38750" r="300"/>
   <circle class="fil0 str0" cx="30500" cy="38000" r="150"/>
   <circle class="fil0 str0" cx="30500" cy="37250" r="300"/>
   <circle class="fil0 str0" cx="29750" cy="41750" r="150"/>
   <circle class="fil0 str0" cx="29750" cy="43250" r="150"/>
   <circle class="fil0 str0" cx="29750" cy="47750" r="150"/>
   <circle class="fil0 str0" cx="29750" cy="49250" r="150"/>
   <circle class="fil0 str0" cx="29750" cy="50750" r="150"/>
   <circle class="fil0 str0" cx="29750" cy="52250" r="150"/>
   <circle class="fil0 str0" cx="29750" cy="53750" r="150"/>
   <circle class="fil0 str0" cx="29750" cy="55250" r="150"/>
   <circle class="fil0 str0" cx="29750" cy="56750" r="150"/>
   <circle class="fil0 str0" cx="29750" cy="58250" r="150"/>
   <circle class="fil0 str0" cx="29750" cy="59750" r="150"/>
   <circle class="fil0 str0" cx="29750" cy="61250" r="150"/>
   <circle class="fil0 str0" cx="29750" cy="37250" r="150"/>
   <circle class="fil0 str0" cx="29750" cy="38750" r="150"/>
   <circle class="fil0 str0" cx="29750" cy="40250" r="150"/>
   <circle class="fil0 str0" cx="70250" cy="41750" r="150"/>
   <circle class="fil0 str0" cx="70250" cy="43250" r="150"/>
   <circle class="fil0 str0" cx="70250" cy="47750" r="150"/>
   <circle class="fil0 str0" cx="70250" cy="49250" r="150"/>
   <circle class="fil0 str0" cx="70250" cy="50750" r="150"/>
   <circle class="fil0 str0" cx="70250" cy="52250" r="150"/>
   <circle class="fil0 str0" cx="70250" cy="53750" r="150"/>
   <circle class="fil0 str0" cx="70250" cy="55250" r="150"/>
   <circle class="fil0 str0" cx="70250" cy="56750" r="150"/>
   <circle class="fil0 str0" cx="70250" cy="58250" r="150"/>
   <circle class="fil0 str0" cx="70250" cy="59750" r="150"/>
   <circle class="fil0 str0" cx="70250" cy="61250" r="150"/>
   <circle class="fil0 str0" cx="70250" cy="37250" r="150"/>
   <circle class="fil0 str0" cx="70250" cy="38750" r="150"/>
   <circle class="fil0 str0" cx="70250" cy="40250" r="150"/>
  </g>
 </g>
</svg>
