<?xml version="1.0" encoding="UTF-8"?>
<!DOCTYPE svg PUBLIC "-//W3C//DTD SVG 1.1//EN" "http://www.w3.org/Graphics/SVG/1.1/DTD/svg11.dtd">
<!-- Creator: CorelDRAW X6 -->
<svg xmlns="http://www.w3.org/2000/svg" xml:space="preserve" width="1000mm" height="1000mm" version="1.1" style="shape-rendering:geometricPrecision; text-rendering:geometricPrecision; image-rendering:optimizeQuality; fill-rule:evenodd; clip-rule:evenodd"
viewBox="0 0 100000 100000"
 xmlns:xlink="http://www.w3.org/1999/xlink">
 <defs>
  <style type="text/css">
   <![CDATA[
    .str0 {stroke:black;stroke-width:52.92;stroke-linecap:round;stroke-linejoin:round}
    .str1 {stroke:blue;stroke-width:52.92;stroke-linecap:round;stroke-linejoin:round}
    .str2 {stroke:aqua;stroke-width:52.92;stroke-linecap:round;stroke-linejoin:round}
    .fil0 {fill:none}
   ]]>
  </style>
 </defs>
 <g id="Layer_x0020_1">
  <metadata id="CorelCorpID_0Corel-Layer"/>
  <path class="fil0 str0" d="M28300 62975l0 -11500 2400 0c276,0 500,-224 500,-500l0 -9400c0,-276 -224,-500 -500,-500l-2400 0 0 -4550 850 0c0,1574 1276,2850 2850,2850 1574,0 2850,-1276 2850,-2850l3300 0c0,1574 1276,2850 2850,2850 1574,0 2850,-1276 2850,-2850l3300 0c0,1574 1276,2850 2850,2850 1574,0 2850,-1276 2850,-2850l3300 0c0,1574 1276,2850 2850,2850 1574,0 2850,-1276 2850,-2850l3300 0c0,1574 1276,2850 2850,2850 1574,0 2850,-1276 2850,-2850l850 0 0 4550 -2400 0c-276,0 -500,224 -500,500l0 9400c0,276 224,500 500,500l2400 0 0 11500c0,276 -224,500 -500,500l-42400 0c-276,0 -500,-224 -500,-500z"/>
  <g id="_881482512">
   <g>
    <circle class="fil0 str0" cx="50000" cy="59775" r="2850"/>
    <circle class="fil0 str0" cx="41000" cy="59775" r="2850"/>
    <circle class="fil0 str0" cx="32000" cy="59775" r="2850"/>
    <circle class="fil0 str0" cx="59000" cy="59775" r="2850"/>
    <circle class="fil0 str0" cx="68000" cy="59775" r="2850"/>
    <path class="fil0 str1" d="M29808 56982c1393,-1096 3417,-1002 4702,283 1204,1204 1362,3059 474,4434l339 339 -1061 1061 -339 -339c-1375,888 -3229,730 -4434,-474 -1285,-1285 -1379,-3309 -283,-4702l-442 -442 601 -601 442 442z"/>
    <path class="fil0 str1" d="M38808 56982c1393,-1096 3417,-1002 4702,283 1204,1204 1362,3059 474,4434l339 339 -1061 1061 -339 -339c-1375,888 -3229,730 -4434,-474 -1285,-1285 -1379,-3309 -283,-4702l-442 -442 601 -601 442 442z"/>
    <path class="fil0 str1" d="M47808 56982c1393,-1096 3417,-1002 4702,283 1204,1204 1362,3059 474,4434l339 339 -1061 1061 -339 -339c-1375,888 -3229,730 -4434,-474 -1285,-1285 -1379,-3309 -283,-4702l-442 -442 601 -601 442 442z"/>
    <path class="fil0 str1" d="M56808 56982c1393,-1096 3417,-1002 4702,283 1204,1204 1362,3059 474,4434l339 339 -1061 1061 -339 -339c-1375,888 -3229,730 -4434,-474 -1285,-1285 -1379,-3309 -283,-4702l-442 -442 601 -601 442 442z"/>
    <path class="fil0 str1" d="M65808 56982c1393,-1096 3417,-1002 4702,283 1204,1204 1362,3059 474,4434l339 339 -1061 1061 -339 -339c-1375,888 -3229,730 -4434,-474 -1285,-1285 -1379,-3309 -283,-4702l-442 -442 601 -601 442 442z"/>
   </g>
   <path class="fil0 str2" d="M28300 62975l0 -6400c0,-276 224,-500 500,-500l42400 0c276,0 500,224 500,500l0 6400c0,276 -224,500 -500,500l-42400 0c-276,0 -500,-224 -500,-500z"/>
   <circle class="fil0 str0" cx="63500" cy="62775" r="300"/>
   <circle class="fil0 str0" cx="62750" cy="62775" r="150"/>
   <circle class="fil0 str0" cx="64250" cy="62775" r="150"/>
   <circle class="fil0 str0" cx="63500" cy="62025" r="150"/>
   <circle class="fil0 str0" cx="63500" cy="61275" r="300"/>
   <circle class="fil0 str0" cx="62750" cy="61275" r="150"/>
   <circle class="fil0 str0" cx="64250" cy="61275" r="150"/>
   <circle class="fil0 str0" cx="63500" cy="60525" r="150"/>
   <circle class="fil0 str0" cx="63500" cy="59775" r="300"/>
   <circle class="fil0 str0" cx="62750" cy="59775" r="150"/>
   <circle class="fil0 str0" cx="64250" cy="59775" r="150"/>
   <circle class="fil0 str0" cx="63500" cy="59025" r="150"/>
   <circle class="fil0 str0" cx="63500" cy="58275" r="300"/>
   <circle class="fil0 str0" cx="62750" cy="58275" r="150"/>
   <circle class="fil0 str0" cx="64250" cy="58275" r="150"/>
   <circle class="fil0 str0" cx="63500" cy="57525" r="150"/>
   <circle class="fil0 str0" cx="29000" cy="56775" r="300"/>
   <circle class="fil0 str0" cx="29750" cy="56775" r="150"/>
   <circle class="fil0 str0" cx="35000" cy="56775" r="300"/>
   <circle class="fil0 str0" cx="34250" cy="56775" r="150"/>
   <circle class="fil0 str0" cx="36500" cy="56775" r="300"/>
   <circle class="fil0 str0" cx="38000" cy="56775" r="300"/>
   <circle class="fil0 str0" cx="35750" cy="56775" r="150"/>
   <circle class="fil0 str0" cx="37250" cy="56775" r="150"/>
   <circle class="fil0 str0" cx="38750" cy="56775" r="150"/>
   <circle class="fil0 str0" cx="44000" cy="56775" r="300"/>
   <circle class="fil0 str0" cx="43250" cy="56775" r="150"/>
   <circle class="fil0 str0" cx="45500" cy="56775" r="300"/>
   <circle class="fil0 str0" cx="47000" cy="56775" r="300"/>
   <circle class="fil0 str0" cx="44750" cy="56775" r="150"/>
   <circle class="fil0 str0" cx="46250" cy="56775" r="150"/>
   <circle class="fil0 str0" cx="48500" cy="56775" r="300"/>
   <circle class="fil0 str0" cx="47750" cy="56775" r="150"/>
   <circle class="fil0 str0" cx="51500" cy="56775" r="300"/>
   <circle class="fil0 str0" cx="53000" cy="56775" r="300"/>
   <circle class="fil0 str0" cx="52250" cy="56775" r="150"/>
   <circle class="fil0 str0" cx="54500" cy="56775" r="300"/>
   <circle class="fil0 str0" cx="56000" cy="56775" r="300"/>
   <circle class="fil0 str0" cx="53750" cy="56775" r="150"/>
   <circle class="fil0 str0" cx="55250" cy="56775" r="150"/>
   <circle class="fil0 str0" cx="56750" cy="56775" r="150"/>
   <circle class="fil0 str0" cx="62000" cy="56775" r="300"/>
   <circle class="fil0 str0" cx="61250" cy="56775" r="150"/>
   <circle class="fil0 str0" cx="63500" cy="56775" r="300"/>
   <circle class="fil0 str0" cx="65000" cy="56775" r="300"/>
   <circle class="fil0 str0" cx="62750" cy="56775" r="150"/>
   <circle class="fil0 str0" cx="64250" cy="56775" r="150"/>
   <circle class="fil0 str0" cx="65750" cy="56775" r="150"/>
   <circle class="fil0 str0" cx="71000" cy="56775" r="300"/>
   <circle class="fil0 str0" cx="70250" cy="56775" r="150"/>
   <circle class="fil0 str0" cx="62000" cy="62775" r="300"/>
   <circle class="fil0 str0" cx="65000" cy="62775" r="300"/>
   <circle class="fil0 str0" cx="71000" cy="62775" r="300"/>
   <circle class="fil0 str0" cx="70250" cy="62775" r="150"/>
   <circle class="fil0 str0" cx="54500" cy="62775" r="300"/>
   <circle class="fil0 str0" cx="53750" cy="62775" r="150"/>
   <circle class="fil0 str0" cx="55250" cy="62775" r="150"/>
   <circle class="fil0 str0" cx="54500" cy="62025" r="150"/>
   <circle class="fil0 str0" cx="54500" cy="61275" r="300"/>
   <circle class="fil0 str0" cx="53750" cy="61275" r="150"/>
   <circle class="fil0 str0" cx="55250" cy="61275" r="150"/>
   <circle class="fil0 str0" cx="54500" cy="60525" r="150"/>
   <circle class="fil0 str0" cx="54500" cy="59775" r="300"/>
   <circle class="fil0 str0" cx="53750" cy="59775" r="150"/>
   <circle class="fil0 str0" cx="55250" cy="59775" r="150"/>
   <circle class="fil0 str0" cx="54500" cy="59025" r="150"/>
   <circle class="fil0 str0" cx="54500" cy="58275" r="300"/>
   <circle class="fil0 str0" cx="53750" cy="58275" r="150"/>
   <circle class="fil0 str0" cx="55250" cy="58275" r="150"/>
   <circle class="fil0 str0" cx="54500" cy="57525" r="150"/>
   <circle class="fil0 str0" cx="53000" cy="62775" r="300"/>
   <circle class="fil0 str0" cx="56000" cy="62775" r="300"/>
   <circle class="fil0 str0" cx="45500" cy="62775" r="300"/>
   <circle class="fil0 str0" cx="44750" cy="62775" r="150"/>
   <circle class="fil0 str0" cx="46250" cy="62775" r="150"/>
   <circle class="fil0 str0" cx="45500" cy="62025" r="150"/>
   <circle class="fil0 str0" cx="45500" cy="61275" r="300"/>
   <circle class="fil0 str0" cx="44750" cy="61275" r="150"/>
   <circle class="fil0 str0" cx="46250" cy="61275" r="150"/>
   <circle class="fil0 str0" cx="45500" cy="60525" r="150"/>
   <circle class="fil0 str0" cx="45500" cy="59775" r="300"/>
   <circle class="fil0 str0" cx="44750" cy="59775" r="150"/>
   <circle class="fil0 str0" cx="46250" cy="59775" r="150"/>
   <circle class="fil0 str0" cx="45500" cy="59025" r="150"/>
   <circle class="fil0 str0" cx="45500" cy="58275" r="300"/>
   <circle class="fil0 str0" cx="44750" cy="58275" r="150"/>
   <circle class="fil0 str0" cx="46250" cy="58275" r="150"/>
   <circle class="fil0 str0" cx="45500" cy="57525" r="150"/>
   <circle class="fil0 str0" cx="44000" cy="62775" r="300"/>
   <circle class="fil0 str0" cx="47000" cy="62775" r="300"/>
   <circle class="fil0 str0" cx="36500" cy="62775" r="300"/>
   <circle class="fil0 str0" cx="35750" cy="62775" r="150"/>
   <circle class="fil0 str0" cx="37250" cy="62775" r="150"/>
   <circle class="fil0 str0" cx="36500" cy="62025" r="150"/>
   <circle class="fil0 str0" cx="36500" cy="61275" r="300"/>
   <circle class="fil0 str0" cx="35750" cy="61275" r="150"/>
   <circle class="fil0 str0" cx="37250" cy="61275" r="150"/>
   <circle class="fil0 str0" cx="36500" cy="60525" r="150"/>
   <circle class="fil0 str0" cx="36500" cy="59775" r="300"/>
   <circle class="fil0 str0" cx="35750" cy="59775" r="150"/>
   <circle class="fil0 str0" cx="37250" cy="59775" r="150"/>
   <circle class="fil0 str0" cx="36500" cy="59025" r="150"/>
   <circle class="fil0 str0" cx="36500" cy="58275" r="300"/>
   <circle class="fil0 str0" cx="35750" cy="58275" r="150"/>
   <circle class="fil0 str0" cx="37250" cy="58275" r="150"/>
   <circle class="fil0 str0" cx="36500" cy="57525" r="150"/>
   <circle class="fil0 str0" cx="35000" cy="62775" r="300"/>
   <circle class="fil0 str0" cx="38000" cy="62775" r="300"/>
   <circle class="fil0 str0" cx="29750" cy="62775" r="150"/>
   <circle class="fil0 str0" cx="29000" cy="62775" r="300"/>
   <circle class="fil0 str0" cx="71000" cy="58275" r="300"/>
   <circle class="fil0 str0" cx="71000" cy="59775" r="300"/>
   <circle class="fil0 str0" cx="71000" cy="61275" r="300"/>
   <circle class="fil0 str0" cx="29000" cy="58275" r="300"/>
   <circle class="fil0 str0" cx="29000" cy="59775" r="300"/>
   <circle class="fil0 str0" cx="29000" cy="61275" r="300"/>
  </g>
  <g id="_881478864">
   <circle class="fil0 str0" cx="50000" cy="52275" r="2850"/>
   <circle class="fil0 str0" cx="41000" cy="52275" r="2850"/>
   <circle class="fil0 str0" cx="32000" cy="52275" r="2850"/>
   <circle class="fil0 str0" cx="59000" cy="52275" r="2850"/>
   <circle class="fil0 str0" cx="68000" cy="52275" r="2850"/>
   <path class="fil0 str1" d="M29808 49482c1393,-1096 3417,-1002 4702,283 1204,1204 1362,3059 474,4434l339 339 -1061 1061 -339 -339c-1375,888 -3229,730 -4434,-474 -1285,-1285 -1379,-3309 -283,-4702l-442 -442 601 -601 442 442z"/>
   <path class="fil0 str1" d="M38808 49482c1393,-1096 3417,-1002 4702,283 1204,1204 1362,3059 474,4434l339 339 -1061 1061 -339 -339c-1375,888 -3229,730 -4434,-474 -1285,-1285 -1379,-3309 -283,-4702l-442 -442 601 -601 442 442z"/>
   <path class="fil0 str1" d="M47808 49482c1393,-1096 3417,-1002 4702,283 1204,1204 1362,3059 474,4434l339 339 -1061 1061 -339 -339c-1375,888 -3229,730 -4434,-474 -1285,-1285 -1379,-3309 -283,-4702l-442 -442 601 -601 442 442z"/>
   <path class="fil0 str1" d="M56808 49482c1393,-1096 3417,-1002 4702,283 1204,1204 1362,3059 474,4434l339 339 -1061 1061 -339 -339c-1375,888 -3229,730 -4434,-474 -1285,-1285 -1379,-3309 -283,-4702l-442 -442 601 -601 442 442z"/>
   <path class="fil0 str1" d="M65808 49482c1393,-1096 3417,-1002 4702,283 1204,1204 1362,3059 474,4434l339 339 -1061 1061 -339 -339c-1375,888 -3229,730 -4434,-474 -1285,-1285 -1379,-3309 -283,-4702l-442 -442 601 -601 442 442z"/>
  </g>
  <path class="fil0 str2" d="M28300 55475l0 -6400c0,-276 224,-500 500,-500l42400 0c276,0 500,224 500,500l0 6400c0,276 -224,500 -500,500l-42400 0c-276,0 -500,-224 -500,-500z"/>
  <circle class="fil0 str0" cx="63500" cy="55275" r="300"/>
  <circle class="fil0 str0" cx="62750" cy="55275" r="150"/>
  <circle class="fil0 str0" cx="64250" cy="55275" r="150"/>
  <circle class="fil0 str0" cx="63500" cy="54525" r="150"/>
  <circle class="fil0 str0" cx="63500" cy="53775" r="300"/>
  <circle class="fil0 str0" cx="62750" cy="53775" r="150"/>
  <circle class="fil0 str0" cx="64250" cy="53775" r="150"/>
  <circle class="fil0 str0" cx="63500" cy="53025" r="150"/>
  <circle class="fil0 str0" cx="63500" cy="52275" r="300"/>
  <circle class="fil0 str0" cx="62750" cy="52275" r="150"/>
  <circle class="fil0 str0" cx="64250" cy="52275" r="150"/>
  <circle class="fil0 str0" cx="63500" cy="51525" r="150"/>
  <circle class="fil0 str0" cx="63500" cy="50775" r="300"/>
  <circle class="fil0 str0" cx="62750" cy="50775" r="150"/>
  <circle class="fil0 str0" cx="64250" cy="50775" r="150"/>
  <circle class="fil0 str0" cx="63500" cy="50025" r="150"/>
  <circle class="fil0 str0" cx="29000" cy="49275" r="300"/>
  <circle class="fil0 str0" cx="29750" cy="49275" r="150"/>
  <circle class="fil0 str0" cx="35000" cy="49275" r="300"/>
  <circle class="fil0 str0" cx="34250" cy="49275" r="150"/>
  <circle class="fil0 str0" cx="36500" cy="49275" r="300"/>
  <circle class="fil0 str0" cx="38000" cy="49275" r="300"/>
  <circle class="fil0 str0" cx="35750" cy="49275" r="150"/>
  <circle class="fil0 str0" cx="37250" cy="49275" r="150"/>
  <circle class="fil0 str0" cx="38750" cy="49275" r="150"/>
  <circle class="fil0 str0" cx="44000" cy="49275" r="300"/>
  <circle class="fil0 str0" cx="43250" cy="49275" r="150"/>
  <circle class="fil0 str0" cx="45500" cy="49275" r="300"/>
  <circle class="fil0 str0" cx="47000" cy="49275" r="300"/>
  <circle class="fil0 str0" cx="44750" cy="49275" r="150"/>
  <circle class="fil0 str0" cx="46250" cy="49275" r="150"/>
  <circle class="fil0 str0" cx="48500" cy="49275" r="300"/>
  <circle class="fil0 str0" cx="47750" cy="49275" r="150"/>
  <circle class="fil0 str0" cx="51500" cy="49275" r="300"/>
  <circle class="fil0 str0" cx="53000" cy="49275" r="300"/>
  <circle class="fil0 str0" cx="52250" cy="49275" r="150"/>
  <circle class="fil0 str0" cx="54500" cy="49275" r="300"/>
  <circle class="fil0 str0" cx="56000" cy="49275" r="300"/>
  <circle class="fil0 str0" cx="53750" cy="49275" r="150"/>
  <circle class="fil0 str0" cx="55250" cy="49275" r="150"/>
  <circle class="fil0 str0" cx="56750" cy="49275" r="150"/>
  <circle class="fil0 str0" cx="62000" cy="49275" r="300"/>
  <circle class="fil0 str0" cx="61250" cy="49275" r="150"/>
  <circle class="fil0 str0" cx="63500" cy="49275" r="300"/>
  <circle class="fil0 str0" cx="65000" cy="49275" r="300"/>
  <circle class="fil0 str0" cx="62750" cy="49275" r="150"/>
  <circle class="fil0 str0" cx="64250" cy="49275" r="150"/>
  <circle class="fil0 str0" cx="65750" cy="49275" r="150"/>
  <circle class="fil0 str0" cx="71000" cy="49275" r="300"/>
  <circle class="fil0 str0" cx="70250" cy="49275" r="150"/>
  <circle class="fil0 str0" cx="62000" cy="55275" r="300"/>
  <circle class="fil0 str0" cx="65000" cy="55275" r="300"/>
  <circle class="fil0 str0" cx="71000" cy="55275" r="300"/>
  <circle class="fil0 str0" cx="70250" cy="55275" r="150"/>
  <circle class="fil0 str0" cx="54500" cy="55275" r="300"/>
  <circle class="fil0 str0" cx="53750" cy="55275" r="150"/>
  <circle class="fil0 str0" cx="55250" cy="55275" r="150"/>
  <circle class="fil0 str0" cx="54500" cy="54525" r="150"/>
  <circle class="fil0 str0" cx="54500" cy="53775" r="300"/>
  <circle class="fil0 str0" cx="53750" cy="53775" r="150"/>
  <circle class="fil0 str0" cx="55250" cy="53775" r="150"/>
  <circle class="fil0 str0" cx="54500" cy="53025" r="150"/>
  <circle class="fil0 str0" cx="54500" cy="52275" r="300"/>
  <circle class="fil0 str0" cx="53750" cy="52275" r="150"/>
  <circle class="fil0 str0" cx="55250" cy="52275" r="150"/>
  <circle class="fil0 str0" cx="54500" cy="51525" r="150"/>
  <circle class="fil0 str0" cx="54500" cy="50775" r="300"/>
  <circle class="fil0 str0" cx="53750" cy="50775" r="150"/>
  <circle class="fil0 str0" cx="55250" cy="50775" r="150"/>
  <circle class="fil0 str0" cx="54500" cy="50025" r="150"/>
  <circle class="fil0 str0" cx="53000" cy="55275" r="300"/>
  <circle class="fil0 str0" cx="56000" cy="55275" r="300"/>
  <circle class="fil0 str0" cx="45500" cy="55275" r="300"/>
  <circle class="fil0 str0" cx="44750" cy="55275" r="150"/>
  <circle class="fil0 str0" cx="46250" cy="55275" r="150"/>
  <circle class="fil0 str0" cx="45500" cy="54525" r="150"/>
  <circle class="fil0 str0" cx="45500" cy="53775" r="300"/>
  <circle class="fil0 str0" cx="44750" cy="53775" r="150"/>
  <circle class="fil0 str0" cx="46250" cy="53775" r="150"/>
  <circle class="fil0 str0" cx="45500" cy="53025" r="150"/>
  <circle class="fil0 str0" cx="45500" cy="52275" r="300"/>
  <circle class="fil0 str0" cx="44750" cy="52275" r="150"/>
  <circle class="fil0 str0" cx="46250" cy="52275" r="150"/>
  <circle class="fil0 str0" cx="45500" cy="51525" r="150"/>
  <circle class="fil0 str0" cx="45500" cy="50775" r="300"/>
  <circle class="fil0 str0" cx="44750" cy="50775" r="150"/>
  <circle class="fil0 str0" cx="46250" cy="50775" r="150"/>
  <circle class="fil0 str0" cx="45500" cy="50025" r="150"/>
  <circle class="fil0 str0" cx="44000" cy="55275" r="300"/>
  <circle class="fil0 str0" cx="47000" cy="55275" r="300"/>
  <circle class="fil0 str0" cx="36500" cy="55275" r="300"/>
  <circle class="fil0 str0" cx="35750" cy="55275" r="150"/>
  <circle class="fil0 str0" cx="37250" cy="55275" r="150"/>
  <circle class="fil0 str0" cx="36500" cy="54525" r="150"/>
  <circle class="fil0 str0" cx="36500" cy="53775" r="300"/>
  <circle class="fil0 str0" cx="35750" cy="53775" r="150"/>
  <circle class="fil0 str0" cx="37250" cy="53775" r="150"/>
  <circle class="fil0 str0" cx="36500" cy="53025" r="150"/>
  <circle class="fil0 str0" cx="36500" cy="52275" r="300"/>
  <circle class="fil0 str0" cx="35750" cy="52275" r="150"/>
  <circle class="fil0 str0" cx="37250" cy="52275" r="150"/>
  <circle class="fil0 str0" cx="36500" cy="51525" r="150"/>
  <circle class="fil0 str0" cx="36500" cy="50775" r="300"/>
  <circle class="fil0 str0" cx="35750" cy="50775" r="150"/>
  <circle class="fil0 str0" cx="37250" cy="50775" r="150"/>
  <circle class="fil0 str0" cx="36500" cy="50025" r="150"/>
  <circle class="fil0 str0" cx="35000" cy="55275" r="300"/>
  <circle class="fil0 str0" cx="38000" cy="55275" r="300"/>
  <circle class="fil0 str0" cx="29750" cy="55275" r="150"/>
  <circle class="fil0 str0" cx="29000" cy="55275" r="300"/>
  <circle class="fil0 str0" cx="71000" cy="50775" r="300"/>
  <circle class="fil0 str0" cx="71000" cy="52275" r="300"/>
  <circle class="fil0 str0" cx="71000" cy="53775" r="300"/>
  <circle class="fil0 str0" cx="29000" cy="50775" r="300"/>
  <circle class="fil0 str0" cx="29000" cy="52275" r="300"/>
  <circle class="fil0 str0" cx="29000" cy="53775" r="300"/>
  <g id="_878922448">
   <circle class="fil0 str0" cx="50000" cy="44775" r="2850"/>
   <circle class="fil0 str0" cx="41000" cy="44775" r="2850"/>
   <circle class="fil0 str0" cx="32000" cy="44775" r="2850"/>
   <circle class="fil0 str0" cx="59000" cy="44775" r="2850"/>
   <circle class="fil0 str0" cx="68000" cy="44775" r="2850"/>
   <path class="fil0 str1" d="M29808 41982c1393,-1096 3417,-1002 4702,283 1204,1204 1362,3059 474,4434l339 339 -1061 1061 -339 -339c-1375,888 -3229,730 -4434,-474 -1285,-1285 -1379,-3309 -283,-4702l-442 -442 601 -601 442 442z"/>
   <path class="fil0 str1" d="M38808 41982c1393,-1096 3417,-1002 4702,283 1204,1204 1362,3059 474,4434l339 339 -1061 1061 -339 -339c-1375,888 -3229,730 -4434,-474 -1285,-1285 -1379,-3309 -283,-4702l-442 -442 601 -601 442 442z"/>
   <path class="fil0 str1" d="M47808 41982c1393,-1096 3417,-1002 4702,283 1204,1204 1362,3059 474,4434l339 339 -1061 1061 -339 -339c-1375,888 -3229,730 -4434,-474 -1285,-1285 -1379,-3309 -283,-4702l-442 -442 601 -601 442 442z"/>
   <path class="fil0 str1" d="M56808 41982c1393,-1096 3417,-1002 4702,283 1204,1204 1362,3059 474,4434l339 339 -1061 1061 -339 -339c-1375,888 -3229,730 -4434,-474 -1285,-1285 -1379,-3309 -283,-4702l-442 -442 601 -601 442 442z"/>
   <path class="fil0 str1" d="M65808 41982c1393,-1096 3417,-1002 4702,283 1204,1204 1362,3059 474,4434l339 339 -1061 1061 -339 -339c-1375,888 -3229,730 -4434,-474 -1285,-1285 -1379,-3309 -283,-4702l-442 -442 601 -601 442 442z"/>
  </g>
  <path class="fil0 str2" d="M28300 47975l0 -6400c0,-276 224,-500 500,-500l42400 0c276,0 500,224 500,500l0 6400c0,276 -224,500 -500,500l-42400 0c-276,0 -500,-224 -500,-500z"/>
  <circle class="fil0 str0" cx="63500" cy="47775" r="300"/>
  <circle class="fil0 str0" cx="62750" cy="47775" r="150"/>
  <circle class="fil0 str0" cx="64250" cy="47775" r="150"/>
  <circle class="fil0 str0" cx="63500" cy="47025" r="150"/>
  <circle class="fil0 str0" cx="63500" cy="46275" r="300"/>
  <circle class="fil0 str0" cx="62750" cy="46275" r="150"/>
  <circle class="fil0 str0" cx="64250" cy="46275" r="150"/>
  <circle class="fil0 str0" cx="63500" cy="45525" r="150"/>
  <circle class="fil0 str0" cx="63500" cy="44775" r="300"/>
  <circle class="fil0 str0" cx="62750" cy="44775" r="150"/>
  <circle class="fil0 str0" cx="64250" cy="44775" r="150"/>
  <circle class="fil0 str0" cx="63500" cy="44025" r="150"/>
  <circle class="fil0 str0" cx="63500" cy="43275" r="300"/>
  <circle class="fil0 str0" cx="62750" cy="43275" r="150"/>
  <circle class="fil0 str0" cx="64250" cy="43275" r="150"/>
  <circle class="fil0 str0" cx="63500" cy="42525" r="150"/>
  <circle class="fil0 str0" cx="29000" cy="41775" r="300"/>
  <circle class="fil0 str0" cx="29750" cy="41775" r="150"/>
  <circle class="fil0 str0" cx="35000" cy="41775" r="300"/>
  <circle class="fil0 str0" cx="34250" cy="41775" r="150"/>
  <circle class="fil0 str0" cx="36500" cy="41775" r="300"/>
  <circle class="fil0 str0" cx="38000" cy="41775" r="300"/>
  <circle class="fil0 str0" cx="35750" cy="41775" r="150"/>
  <circle class="fil0 str0" cx="37250" cy="41775" r="150"/>
  <circle class="fil0 str0" cx="38750" cy="41775" r="150"/>
  <circle class="fil0 str0" cx="44000" cy="41775" r="300"/>
  <circle class="fil0 str0" cx="43250" cy="41775" r="150"/>
  <circle class="fil0 str0" cx="45500" cy="41775" r="300"/>
  <circle class="fil0 str0" cx="47000" cy="41775" r="300"/>
  <circle class="fil0 str0" cx="44750" cy="41775" r="150"/>
  <circle class="fil0 str0" cx="46250" cy="41775" r="150"/>
  <circle class="fil0 str0" cx="48500" cy="41775" r="300"/>
  <circle class="fil0 str0" cx="47750" cy="41775" r="150"/>
  <circle class="fil0 str0" cx="51500" cy="41775" r="300"/>
  <circle class="fil0 str0" cx="53000" cy="41775" r="300"/>
  <circle class="fil0 str0" cx="52250" cy="41775" r="150"/>
  <circle class="fil0 str0" cx="54500" cy="41775" r="300"/>
  <circle class="fil0 str0" cx="56000" cy="41775" r="300"/>
  <circle class="fil0 str0" cx="53750" cy="41775" r="150"/>
  <circle class="fil0 str0" cx="55250" cy="41775" r="150"/>
  <circle class="fil0 str0" cx="56750" cy="41775" r="150"/>
  <circle class="fil0 str0" cx="62000" cy="41775" r="300"/>
  <circle class="fil0 str0" cx="61250" cy="41775" r="150"/>
  <circle class="fil0 str0" cx="63500" cy="41775" r="300"/>
  <circle class="fil0 str0" cx="65000" cy="41775" r="300"/>
  <circle class="fil0 str0" cx="62750" cy="41775" r="150"/>
  <circle class="fil0 str0" cx="64250" cy="41775" r="150"/>
  <circle class="fil0 str0" cx="65750" cy="41775" r="150"/>
  <circle class="fil0 str0" cx="71000" cy="41775" r="300"/>
  <circle class="fil0 str0" cx="70250" cy="41775" r="150"/>
  <circle class="fil0 str0" cx="62000" cy="47775" r="300"/>
  <circle class="fil0 str0" cx="65000" cy="47775" r="300"/>
  <circle class="fil0 str0" cx="71000" cy="47775" r="300"/>
  <circle class="fil0 str0" cx="70250" cy="47775" r="150"/>
  <circle class="fil0 str0" cx="54500" cy="47775" r="300"/>
  <circle class="fil0 str0" cx="53750" cy="47775" r="150"/>
  <circle class="fil0 str0" cx="55250" cy="47775" r="150"/>
  <circle class="fil0 str0" cx="54500" cy="47025" r="150"/>
  <circle class="fil0 str0" cx="54500" cy="46275" r="300"/>
  <circle class="fil0 str0" cx="53750" cy="46275" r="150"/>
  <circle class="fil0 str0" cx="55250" cy="46275" r="150"/>
  <circle class="fil0 str0" cx="54500" cy="45525" r="150"/>
  <circle class="fil0 str0" cx="54500" cy="44775" r="300"/>
  <circle class="fil0 str0" cx="53750" cy="44775" r="150"/>
  <circle class="fil0 str0" cx="55250" cy="44775" r="150"/>
  <circle class="fil0 str0" cx="54500" cy="44025" r="150"/>
  <circle class="fil0 str0" cx="54500" cy="43275" r="300"/>
  <circle class="fil0 str0" cx="53750" cy="43275" r="150"/>
  <circle class="fil0 str0" cx="55250" cy="43275" r="150"/>
  <circle class="fil0 str0" cx="54500" cy="42525" r="150"/>
  <circle class="fil0 str0" cx="53000" cy="47775" r="300"/>
  <circle class="fil0 str0" cx="56000" cy="47775" r="300"/>
  <circle class="fil0 str0" cx="45500" cy="47775" r="300"/>
  <circle class="fil0 str0" cx="44750" cy="47775" r="150"/>
  <circle class="fil0 str0" cx="46250" cy="47775" r="150"/>
  <circle class="fil0 str0" cx="45500" cy="47025" r="150"/>
  <circle class="fil0 str0" cx="45500" cy="46275" r="300"/>
  <circle class="fil0 str0" cx="44750" cy="46275" r="150"/>
  <circle class="fil0 str0" cx="46250" cy="46275" r="150"/>
  <circle class="fil0 str0" cx="45500" cy="45525" r="150"/>
  <circle class="fil0 str0" cx="45500" cy="44775" r="300"/>
  <circle class="fil0 str0" cx="44750" cy="44775" r="150"/>
  <circle class="fil0 str0" cx="46250" cy="44775" r="150"/>
  <circle class="fil0 str0" cx="45500" cy="44025" r="150"/>
  <circle class="fil0 str0" cx="45500" cy="43275" r="300"/>
  <circle class="fil0 str0" cx="44750" cy="43275" r="150"/>
  <circle class="fil0 str0" cx="46250" cy="43275" r="150"/>
  <circle class="fil0 str0" cx="45500" cy="42525" r="150"/>
  <circle class="fil0 str0" cx="44000" cy="47775" r="300"/>
  <circle class="fil0 str0" cx="47000" cy="47775" r="300"/>
  <circle class="fil0 str0" cx="36500" cy="47775" r="300"/>
  <circle class="fil0 str0" cx="35750" cy="47775" r="150"/>
  <circle class="fil0 str0" cx="37250" cy="47775" r="150"/>
  <circle class="fil0 str0" cx="36500" cy="47025" r="150"/>
  <circle class="fil0 str0" cx="36500" cy="46275" r="300"/>
  <circle class="fil0 str0" cx="35750" cy="46275" r="150"/>
  <circle class="fil0 str0" cx="37250" cy="46275" r="150"/>
  <circle class="fil0 str0" cx="36500" cy="45525" r="150"/>
  <circle class="fil0 str0" cx="36500" cy="44775" r="300"/>
  <circle class="fil0 str0" cx="35750" cy="44775" r="150"/>
  <circle class="fil0 str0" cx="37250" cy="44775" r="150"/>
  <circle class="fil0 str0" cx="36500" cy="44025" r="150"/>
  <circle class="fil0 str0" cx="36500" cy="43275" r="300"/>
  <circle class="fil0 str0" cx="35750" cy="43275" r="150"/>
  <circle class="fil0 str0" cx="37250" cy="43275" r="150"/>
  <circle class="fil0 str0" cx="36500" cy="42525" r="150"/>
  <circle class="fil0 str0" cx="35000" cy="47775" r="300"/>
  <circle class="fil0 str0" cx="38000" cy="47775" r="300"/>
  <circle class="fil0 str0" cx="29750" cy="47775" r="150"/>
  <circle class="fil0 str0" cx="29000" cy="47775" r="300"/>
  <circle class="fil0 str0" cx="71000" cy="43275" r="300"/>
  <circle class="fil0 str0" cx="71000" cy="44775" r="300"/>
  <circle class="fil0 str0" cx="71000" cy="46275" r="300"/>
  <circle class="fil0 str0" cx="29000" cy="43275" r="300"/>
  <circle class="fil0 str0" cx="29000" cy="44775" r="300"/>
  <circle class="fil0 str0" cx="29000" cy="46275" r="300"/>
  <circle class="fil0 str0" cx="63500" cy="39525" r="300"/>
  <circle class="fil0 str0" cx="62750" cy="39525" r="150"/>
  <circle class="fil0 str0" cx="64250" cy="39525" r="150"/>
  <circle class="fil0 str0" cx="63500" cy="38775" r="150"/>
  <circle class="fil0 str0" cx="63500" cy="38025" r="300"/>
  <circle class="fil0 str0" cx="62750" cy="38025" r="150"/>
  <circle class="fil0 str0" cx="64250" cy="38025" r="150"/>
  <circle class="fil0 str0" cx="63500" cy="37275" r="150"/>
  <circle class="fil0 str0" cx="62000" cy="39525" r="300"/>
  <circle class="fil0 str0" cx="65000" cy="39525" r="300"/>
  <circle class="fil0 str0" cx="71000" cy="39525" r="300"/>
  <circle class="fil0 str0" cx="70250" cy="39525" r="150"/>
  <circle class="fil0 str0" cx="54500" cy="39525" r="300"/>
  <circle class="fil0 str0" cx="53750" cy="39525" r="150"/>
  <circle class="fil0 str0" cx="55250" cy="39525" r="150"/>
  <circle class="fil0 str0" cx="54500" cy="38775" r="150"/>
  <circle class="fil0 str0" cx="54500" cy="38025" r="300"/>
  <circle class="fil0 str0" cx="53750" cy="38025" r="150"/>
  <circle class="fil0 str0" cx="55250" cy="38025" r="150"/>
  <circle class="fil0 str0" cx="54500" cy="37275" r="150"/>
  <circle class="fil0 str0" cx="53000" cy="39525" r="300"/>
  <circle class="fil0 str0" cx="56000" cy="39525" r="300"/>
  <circle class="fil0 str0" cx="45500" cy="39525" r="300"/>
  <circle class="fil0 str0" cx="44750" cy="39525" r="150"/>
  <circle class="fil0 str0" cx="46250" cy="39525" r="150"/>
  <circle class="fil0 str0" cx="45500" cy="38775" r="150"/>
  <circle class="fil0 str0" cx="45500" cy="38025" r="300"/>
  <circle class="fil0 str0" cx="44750" cy="38025" r="150"/>
  <circle class="fil0 str0" cx="46250" cy="38025" r="150"/>
  <circle class="fil0 str0" cx="45500" cy="37275" r="150"/>
  <circle class="fil0 str0" cx="44000" cy="39525" r="300"/>
  <circle class="fil0 str0" cx="47000" cy="39525" r="300"/>
  <circle class="fil0 str0" cx="36500" cy="39525" r="300"/>
  <circle class="fil0 str0" cx="35750" cy="39525" r="150"/>
  <circle class="fil0 str0" cx="37250" cy="39525" r="150"/>
  <circle class="fil0 str0" cx="36500" cy="38775" r="150"/>
  <circle class="fil0 str0" cx="36500" cy="38025" r="300"/>
  <circle class="fil0 str0" cx="35750" cy="38025" r="150"/>
  <circle class="fil0 str0" cx="37250" cy="38025" r="150"/>
  <circle class="fil0 str0" cx="36500" cy="37275" r="150"/>
  <circle class="fil0 str0" cx="35000" cy="39525" r="300"/>
  <circle class="fil0 str0" cx="38000" cy="39525" r="300"/>
  <circle class="fil0 str0" cx="29750" cy="39525" r="150"/>
  <circle class="fil0 str0" cx="29000" cy="39525" r="300"/>
  <circle class="fil0 str0" cx="71000" cy="38025" r="300"/>
  <circle class="fil0 str0" cx="29000" cy="38025" r="300"/>
  <path class="fil0 str2" d="M28300 49475l0 -6400c0,-276 224,-500 500,-500l400 0c276,0 500,224 500,500l0 6400c0,276 -224,500 -500,500l-400 0c-276,0 -500,-224 -500,-500z"/>
  <path class="fil0 str2" d="M70300 49475l0 -6400c0,-276 224,-500 500,-500l400 0c276,0 500,224 500,500l0 6400c0,276 -224,500 -500,500l-400 0c-276,0 -500,-224 -500,-500z"/>
 </g>
</svg>
