<?xml version="1.0" encoding="UTF-8"?>
<!DOCTYPE svg PUBLIC "-//W3C//DTD SVG 1.1//EN" "http://www.w3.org/Graphics/SVG/1.1/DTD/svg11.dtd">
<!-- Creator: CorelDRAW X6 -->
<svg xmlns="http://www.w3.org/2000/svg" xml:space="preserve" width="1000mm" height="1000mm" version="1.1" style="shape-rendering:geometricPrecision; text-rendering:geometricPrecision; image-rendering:optimizeQuality; fill-rule:evenodd; clip-rule:evenodd"
viewBox="0 0 100000 100000"
 xmlns:xlink="http://www.w3.org/1999/xlink">
 <defs>
  <style type="text/css">
   <![CDATA[
    .str0 {stroke:black;stroke-width:52.92;stroke-linecap:round;stroke-linejoin:round}
    .str1 {stroke:blue;stroke-width:52.92;stroke-linecap:round;stroke-linejoin:round}
    .str2 {stroke:aqua;stroke-width:52.92;stroke-linecap:round;stroke-linejoin:round}
    .fil0 {fill:none}
   ]]>
  </style>
 </defs>
 <g id="Layer_x0020_1">
  <metadata id="CorelCorpID_0Corel-Layer"/>
  <g id="_876058352">
   <g>
    <g>
     <circle class="fil0 str0" cx="50000" cy="59750" r="2850"/>
     <circle class="fil0 str0" cx="41000" cy="59750" r="2850"/>
     <circle class="fil0 str0" cx="32000" cy="59750" r="2850"/>
     <circle class="fil0 str0" cx="59000" cy="59750" r="2850"/>
     <circle class="fil0 str0" cx="68000" cy="59750" r="2850"/>
     <path class="fil0 str1" d="M29808 56957c1393,-1096 3417,-1002 4702,283 1204,1204 1362,3059 474,4434l339 339 -1061 1061 -339 -339c-1375,888 -3229,730 -4434,-474 -1285,-1285 -1379,-3309 -283,-4702l-442 -442 601 -601 442 442z"/>
     <path class="fil0 str1" d="M38808 56957c1393,-1096 3417,-1002 4702,283 1204,1204 1362,3059 474,4434l339 339 -1061 1061 -339 -339c-1375,888 -3229,730 -4434,-474 -1285,-1285 -1379,-3309 -283,-4702l-442 -442 601 -601 442 442z"/>
     <path class="fil0 str1" d="M47808 56957c1393,-1096 3417,-1002 4702,283 1204,1204 1362,3059 474,4434l339 339 -1061 1061 -339 -339c-1375,888 -3229,730 -4434,-474 -1285,-1285 -1379,-3309 -283,-4702l-442 -442 601 -601 442 442z"/>
     <path class="fil0 str1" d="M56808 56957c1393,-1096 3417,-1002 4702,283 1204,1204 1362,3059 474,4434l339 339 -1061 1061 -339 -339c-1375,888 -3229,730 -4434,-474 -1285,-1285 -1379,-3309 -283,-4702l-442 -442 601 -601 442 442z"/>
     <path class="fil0 str1" d="M65808 56957c1393,-1096 3417,-1002 4702,283 1204,1204 1362,3059 474,4434l339 339 -1061 1061 -339 -339c-1375,888 -3229,730 -4434,-474 -1285,-1285 -1379,-3309 -283,-4702l-442 -442 601 -601 442 442z"/>
    </g>
    <path class="fil0 str2" d="M28300 62950l0 -6400c0,-276 224,-500 500,-500l42400 0c276,0 500,224 500,500l0 6400c0,276 -224,500 -500,500l-42400 0c-276,0 -500,-224 -500,-500z"/>
    <circle class="fil0 str0" cx="63500" cy="62750" r="300"/>
    <circle class="fil0 str0" cx="62750" cy="62750" r="150"/>
    <circle class="fil0 str0" cx="64250" cy="62750" r="150"/>
    <circle class="fil0 str0" cx="63500" cy="62000" r="150"/>
    <circle class="fil0 str0" cx="63500" cy="61250" r="300"/>
    <circle class="fil0 str0" cx="62750" cy="61250" r="150"/>
    <circle class="fil0 str0" cx="64250" cy="61250" r="150"/>
    <circle class="fil0 str0" cx="63500" cy="60500" r="150"/>
    <circle class="fil0 str0" cx="63500" cy="59750" r="300"/>
    <circle class="fil0 str0" cx="62750" cy="59750" r="150"/>
    <circle class="fil0 str0" cx="64250" cy="59750" r="150"/>
    <circle class="fil0 str0" cx="63500" cy="59000" r="150"/>
    <circle class="fil0 str0" cx="63500" cy="58250" r="300"/>
    <circle class="fil0 str0" cx="62750" cy="58250" r="150"/>
    <circle class="fil0 str0" cx="64250" cy="58250" r="150"/>
    <circle class="fil0 str0" cx="63500" cy="57500" r="150"/>
    <circle class="fil0 str0" cx="29000" cy="56750" r="300"/>
    <circle class="fil0 str0" cx="29750" cy="56750" r="150"/>
    <circle class="fil0 str0" cx="35000" cy="56750" r="300"/>
    <circle class="fil0 str0" cx="34250" cy="56750" r="150"/>
    <circle class="fil0 str0" cx="36500" cy="56750" r="300"/>
    <circle class="fil0 str0" cx="38000" cy="56750" r="300"/>
    <circle class="fil0 str0" cx="35750" cy="56750" r="150"/>
    <circle class="fil0 str0" cx="37250" cy="56750" r="150"/>
    <circle class="fil0 str0" cx="38750" cy="56750" r="150"/>
    <circle class="fil0 str0" cx="44000" cy="56750" r="300"/>
    <circle class="fil0 str0" cx="43250" cy="56750" r="150"/>
    <circle class="fil0 str0" cx="45500" cy="56750" r="300"/>
    <circle class="fil0 str0" cx="47000" cy="56750" r="300"/>
    <circle class="fil0 str0" cx="44750" cy="56750" r="150"/>
    <circle class="fil0 str0" cx="46250" cy="56750" r="150"/>
    <circle class="fil0 str0" cx="48500" cy="56750" r="300"/>
    <circle class="fil0 str0" cx="47750" cy="56750" r="150"/>
    <circle class="fil0 str0" cx="51500" cy="56750" r="300"/>
    <circle class="fil0 str0" cx="53000" cy="56750" r="300"/>
    <circle class="fil0 str0" cx="52250" cy="56750" r="150"/>
    <circle class="fil0 str0" cx="54500" cy="56750" r="300"/>
    <circle class="fil0 str0" cx="56000" cy="56750" r="300"/>
    <circle class="fil0 str0" cx="53750" cy="56750" r="150"/>
    <circle class="fil0 str0" cx="55250" cy="56750" r="150"/>
    <circle class="fil0 str0" cx="56750" cy="56750" r="150"/>
    <circle class="fil0 str0" cx="62000" cy="56750" r="300"/>
    <circle class="fil0 str0" cx="61250" cy="56750" r="150"/>
    <circle class="fil0 str0" cx="63500" cy="56750" r="300"/>
    <circle class="fil0 str0" cx="65000" cy="56750" r="300"/>
    <circle class="fil0 str0" cx="62750" cy="56750" r="150"/>
    <circle class="fil0 str0" cx="64250" cy="56750" r="150"/>
    <circle class="fil0 str0" cx="65750" cy="56750" r="150"/>
    <circle class="fil0 str0" cx="71000" cy="56750" r="300"/>
    <circle class="fil0 str0" cx="70250" cy="56750" r="150"/>
    <circle class="fil0 str0" cx="62000" cy="62750" r="300"/>
    <circle class="fil0 str0" cx="65000" cy="62750" r="300"/>
    <circle class="fil0 str0" cx="71000" cy="62750" r="300"/>
    <circle class="fil0 str0" cx="70250" cy="62750" r="150"/>
    <circle class="fil0 str0" cx="54500" cy="62750" r="300"/>
    <circle class="fil0 str0" cx="53750" cy="62750" r="150"/>
    <circle class="fil0 str0" cx="55250" cy="62750" r="150"/>
    <circle class="fil0 str0" cx="54500" cy="62000" r="150"/>
    <circle class="fil0 str0" cx="54500" cy="61250" r="300"/>
    <circle class="fil0 str0" cx="53750" cy="61250" r="150"/>
    <circle class="fil0 str0" cx="55250" cy="61250" r="150"/>
    <circle class="fil0 str0" cx="54500" cy="60500" r="150"/>
    <circle class="fil0 str0" cx="54500" cy="59750" r="300"/>
    <circle class="fil0 str0" cx="53750" cy="59750" r="150"/>
    <circle class="fil0 str0" cx="55250" cy="59750" r="150"/>
    <circle class="fil0 str0" cx="54500" cy="59000" r="150"/>
    <circle class="fil0 str0" cx="54500" cy="58250" r="300"/>
    <circle class="fil0 str0" cx="53750" cy="58250" r="150"/>
    <circle class="fil0 str0" cx="55250" cy="58250" r="150"/>
    <circle class="fil0 str0" cx="54500" cy="57500" r="150"/>
    <circle class="fil0 str0" cx="53000" cy="62750" r="300"/>
    <circle class="fil0 str0" cx="56000" cy="62750" r="300"/>
    <circle class="fil0 str0" cx="45500" cy="62750" r="300"/>
    <circle class="fil0 str0" cx="44750" cy="62750" r="150"/>
    <circle class="fil0 str0" cx="46250" cy="62750" r="150"/>
    <circle class="fil0 str0" cx="45500" cy="62000" r="150"/>
    <circle class="fil0 str0" cx="45500" cy="61250" r="300"/>
    <circle class="fil0 str0" cx="44750" cy="61250" r="150"/>
    <circle class="fil0 str0" cx="46250" cy="61250" r="150"/>
    <circle class="fil0 str0" cx="45500" cy="60500" r="150"/>
    <circle class="fil0 str0" cx="45500" cy="59750" r="300"/>
    <circle class="fil0 str0" cx="44750" cy="59750" r="150"/>
    <circle class="fil0 str0" cx="46250" cy="59750" r="150"/>
    <circle class="fil0 str0" cx="45500" cy="59000" r="150"/>
    <circle class="fil0 str0" cx="45500" cy="58250" r="300"/>
    <circle class="fil0 str0" cx="44750" cy="58250" r="150"/>
    <circle class="fil0 str0" cx="46250" cy="58250" r="150"/>
    <circle class="fil0 str0" cx="45500" cy="57500" r="150"/>
    <circle class="fil0 str0" cx="44000" cy="62750" r="300"/>
    <circle class="fil0 str0" cx="47000" cy="62750" r="300"/>
    <circle class="fil0 str0" cx="36500" cy="62750" r="300"/>
    <circle class="fil0 str0" cx="35750" cy="62750" r="150"/>
    <circle class="fil0 str0" cx="37250" cy="62750" r="150"/>
    <circle class="fil0 str0" cx="36500" cy="62000" r="150"/>
    <circle class="fil0 str0" cx="36500" cy="61250" r="300"/>
    <circle class="fil0 str0" cx="35750" cy="61250" r="150"/>
    <circle class="fil0 str0" cx="37250" cy="61250" r="150"/>
    <circle class="fil0 str0" cx="36500" cy="60500" r="150"/>
    <circle class="fil0 str0" cx="36500" cy="59750" r="300"/>
    <circle class="fil0 str0" cx="35750" cy="59750" r="150"/>
    <circle class="fil0 str0" cx="37250" cy="59750" r="150"/>
    <circle class="fil0 str0" cx="36500" cy="59000" r="150"/>
    <circle class="fil0 str0" cx="36500" cy="58250" r="300"/>
    <circle class="fil0 str0" cx="35750" cy="58250" r="150"/>
    <circle class="fil0 str0" cx="37250" cy="58250" r="150"/>
    <circle class="fil0 str0" cx="36500" cy="57500" r="150"/>
    <circle class="fil0 str0" cx="35000" cy="62750" r="300"/>
    <circle class="fil0 str0" cx="38000" cy="62750" r="300"/>
    <circle class="fil0 str0" cx="29750" cy="62750" r="150"/>
    <circle class="fil0 str0" cx="29000" cy="62750" r="300"/>
    <circle class="fil0 str0" cx="71000" cy="58250" r="300"/>
    <circle class="fil0 str0" cx="71000" cy="59750" r="300"/>
    <circle class="fil0 str0" cx="71000" cy="61250" r="300"/>
    <circle class="fil0 str0" cx="29000" cy="58250" r="300"/>
    <circle class="fil0 str0" cx="29000" cy="59750" r="300"/>
    <circle class="fil0 str0" cx="29000" cy="61250" r="300"/>
   </g>
   <g>
    <circle class="fil0 str0" cx="50000" cy="52250" r="2850"/>
    <circle class="fil0 str0" cx="41000" cy="52250" r="2850"/>
    <circle class="fil0 str0" cx="32000" cy="52250" r="2850"/>
    <circle class="fil0 str0" cx="59000" cy="52250" r="2850"/>
    <circle class="fil0 str0" cx="68000" cy="52250" r="2850"/>
    <path class="fil0 str1" d="M29808 49457c1393,-1096 3417,-1002 4702,283 1204,1204 1362,3059 474,4434l339 339 -1061 1061 -339 -339c-1375,888 -3229,730 -4434,-474 -1285,-1285 -1379,-3309 -283,-4702l-442 -442 601 -601 442 442z"/>
    <path class="fil0 str1" d="M38808 49457c1393,-1096 3417,-1002 4702,283 1204,1204 1362,3059 474,4434l339 339 -1061 1061 -339 -339c-1375,888 -3229,730 -4434,-474 -1285,-1285 -1379,-3309 -283,-4702l-442 -442 601 -601 442 442z"/>
    <path class="fil0 str1" d="M47808 49457c1393,-1096 3417,-1002 4702,283 1204,1204 1362,3059 474,4434l339 339 -1061 1061 -339 -339c-1375,888 -3229,730 -4434,-474 -1285,-1285 -1379,-3309 -283,-4702l-442 -442 601 -601 442 442z"/>
    <path class="fil0 str1" d="M56808 49457c1393,-1096 3417,-1002 4702,283 1204,1204 1362,3059 474,4434l339 339 -1061 1061 -339 -339c-1375,888 -3229,730 -4434,-474 -1285,-1285 -1379,-3309 -283,-4702l-442 -442 601 -601 442 442z"/>
    <path class="fil0 str1" d="M65808 49457c1393,-1096 3417,-1002 4702,283 1204,1204 1362,3059 474,4434l339 339 -1061 1061 -339 -339c-1375,888 -3229,730 -4434,-474 -1285,-1285 -1379,-3309 -283,-4702l-442 -442 601 -601 442 442z"/>
   </g>
   <path class="fil0 str2" d="M28300 55450l0 -6400c0,-276 224,-500 500,-500l42400 0c276,0 500,224 500,500l0 6400c0,276 -224,500 -500,500l-42400 0c-276,0 -500,-224 -500,-500z"/>
   <circle class="fil0 str0" cx="63500" cy="55250" r="300"/>
   <circle class="fil0 str0" cx="62750" cy="55250" r="150"/>
   <circle class="fil0 str0" cx="64250" cy="55250" r="150"/>
   <circle class="fil0 str0" cx="63500" cy="54500" r="150"/>
   <circle class="fil0 str0" cx="63500" cy="53750" r="300"/>
   <circle class="fil0 str0" cx="62750" cy="53750" r="150"/>
   <circle class="fil0 str0" cx="64250" cy="53750" r="150"/>
   <circle class="fil0 str0" cx="63500" cy="53000" r="150"/>
   <circle class="fil0 str0" cx="63500" cy="52250" r="300"/>
   <circle class="fil0 str0" cx="62750" cy="52250" r="150"/>
   <circle class="fil0 str0" cx="64250" cy="52250" r="150"/>
   <circle class="fil0 str0" cx="63500" cy="51500" r="150"/>
   <circle class="fil0 str0" cx="63500" cy="50750" r="300"/>
   <circle class="fil0 str0" cx="62750" cy="50750" r="150"/>
   <circle class="fil0 str0" cx="64250" cy="50750" r="150"/>
   <circle class="fil0 str0" cx="63500" cy="50000" r="150"/>
   <circle class="fil0 str0" cx="29000" cy="49250" r="300"/>
   <circle class="fil0 str0" cx="29750" cy="49250" r="150"/>
   <circle class="fil0 str0" cx="35000" cy="49250" r="300"/>
   <circle class="fil0 str0" cx="34250" cy="49250" r="150"/>
   <circle class="fil0 str0" cx="36500" cy="49250" r="300"/>
   <circle class="fil0 str0" cx="38000" cy="49250" r="300"/>
   <circle class="fil0 str0" cx="35750" cy="49250" r="150"/>
   <circle class="fil0 str0" cx="37250" cy="49250" r="150"/>
   <circle class="fil0 str0" cx="38750" cy="49250" r="150"/>
   <circle class="fil0 str0" cx="44000" cy="49250" r="300"/>
   <circle class="fil0 str0" cx="43250" cy="49250" r="150"/>
   <circle class="fil0 str0" cx="45500" cy="49250" r="300"/>
   <circle class="fil0 str0" cx="47000" cy="49250" r="300"/>
   <circle class="fil0 str0" cx="44750" cy="49250" r="150"/>
   <circle class="fil0 str0" cx="46250" cy="49250" r="150"/>
   <circle class="fil0 str0" cx="48500" cy="49250" r="300"/>
   <circle class="fil0 str0" cx="47750" cy="49250" r="150"/>
   <circle class="fil0 str0" cx="51500" cy="49250" r="300"/>
   <circle class="fil0 str0" cx="53000" cy="49250" r="300"/>
   <circle class="fil0 str0" cx="52250" cy="49250" r="150"/>
   <circle class="fil0 str0" cx="54500" cy="49250" r="300"/>
   <circle class="fil0 str0" cx="56000" cy="49250" r="300"/>
   <circle class="fil0 str0" cx="53750" cy="49250" r="150"/>
   <circle class="fil0 str0" cx="55250" cy="49250" r="150"/>
   <circle class="fil0 str0" cx="56750" cy="49250" r="150"/>
   <circle class="fil0 str0" cx="62000" cy="49250" r="300"/>
   <circle class="fil0 str0" cx="61250" cy="49250" r="150"/>
   <circle class="fil0 str0" cx="63500" cy="49250" r="300"/>
   <circle class="fil0 str0" cx="65000" cy="49250" r="300"/>
   <circle class="fil0 str0" cx="62750" cy="49250" r="150"/>
   <circle class="fil0 str0" cx="64250" cy="49250" r="150"/>
   <circle class="fil0 str0" cx="65750" cy="49250" r="150"/>
   <circle class="fil0 str0" cx="71000" cy="49250" r="300"/>
   <circle class="fil0 str0" cx="70250" cy="49250" r="150"/>
   <circle class="fil0 str0" cx="62000" cy="55250" r="300"/>
   <circle class="fil0 str0" cx="65000" cy="55250" r="300"/>
   <circle class="fil0 str0" cx="71000" cy="55250" r="300"/>
   <circle class="fil0 str0" cx="70250" cy="55250" r="150"/>
   <circle class="fil0 str0" cx="54500" cy="55250" r="300"/>
   <circle class="fil0 str0" cx="53750" cy="55250" r="150"/>
   <circle class="fil0 str0" cx="55250" cy="55250" r="150"/>
   <circle class="fil0 str0" cx="54500" cy="54500" r="150"/>
   <circle class="fil0 str0" cx="54500" cy="53750" r="300"/>
   <circle class="fil0 str0" cx="53750" cy="53750" r="150"/>
   <circle class="fil0 str0" cx="55250" cy="53750" r="150"/>
   <circle class="fil0 str0" cx="54500" cy="53000" r="150"/>
   <circle class="fil0 str0" cx="54500" cy="52250" r="300"/>
   <circle class="fil0 str0" cx="53750" cy="52250" r="150"/>
   <circle class="fil0 str0" cx="55250" cy="52250" r="150"/>
   <circle class="fil0 str0" cx="54500" cy="51500" r="150"/>
   <circle class="fil0 str0" cx="54500" cy="50750" r="300"/>
   <circle class="fil0 str0" cx="53750" cy="50750" r="150"/>
   <circle class="fil0 str0" cx="55250" cy="50750" r="150"/>
   <circle class="fil0 str0" cx="54500" cy="50000" r="150"/>
   <circle class="fil0 str0" cx="53000" cy="55250" r="300"/>
   <circle class="fil0 str0" cx="56000" cy="55250" r="300"/>
   <circle class="fil0 str0" cx="45500" cy="55250" r="300"/>
   <circle class="fil0 str0" cx="44750" cy="55250" r="150"/>
   <circle class="fil0 str0" cx="46250" cy="55250" r="150"/>
   <circle class="fil0 str0" cx="45500" cy="54500" r="150"/>
   <circle class="fil0 str0" cx="45500" cy="53750" r="300"/>
   <circle class="fil0 str0" cx="44750" cy="53750" r="150"/>
   <circle class="fil0 str0" cx="46250" cy="53750" r="150"/>
   <circle class="fil0 str0" cx="45500" cy="53000" r="150"/>
   <circle class="fil0 str0" cx="45500" cy="52250" r="300"/>
   <circle class="fil0 str0" cx="44750" cy="52250" r="150"/>
   <circle class="fil0 str0" cx="46250" cy="52250" r="150"/>
   <circle class="fil0 str0" cx="45500" cy="51500" r="150"/>
   <circle class="fil0 str0" cx="45500" cy="50750" r="300"/>
   <circle class="fil0 str0" cx="44750" cy="50750" r="150"/>
   <circle class="fil0 str0" cx="46250" cy="50750" r="150"/>
   <circle class="fil0 str0" cx="45500" cy="50000" r="150"/>
   <circle class="fil0 str0" cx="44000" cy="55250" r="300"/>
   <circle class="fil0 str0" cx="47000" cy="55250" r="300"/>
   <circle class="fil0 str0" cx="36500" cy="55250" r="300"/>
   <circle class="fil0 str0" cx="35750" cy="55250" r="150"/>
   <circle class="fil0 str0" cx="37250" cy="55250" r="150"/>
   <circle class="fil0 str0" cx="36500" cy="54500" r="150"/>
   <circle class="fil0 str0" cx="36500" cy="53750" r="300"/>
   <circle class="fil0 str0" cx="35750" cy="53750" r="150"/>
   <circle class="fil0 str0" cx="37250" cy="53750" r="150"/>
   <circle class="fil0 str0" cx="36500" cy="53000" r="150"/>
   <circle class="fil0 str0" cx="36500" cy="52250" r="300"/>
   <circle class="fil0 str0" cx="35750" cy="52250" r="150"/>
   <circle class="fil0 str0" cx="37250" cy="52250" r="150"/>
   <circle class="fil0 str0" cx="36500" cy="51500" r="150"/>
   <circle class="fil0 str0" cx="36500" cy="50750" r="300"/>
   <circle class="fil0 str0" cx="35750" cy="50750" r="150"/>
   <circle class="fil0 str0" cx="37250" cy="50750" r="150"/>
   <circle class="fil0 str0" cx="36500" cy="50000" r="150"/>
   <circle class="fil0 str0" cx="35000" cy="55250" r="300"/>
   <circle class="fil0 str0" cx="38000" cy="55250" r="300"/>
   <circle class="fil0 str0" cx="29750" cy="55250" r="150"/>
   <circle class="fil0 str0" cx="29000" cy="55250" r="300"/>
   <circle class="fil0 str0" cx="71000" cy="50750" r="300"/>
   <circle class="fil0 str0" cx="71000" cy="52250" r="300"/>
   <circle class="fil0 str0" cx="71000" cy="53750" r="300"/>
   <circle class="fil0 str0" cx="29000" cy="50750" r="300"/>
   <circle class="fil0 str0" cx="29000" cy="52250" r="300"/>
   <circle class="fil0 str0" cx="29000" cy="53750" r="300"/>
   <g>
    <circle class="fil0 str0" cx="50000" cy="44750" r="2850"/>
    <circle class="fil0 str0" cx="41000" cy="44750" r="2850"/>
    <circle class="fil0 str0" cx="32000" cy="44750" r="2850"/>
    <circle class="fil0 str0" cx="59000" cy="44750" r="2850"/>
    <circle class="fil0 str0" cx="68000" cy="44750" r="2850"/>
    <path class="fil0 str1" d="M29808 41957c1393,-1096 3417,-1002 4702,283 1204,1204 1362,3059 474,4434l339 339 -1061 1061 -339 -339c-1375,888 -3229,730 -4434,-474 -1285,-1285 -1379,-3309 -283,-4702l-442 -442 601 -601 442 442z"/>
    <path class="fil0 str1" d="M38808 41957c1393,-1096 3417,-1002 4702,283 1204,1204 1362,3059 474,4434l339 339 -1061 1061 -339 -339c-1375,888 -3229,730 -4434,-474 -1285,-1285 -1379,-3309 -283,-4702l-442 -442 601 -601 442 442z"/>
    <path class="fil0 str1" d="M47808 41957c1393,-1096 3417,-1002 4702,283 1204,1204 1362,3059 474,4434l339 339 -1061 1061 -339 -339c-1375,888 -3229,730 -4434,-474 -1285,-1285 -1379,-3309 -283,-4702l-442 -442 601 -601 442 442z"/>
    <path class="fil0 str1" d="M56808 41957c1393,-1096 3417,-1002 4702,283 1204,1204 1362,3059 474,4434l339 339 -1061 1061 -339 -339c-1375,888 -3229,730 -4434,-474 -1285,-1285 -1379,-3309 -283,-4702l-442 -442 601 -601 442 442z"/>
    <path class="fil0 str1" d="M65808 41957c1393,-1096 3417,-1002 4702,283 1204,1204 1362,3059 474,4434l339 339 -1061 1061 -339 -339c-1375,888 -3229,730 -4434,-474 -1285,-1285 -1379,-3309 -283,-4702l-442 -442 601 -601 442 442z"/>
   </g>
   <path class="fil0 str2" d="M28300 47950l0 -6400c0,-276 224,-500 500,-500l42400 0c276,0 500,224 500,500l0 6400c0,276 -224,500 -500,500l-42400 0c-276,0 -500,-224 -500,-500z"/>
   <circle class="fil0 str0" cx="63500" cy="47750" r="300"/>
   <circle class="fil0 str0" cx="62750" cy="47750" r="150"/>
   <circle class="fil0 str0" cx="64250" cy="47750" r="150"/>
   <circle class="fil0 str0" cx="63500" cy="47000" r="150"/>
   <circle class="fil0 str0" cx="63500" cy="46250" r="300"/>
   <circle class="fil0 str0" cx="62750" cy="46250" r="150"/>
   <circle class="fil0 str0" cx="64250" cy="46250" r="150"/>
   <circle class="fil0 str0" cx="63500" cy="45500" r="150"/>
   <circle class="fil0 str0" cx="63500" cy="44750" r="300"/>
   <circle class="fil0 str0" cx="62750" cy="44750" r="150"/>
   <circle class="fil0 str0" cx="64250" cy="44750" r="150"/>
   <circle class="fil0 str0" cx="63500" cy="44000" r="150"/>
   <circle class="fil0 str0" cx="63500" cy="43250" r="300"/>
   <circle class="fil0 str0" cx="62750" cy="43250" r="150"/>
   <circle class="fil0 str0" cx="64250" cy="43250" r="150"/>
   <circle class="fil0 str0" cx="63500" cy="42500" r="150"/>
   <circle class="fil0 str0" cx="29000" cy="41750" r="300"/>
   <circle class="fil0 str0" cx="29750" cy="41750" r="150"/>
   <circle class="fil0 str0" cx="35000" cy="41750" r="300"/>
   <circle class="fil0 str0" cx="34250" cy="41750" r="150"/>
   <circle class="fil0 str0" cx="36500" cy="41750" r="300"/>
   <circle class="fil0 str0" cx="38000" cy="41750" r="300"/>
   <circle class="fil0 str0" cx="35750" cy="41750" r="150"/>
   <circle class="fil0 str0" cx="37250" cy="41750" r="150"/>
   <circle class="fil0 str0" cx="38750" cy="41750" r="150"/>
   <circle class="fil0 str0" cx="44000" cy="41750" r="300"/>
   <circle class="fil0 str0" cx="43250" cy="41750" r="150"/>
   <circle class="fil0 str0" cx="45500" cy="41750" r="300"/>
   <circle class="fil0 str0" cx="47000" cy="41750" r="300"/>
   <circle class="fil0 str0" cx="44750" cy="41750" r="150"/>
   <circle class="fil0 str0" cx="46250" cy="41750" r="150"/>
   <circle class="fil0 str0" cx="48500" cy="41750" r="300"/>
   <circle class="fil0 str0" cx="47750" cy="41750" r="150"/>
   <circle class="fil0 str0" cx="51500" cy="41750" r="300"/>
   <circle class="fil0 str0" cx="53000" cy="41750" r="300"/>
   <circle class="fil0 str0" cx="52250" cy="41750" r="150"/>
   <circle class="fil0 str0" cx="54500" cy="41750" r="300"/>
   <circle class="fil0 str0" cx="56000" cy="41750" r="300"/>
   <circle class="fil0 str0" cx="53750" cy="41750" r="150"/>
   <circle class="fil0 str0" cx="55250" cy="41750" r="150"/>
   <circle class="fil0 str0" cx="56750" cy="41750" r="150"/>
   <circle class="fil0 str0" cx="62000" cy="41750" r="300"/>
   <circle class="fil0 str0" cx="61250" cy="41750" r="150"/>
   <circle class="fil0 str0" cx="63500" cy="41750" r="300"/>
   <circle class="fil0 str0" cx="65000" cy="41750" r="300"/>
   <circle class="fil0 str0" cx="62750" cy="41750" r="150"/>
   <circle class="fil0 str0" cx="64250" cy="41750" r="150"/>
   <circle class="fil0 str0" cx="65750" cy="41750" r="150"/>
   <circle class="fil0 str0" cx="71000" cy="41750" r="300"/>
   <circle class="fil0 str0" cx="70250" cy="41750" r="150"/>
   <circle class="fil0 str0" cx="62000" cy="47750" r="300"/>
   <circle class="fil0 str0" cx="65000" cy="47750" r="300"/>
   <circle class="fil0 str0" cx="71000" cy="47750" r="300"/>
   <circle class="fil0 str0" cx="70250" cy="47750" r="150"/>
   <circle class="fil0 str0" cx="54500" cy="47750" r="300"/>
   <circle class="fil0 str0" cx="53750" cy="47750" r="150"/>
   <circle class="fil0 str0" cx="55250" cy="47750" r="150"/>
   <circle class="fil0 str0" cx="54500" cy="47000" r="150"/>
   <circle class="fil0 str0" cx="54500" cy="46250" r="300"/>
   <circle class="fil0 str0" cx="53750" cy="46250" r="150"/>
   <circle class="fil0 str0" cx="55250" cy="46250" r="150"/>
   <circle class="fil0 str0" cx="54500" cy="45500" r="150"/>
   <circle class="fil0 str0" cx="54500" cy="44750" r="300"/>
   <circle class="fil0 str0" cx="53750" cy="44750" r="150"/>
   <circle class="fil0 str0" cx="55250" cy="44750" r="150"/>
   <circle class="fil0 str0" cx="54500" cy="44000" r="150"/>
   <circle class="fil0 str0" cx="54500" cy="43250" r="300"/>
   <circle class="fil0 str0" cx="53750" cy="43250" r="150"/>
   <circle class="fil0 str0" cx="55250" cy="43250" r="150"/>
   <circle class="fil0 str0" cx="54500" cy="42500" r="150"/>
   <circle class="fil0 str0" cx="53000" cy="47750" r="300"/>
   <circle class="fil0 str0" cx="56000" cy="47750" r="300"/>
   <circle class="fil0 str0" cx="45500" cy="47750" r="300"/>
   <circle class="fil0 str0" cx="44750" cy="47750" r="150"/>
   <circle class="fil0 str0" cx="46250" cy="47750" r="150"/>
   <circle class="fil0 str0" cx="45500" cy="47000" r="150"/>
   <circle class="fil0 str0" cx="45500" cy="46250" r="300"/>
   <circle class="fil0 str0" cx="44750" cy="46250" r="150"/>
   <circle class="fil0 str0" cx="46250" cy="46250" r="150"/>
   <circle class="fil0 str0" cx="45500" cy="45500" r="150"/>
   <circle class="fil0 str0" cx="45500" cy="44750" r="300"/>
   <circle class="fil0 str0" cx="44750" cy="44750" r="150"/>
   <circle class="fil0 str0" cx="46250" cy="44750" r="150"/>
   <circle class="fil0 str0" cx="45500" cy="44000" r="150"/>
   <circle class="fil0 str0" cx="45500" cy="43250" r="300"/>
   <circle class="fil0 str0" cx="44750" cy="43250" r="150"/>
   <circle class="fil0 str0" cx="46250" cy="43250" r="150"/>
   <circle class="fil0 str0" cx="45500" cy="42500" r="150"/>
   <circle class="fil0 str0" cx="44000" cy="47750" r="300"/>
   <circle class="fil0 str0" cx="47000" cy="47750" r="300"/>
   <circle class="fil0 str0" cx="36500" cy="47750" r="300"/>
   <circle class="fil0 str0" cx="35750" cy="47750" r="150"/>
   <circle class="fil0 str0" cx="37250" cy="47750" r="150"/>
   <circle class="fil0 str0" cx="36500" cy="47000" r="150"/>
   <circle class="fil0 str0" cx="36500" cy="46250" r="300"/>
   <circle class="fil0 str0" cx="35750" cy="46250" r="150"/>
   <circle class="fil0 str0" cx="37250" cy="46250" r="150"/>
   <circle class="fil0 str0" cx="36500" cy="45500" r="150"/>
   <circle class="fil0 str0" cx="36500" cy="44750" r="300"/>
   <circle class="fil0 str0" cx="35750" cy="44750" r="150"/>
   <circle class="fil0 str0" cx="37250" cy="44750" r="150"/>
   <circle class="fil0 str0" cx="36500" cy="44000" r="150"/>
   <circle class="fil0 str0" cx="36500" cy="43250" r="300"/>
   <circle class="fil0 str0" cx="35750" cy="43250" r="150"/>
   <circle class="fil0 str0" cx="37250" cy="43250" r="150"/>
   <circle class="fil0 str0" cx="36500" cy="42500" r="150"/>
   <circle class="fil0 str0" cx="35000" cy="47750" r="300"/>
   <circle class="fil0 str0" cx="38000" cy="47750" r="300"/>
   <circle class="fil0 str0" cx="29750" cy="47750" r="150"/>
   <circle class="fil0 str0" cx="29000" cy="47750" r="300"/>
   <circle class="fil0 str0" cx="71000" cy="43250" r="300"/>
   <circle class="fil0 str0" cx="71000" cy="44750" r="300"/>
   <circle class="fil0 str0" cx="71000" cy="46250" r="300"/>
   <circle class="fil0 str0" cx="29000" cy="43250" r="300"/>
   <circle class="fil0 str0" cx="29000" cy="44750" r="300"/>
   <circle class="fil0 str0" cx="29000" cy="46250" r="300"/>
   <circle class="fil0 str0" cx="63500" cy="39500" r="300"/>
   <circle class="fil0 str0" cx="62750" cy="39500" r="150"/>
   <circle class="fil0 str0" cx="64250" cy="39500" r="150"/>
   <circle class="fil0 str0" cx="63500" cy="38750" r="150"/>
   <circle class="fil0 str0" cx="63500" cy="38000" r="300"/>
   <circle class="fil0 str0" cx="62750" cy="38000" r="150"/>
   <circle class="fil0 str0" cx="64250" cy="38000" r="150"/>
   <circle class="fil0 str0" cx="63500" cy="37250" r="150"/>
   <circle class="fil0 str0" cx="62000" cy="39500" r="300"/>
   <circle class="fil0 str0" cx="65000" cy="39500" r="300"/>
   <circle class="fil0 str0" cx="71000" cy="39500" r="300"/>
   <circle class="fil0 str0" cx="70250" cy="39500" r="150"/>
   <circle class="fil0 str0" cx="54500" cy="39500" r="300"/>
   <circle class="fil0 str0" cx="53750" cy="39500" r="150"/>
   <circle class="fil0 str0" cx="55250" cy="39500" r="150"/>
   <circle class="fil0 str0" cx="54500" cy="38750" r="150"/>
   <circle class="fil0 str0" cx="54500" cy="38000" r="300"/>
   <circle class="fil0 str0" cx="53750" cy="38000" r="150"/>
   <circle class="fil0 str0" cx="55250" cy="38000" r="150"/>
   <circle class="fil0 str0" cx="54500" cy="37250" r="150"/>
   <circle class="fil0 str0" cx="53000" cy="39500" r="300"/>
   <circle class="fil0 str0" cx="56000" cy="39500" r="300"/>
   <circle class="fil0 str0" cx="45500" cy="39500" r="300"/>
   <circle class="fil0 str0" cx="44750" cy="39500" r="150"/>
   <circle class="fil0 str0" cx="46250" cy="39500" r="150"/>
   <circle class="fil0 str0" cx="45500" cy="38750" r="150"/>
   <circle class="fil0 str0" cx="45500" cy="38000" r="300"/>
   <circle class="fil0 str0" cx="44750" cy="38000" r="150"/>
   <circle class="fil0 str0" cx="46250" cy="38000" r="150"/>
   <circle class="fil0 str0" cx="45500" cy="37250" r="150"/>
   <circle class="fil0 str0" cx="44000" cy="39500" r="300"/>
   <circle class="fil0 str0" cx="47000" cy="39500" r="300"/>
   <circle class="fil0 str0" cx="36500" cy="39500" r="300"/>
   <circle class="fil0 str0" cx="35750" cy="39500" r="150"/>
   <circle class="fil0 str0" cx="37250" cy="39500" r="150"/>
   <circle class="fil0 str0" cx="36500" cy="38750" r="150"/>
   <circle class="fil0 str0" cx="36500" cy="38000" r="300"/>
   <circle class="fil0 str0" cx="35750" cy="38000" r="150"/>
   <circle class="fil0 str0" cx="37250" cy="38000" r="150"/>
   <circle class="fil0 str0" cx="36500" cy="37250" r="150"/>
   <circle class="fil0 str0" cx="35000" cy="39500" r="300"/>
   <circle class="fil0 str0" cx="38000" cy="39500" r="300"/>
   <circle class="fil0 str0" cx="29750" cy="39500" r="150"/>
   <circle class="fil0 str0" cx="29000" cy="39500" r="300"/>
   <circle class="fil0 str0" cx="71000" cy="38000" r="300"/>
   <circle class="fil0 str0" cx="29000" cy="38000" r="300"/>
   <path class="fil0 str2" d="M28300 49450l0 -6400c0,-276 224,-500 500,-500l400 0c276,0 500,224 500,500l0 6400c0,276 -224,500 -500,500l-400 0c-276,0 -500,-224 -500,-500z"/>
   <path class="fil0 str2" d="M70300 49450l0 -6400c0,-276 224,-500 500,-500l400 0c276,0 500,224 500,500l0 6400c0,276 -224,500 -500,500l-400 0c-276,0 -500,-224 -500,-500z"/>
   <path class="fil0 str0" d="M28300 62950l0 -25900c0,-276 224,-500 500,-500l351 0c27,1551 1292,2800 2849,2800 1557,0 2823,-1249 2849,-2800l3301 0c27,1551 1292,2800 2849,2800 1557,0 2823,-1249 2849,-2800l3301 0c27,1551 1292,2800 2849,2800 1557,0 2823,-1249 2849,-2800l3301 0c27,1551 1292,2800 2849,2800 1557,0 2823,-1249 2849,-2800l3301 0c27,1551 1292,2800 2849,2800 1557,0 2823,-1249 2849,-2800l351 0c276,0 500,224 500,500l0 25900c0,276 -224,500 -500,500l-42400 0c-276,0 -500,-224 -500,-500z"/>
  </g>
 </g>
</svg>
