<?xml version="1.0" encoding="UTF-8"?>
<!DOCTYPE svg PUBLIC "-//W3C//DTD SVG 1.1//EN" "http://www.w3.org/Graphics/SVG/1.1/DTD/svg11.dtd">
<!-- Creator: CorelDRAW X6 -->
<svg xmlns="http://www.w3.org/2000/svg" xml:space="preserve" width="1000mm" height="1000mm" version="1.1" style="shape-rendering:geometricPrecision; text-rendering:geometricPrecision; image-rendering:optimizeQuality; fill-rule:evenodd; clip-rule:evenodd"
viewBox="0 0 100000 100000"
 xmlns:xlink="http://www.w3.org/1999/xlink">
 <defs>
  <style type="text/css">
   <![CDATA[
    .str0 {stroke:black;stroke-width:52.92;stroke-linecap:round;stroke-linejoin:round}
    .str1 {stroke:blue;stroke-width:52.92;stroke-linecap:round;stroke-linejoin:round}
    .fil0 {fill:none}
   ]]>
  </style>
 </defs>
 <g id="Layer_x0020_1">
  <metadata id="CorelCorpID_0Corel-Layer"/>
  <g id="_883270000">
   <g>
    <circle class="fil0 str0" cx="32000" cy="60500" r="2200"/>
    <path class="fil0 str1" d="M33156 62717c-942,492 -2133,342 -2924,-449 -874,-874 -965,-2234 -275,-3209l-379 -379 601 -601 379 379c976,-690 2336,-599 3209,275 792,792 941,1982 449,2924l328 328 -1061 1061 -328 -328z"/>
   </g>
   <path class="fil0 str0" d="M28300 62950l0 -25900c0,-276 224,-500 500,-500l1001 0c27,1192 1001,2150 2199,2150 1198,0 2173,-958 2199,-2150l1601 0c27,1192 1001,2150 2199,2150 1198,0 2173,-958 2199,-2150l1601 0c27,1192 1001,2150 2199,2150 1198,0 2173,-958 2199,-2150l1601 0c27,1192 1001,2150 2199,2150 1198,0 2173,-958 2199,-2150l1601 0c27,1192 1001,2150 2199,2150 1198,0 2173,-958 2199,-2150l1601 0c27,1192 1001,2150 2199,2150 1198,0 2173,-958 2199,-2150l1601 0c27,1192 1001,2150 2199,2150 1198,0 2173,-958 2199,-2150l1001 0c276,0 500,224 500,500l0 25900c0,276 -224,500 -500,500l-42400 0c-276,0 -500,-224 -500,-500z"/>
   <g>
    <circle class="fil0 str0" cx="38000" cy="60500" r="2200"/>
    <path class="fil0 str1" d="M39156 62717c-942,492 -2133,342 -2924,-449 -874,-874 -965,-2234 -275,-3209l-379 -379 601 -601 379 379c976,-690 2336,-599 3209,275 792,792 941,1982 449,2924l328 328 -1061 1061 -328 -328z"/>
   </g>
   <g>
    <circle class="fil0 str0" cx="44000" cy="60500" r="2200"/>
    <path class="fil0 str1" d="M45156 62717c-942,492 -2133,342 -2924,-449 -874,-874 -965,-2234 -275,-3209l-379 -379 601 -601 379 379c976,-690 2336,-599 3209,275 792,792 941,1982 449,2924l328 328 -1061 1061 -328 -328z"/>
   </g>
   <g>
    <circle class="fil0 str0" cx="50000" cy="60500" r="2200"/>
    <path class="fil0 str1" d="M51156 62717c-942,492 -2133,342 -2924,-449 -874,-874 -965,-2234 -275,-3209l-379 -379 601 -601 379 379c976,-690 2336,-599 3209,275 792,792 941,1982 449,2924l328 328 -1061 1061 -328 -328z"/>
   </g>
   <g>
    <circle class="fil0 str0" cx="56000" cy="60500" r="2200"/>
    <path class="fil0 str1" d="M57156 62717c-942,492 -2133,342 -2924,-449 -874,-874 -965,-2234 -275,-3209l-379 -379 601 -601 379 379c976,-690 2336,-599 3209,275 792,792 941,1982 449,2924l328 328 -1061 1061 -328 -328z"/>
   </g>
   <g>
    <circle class="fil0 str0" cx="62000" cy="60500" r="2200"/>
    <path class="fil0 str1" d="M63156 62717c-942,492 -2133,342 -2924,-449 -874,-874 -965,-2234 -275,-3209l-379 -379 601 -601 379 379c976,-690 2336,-599 3209,275 792,792 941,1982 449,2924l328 328 -1061 1061 -328 -328z"/>
   </g>
   <g>
    <circle class="fil0 str0" cx="68000" cy="60500" r="2200"/>
    <path class="fil0 str1" d="M69156 62717c-942,492 -2133,342 -2924,-449 -874,-874 -965,-2234 -275,-3209l-379 -379 601 -601 379 379c976,-690 2336,-599 3209,275 792,792 941,1982 449,2924l328 328 -1061 1061 -328 -328z"/>
   </g>
   <g>
    <circle class="fil0 str0" cx="32000" cy="54500" r="2200"/>
    <path class="fil0 str1" d="M33156 56717c-942,492 -2133,342 -2924,-449 -874,-874 -965,-2234 -275,-3209l-379 -379 601 -601 379 379c976,-690 2336,-599 3209,275 792,792 941,1982 449,2924l328 328 -1061 1061 -328 -328z"/>
   </g>
   <g>
    <circle class="fil0 str0" cx="38000" cy="54500" r="2200"/>
    <path class="fil0 str1" d="M39156 56717c-942,492 -2133,342 -2924,-449 -874,-874 -965,-2234 -275,-3209l-379 -379 601 -601 379 379c976,-690 2336,-599 3209,275 792,792 941,1982 449,2924l328 328 -1061 1061 -328 -328z"/>
   </g>
   <g>
    <circle class="fil0 str0" cx="44000" cy="54500" r="2200"/>
    <path class="fil0 str1" d="M45156 56717c-942,492 -2133,342 -2924,-449 -874,-874 -965,-2234 -275,-3209l-379 -379 601 -601 379 379c976,-690 2336,-599 3209,275 792,792 941,1982 449,2924l328 328 -1061 1061 -328 -328z"/>
   </g>
   <g>
    <circle class="fil0 str0" cx="50000" cy="54500" r="2200"/>
    <path class="fil0 str1" d="M51156 56717c-942,492 -2133,342 -2924,-449 -874,-874 -965,-2234 -275,-3209l-379 -379 601 -601 379 379c976,-690 2336,-599 3209,275 792,792 941,1982 449,2924l328 328 -1061 1061 -328 -328z"/>
   </g>
   <g>
    <circle class="fil0 str0" cx="56000" cy="54500" r="2200"/>
    <path class="fil0 str1" d="M57156 56717c-942,492 -2133,342 -2924,-449 -874,-874 -965,-2234 -275,-3209l-379 -379 601 -601 379 379c976,-690 2336,-599 3209,275 792,792 941,1982 449,2924l328 328 -1061 1061 -328 -328z"/>
   </g>
   <g>
    <circle class="fil0 str0" cx="62000" cy="54500" r="2200"/>
    <path class="fil0 str1" d="M63156 56717c-942,492 -2133,342 -2924,-449 -874,-874 -965,-2234 -275,-3209l-379 -379 601 -601 379 379c976,-690 2336,-599 3209,275 792,792 941,1982 449,2924l328 328 -1061 1061 -328 -328z"/>
   </g>
   <g>
    <circle class="fil0 str0" cx="68000" cy="54500" r="2200"/>
    <path class="fil0 str1" d="M69156 56717c-942,492 -2133,342 -2924,-449 -874,-874 -965,-2234 -275,-3209l-379 -379 601 -601 379 379c976,-690 2336,-599 3209,275 792,792 941,1982 449,2924l328 328 -1061 1061 -328 -328z"/>
   </g>
   <g>
    <circle class="fil0 str0" cx="32000" cy="48500" r="2200"/>
    <path class="fil0 str1" d="M33156 50717c-942,492 -2133,342 -2924,-449 -874,-874 -965,-2234 -275,-3209l-379 -379 601 -601 379 379c976,-690 2336,-599 3209,275 792,792 941,1982 449,2924l328 328 -1061 1061 -328 -328z"/>
   </g>
   <g>
    <circle class="fil0 str0" cx="38000" cy="48500" r="2200"/>
    <path class="fil0 str1" d="M39156 50717c-942,492 -2133,342 -2924,-449 -874,-874 -965,-2234 -275,-3209l-379 -379 601 -601 379 379c976,-690 2336,-599 3209,275 792,792 941,1982 449,2924l328 328 -1061 1061 -328 -328z"/>
   </g>
   <g>
    <circle class="fil0 str0" cx="44000" cy="48500" r="2200"/>
    <path class="fil0 str1" d="M45156 50717c-942,492 -2133,342 -2924,-449 -874,-874 -965,-2234 -275,-3209l-379 -379 601 -601 379 379c976,-690 2336,-599 3209,275 792,792 941,1982 449,2924l328 328 -1061 1061 -328 -328z"/>
   </g>
   <g>
    <circle class="fil0 str0" cx="50000" cy="48500" r="2200"/>
    <path class="fil0 str1" d="M51156 50717c-942,492 -2133,342 -2924,-449 -874,-874 -965,-2234 -275,-3209l-379 -379 601 -601 379 379c976,-690 2336,-599 3209,275 792,792 941,1982 449,2924l328 328 -1061 1061 -328 -328z"/>
   </g>
   <g>
    <circle class="fil0 str0" cx="56000" cy="48500" r="2200"/>
    <path class="fil0 str1" d="M57156 50717c-942,492 -2133,342 -2924,-449 -874,-874 -965,-2234 -275,-3209l-379 -379 601 -601 379 379c976,-690 2336,-599 3209,275 792,792 941,1982 449,2924l328 328 -1061 1061 -328 -328z"/>
   </g>
   <g>
    <circle class="fil0 str0" cx="62000" cy="48500" r="2200"/>
    <path class="fil0 str1" d="M63156 50717c-942,492 -2133,342 -2924,-449 -874,-874 -965,-2234 -275,-3209l-379 -379 601 -601 379 379c976,-690 2336,-599 3209,275 792,792 941,1982 449,2924l328 328 -1061 1061 -328 -328z"/>
   </g>
   <g>
    <circle class="fil0 str0" cx="68000" cy="48500" r="2200"/>
    <path class="fil0 str1" d="M69156 50717c-942,492 -2133,342 -2924,-449 -874,-874 -965,-2234 -275,-3209l-379 -379 601 -601 379 379c976,-690 2336,-599 3209,275 792,792 941,1982 449,2924l328 328 -1061 1061 -328 -328z"/>
   </g>
   <g>
    <circle class="fil0 str0" cx="32000" cy="42500" r="2200"/>
    <path class="fil0 str1" d="M33156 44717c-942,492 -2133,342 -2924,-449 -874,-874 -965,-2234 -275,-3209l-379 -379 601 -601 379 379c976,-690 2336,-599 3209,275 792,792 941,1982 449,2924l328 328 -1061 1061 -328 -328z"/>
   </g>
   <g>
    <circle class="fil0 str0" cx="38000" cy="42500" r="2200"/>
    <path class="fil0 str1" d="M39156 44717c-942,492 -2133,342 -2924,-449 -874,-874 -965,-2234 -275,-3209l-379 -379 601 -601 379 379c976,-690 2336,-599 3209,275 792,792 941,1982 449,2924l328 328 -1061 1061 -328 -328z"/>
   </g>
   <g>
    <circle class="fil0 str0" cx="44000" cy="42500" r="2200"/>
    <path class="fil0 str1" d="M45156 44717c-942,492 -2133,342 -2924,-449 -874,-874 -965,-2234 -275,-3209l-379 -379 601 -601 379 379c976,-690 2336,-599 3209,275 792,792 941,1982 449,2924l328 328 -1061 1061 -328 -328z"/>
   </g>
   <g>
    <circle class="fil0 str0" cx="50000" cy="42500" r="2200"/>
    <path class="fil0 str1" d="M51156 44717c-942,492 -2133,342 -2924,-449 -874,-874 -965,-2234 -275,-3209l-379 -379 601 -601 379 379c976,-690 2336,-599 3209,275 792,792 941,1982 449,2924l328 328 -1061 1061 -328 -328z"/>
   </g>
   <g>
    <circle class="fil0 str0" cx="56000" cy="42500" r="2200"/>
    <path class="fil0 str1" d="M57156 44717c-942,492 -2133,342 -2924,-449 -874,-874 -965,-2234 -275,-3209l-379 -379 601 -601 379 379c976,-690 2336,-599 3209,275 792,792 941,1982 449,2924l328 328 -1061 1061 -328 -328z"/>
   </g>
   <g>
    <circle class="fil0 str0" cx="62000" cy="42500" r="2200"/>
    <path class="fil0 str1" d="M63156 44717c-942,492 -2133,342 -2924,-449 -874,-874 -965,-2234 -275,-3209l-379 -379 601 -601 379 379c976,-690 2336,-599 3209,275 792,792 941,1982 449,2924l328 328 -1061 1061 -328 -328z"/>
   </g>
   <g>
    <circle class="fil0 str0" cx="68000" cy="42500" r="2200"/>
    <path class="fil0 str1" d="M69156 44717c-942,492 -2133,342 -2924,-449 -874,-874 -965,-2234 -275,-3209l-379 -379 601 -601 379 379c976,-690 2336,-599 3209,275 792,792 941,1982 449,2924l328 328 -1061 1061 -328 -328z"/>
   </g>
   <circle class="fil0 str0" cx="29000" cy="62750" r="300"/>
   <circle class="fil0 str0" cx="29000" cy="62000" r="150"/>
   <circle class="fil0 str0" cx="29000" cy="61250" r="300"/>
   <circle class="fil0 str0" cx="29000" cy="60500" r="150"/>
   <circle class="fil0 str0" cx="29000" cy="59750" r="300"/>
   <circle class="fil0 str0" cx="29000" cy="59000" r="150"/>
   <circle class="fil0 str0" cx="29000" cy="58250" r="300"/>
   <circle class="fil0 str0" cx="29000" cy="57500" r="150"/>
   <circle class="fil0 str0" cx="29000" cy="56750" r="300"/>
   <circle class="fil0 str0" cx="29000" cy="56000" r="150"/>
   <circle class="fil0 str0" cx="29000" cy="55250" r="300"/>
   <circle class="fil0 str0" cx="29000" cy="54500" r="150"/>
   <circle class="fil0 str0" cx="29000" cy="53750" r="300"/>
   <circle class="fil0 str0" cx="29000" cy="53000" r="150"/>
   <circle class="fil0 str0" cx="29000" cy="52250" r="300"/>
   <circle class="fil0 str0" cx="29000" cy="51500" r="150"/>
   <circle class="fil0 str0" cx="29000" cy="50750" r="300"/>
   <circle class="fil0 str0" cx="29000" cy="50000" r="150"/>
   <circle class="fil0 str0" cx="29000" cy="49250" r="300"/>
   <circle class="fil0 str0" cx="29000" cy="48500" r="150"/>
   <circle class="fil0 str0" cx="29000" cy="47750" r="300"/>
   <circle class="fil0 str0" cx="29000" cy="47000" r="150"/>
   <circle class="fil0 str0" cx="29000" cy="46250" r="300"/>
   <circle class="fil0 str0" cx="29000" cy="45500" r="150"/>
   <circle class="fil0 str0" cx="29000" cy="44750" r="300"/>
   <circle class="fil0 str0" cx="29000" cy="44000" r="150"/>
   <circle class="fil0 str0" cx="29000" cy="43250" r="300"/>
   <circle class="fil0 str0" cx="29000" cy="42500" r="150"/>
   <circle class="fil0 str0" cx="29000" cy="41750" r="300"/>
   <circle class="fil0 str0" cx="29000" cy="41000" r="150"/>
   <circle class="fil0 str0" cx="29000" cy="40250" r="300"/>
   <circle class="fil0 str0" cx="29000" cy="39500" r="150"/>
   <circle class="fil0 str0" cx="29000" cy="38750" r="300"/>
   <circle class="fil0 str0" cx="29000" cy="38000" r="150"/>
   <circle class="fil0 str0" cx="29000" cy="37250" r="300"/>
   <circle class="fil0 str0" cx="30500" cy="57500" r="150"/>
   <circle class="fil0 str0" cx="30500" cy="51500" r="150"/>
   <circle class="fil0 str0" cx="30500" cy="45500" r="150"/>
   <circle class="fil0 str0" cx="30500" cy="39500" r="150"/>
   <circle class="fil0 str0" cx="32000" cy="57500" r="150"/>
   <circle class="fil0 str0" cx="32000" cy="51500" r="150"/>
   <circle class="fil0 str0" cx="32000" cy="45500" r="150"/>
   <circle class="fil0 str0" cx="32000" cy="39500" r="150"/>
   <circle class="fil0 str0" cx="33500" cy="57500" r="150"/>
   <circle class="fil0 str0" cx="33500" cy="51500" r="150"/>
   <circle class="fil0 str0" cx="33500" cy="45500" r="150"/>
   <circle class="fil0 str0" cx="33500" cy="39500" r="150"/>
   <circle class="fil0 str0" cx="35000" cy="57500" r="150"/>
   <circle class="fil0 str0" cx="35000" cy="51500" r="150"/>
   <circle class="fil0 str0" cx="35000" cy="45500" r="150"/>
   <circle class="fil0 str0" cx="35000" cy="39500" r="150"/>
   <circle class="fil0 str0" cx="36500" cy="57500" r="150"/>
   <circle class="fil0 str0" cx="36500" cy="51500" r="150"/>
   <circle class="fil0 str0" cx="36500" cy="45500" r="150"/>
   <circle class="fil0 str0" cx="36500" cy="39500" r="150"/>
   <circle class="fil0 str0" cx="38000" cy="57500" r="150"/>
   <circle class="fil0 str0" cx="38000" cy="51500" r="150"/>
   <circle class="fil0 str0" cx="38000" cy="45500" r="150"/>
   <circle class="fil0 str0" cx="38000" cy="39500" r="150"/>
   <circle class="fil0 str0" cx="39500" cy="57500" r="150"/>
   <circle class="fil0 str0" cx="39500" cy="51500" r="150"/>
   <circle class="fil0 str0" cx="39500" cy="45500" r="150"/>
   <circle class="fil0 str0" cx="39500" cy="39500" r="150"/>
   <circle class="fil0 str0" cx="41000" cy="57500" r="150"/>
   <circle class="fil0 str0" cx="41000" cy="51500" r="150"/>
   <circle class="fil0 str0" cx="41000" cy="45500" r="150"/>
   <circle class="fil0 str0" cx="41000" cy="39500" r="150"/>
   <circle class="fil0 str0" cx="42500" cy="57500" r="150"/>
   <circle class="fil0 str0" cx="42500" cy="51500" r="150"/>
   <circle class="fil0 str0" cx="42500" cy="45500" r="150"/>
   <circle class="fil0 str0" cx="42500" cy="39500" r="150"/>
   <circle class="fil0 str0" cx="44000" cy="57500" r="150"/>
   <circle class="fil0 str0" cx="44000" cy="51500" r="150"/>
   <circle class="fil0 str0" cx="44000" cy="45500" r="150"/>
   <circle class="fil0 str0" cx="44000" cy="39500" r="150"/>
   <circle class="fil0 str0" cx="45500" cy="57500" r="150"/>
   <circle class="fil0 str0" cx="45500" cy="51500" r="150"/>
   <circle class="fil0 str0" cx="45500" cy="45500" r="150"/>
   <circle class="fil0 str0" cx="45500" cy="39500" r="150"/>
   <circle class="fil0 str0" cx="47000" cy="57500" r="150"/>
   <circle class="fil0 str0" cx="47000" cy="51500" r="150"/>
   <circle class="fil0 str0" cx="47000" cy="45500" r="150"/>
   <circle class="fil0 str0" cx="47000" cy="39500" r="150"/>
   <circle class="fil0 str0" cx="48500" cy="57500" r="150"/>
   <circle class="fil0 str0" cx="48500" cy="51500" r="150"/>
   <circle class="fil0 str0" cx="48500" cy="45500" r="150"/>
   <circle class="fil0 str0" cx="48500" cy="39500" r="150"/>
   <circle class="fil0 str0" cx="50000" cy="57500" r="150"/>
   <circle class="fil0 str0" cx="50000" cy="51500" r="150"/>
   <circle class="fil0 str0" cx="50000" cy="45500" r="150"/>
   <circle class="fil0 str0" cx="50000" cy="39500" r="150"/>
   <circle class="fil0 str0" cx="51500" cy="57500" r="150"/>
   <circle class="fil0 str0" cx="51500" cy="51500" r="150"/>
   <circle class="fil0 str0" cx="51500" cy="45500" r="150"/>
   <circle class="fil0 str0" cx="51500" cy="39500" r="150"/>
   <circle class="fil0 str0" cx="53000" cy="57500" r="150"/>
   <circle class="fil0 str0" cx="53000" cy="51500" r="150"/>
   <circle class="fil0 str0" cx="53000" cy="45500" r="150"/>
   <circle class="fil0 str0" cx="53000" cy="39500" r="150"/>
   <circle class="fil0 str0" cx="54500" cy="57500" r="150"/>
   <circle class="fil0 str0" cx="54500" cy="51500" r="150"/>
   <circle class="fil0 str0" cx="54500" cy="45500" r="150"/>
   <circle class="fil0 str0" cx="54500" cy="39500" r="150"/>
   <circle class="fil0 str0" cx="56000" cy="57500" r="150"/>
   <circle class="fil0 str0" cx="56000" cy="51500" r="150"/>
   <circle class="fil0 str0" cx="56000" cy="45500" r="150"/>
   <circle class="fil0 str0" cx="56000" cy="39500" r="150"/>
   <circle class="fil0 str0" cx="57500" cy="57500" r="150"/>
   <circle class="fil0 str0" cx="57500" cy="51500" r="150"/>
   <circle class="fil0 str0" cx="57500" cy="45500" r="150"/>
   <circle class="fil0 str0" cx="57500" cy="39500" r="150"/>
   <circle class="fil0 str0" cx="59000" cy="57500" r="150"/>
   <circle class="fil0 str0" cx="59000" cy="51500" r="150"/>
   <circle class="fil0 str0" cx="59000" cy="45500" r="150"/>
   <circle class="fil0 str0" cx="59000" cy="39500" r="150"/>
   <circle class="fil0 str0" cx="60500" cy="57500" r="150"/>
   <circle class="fil0 str0" cx="60500" cy="51500" r="150"/>
   <circle class="fil0 str0" cx="60500" cy="45500" r="150"/>
   <circle class="fil0 str0" cx="60500" cy="39500" r="150"/>
   <circle class="fil0 str0" cx="62000" cy="57500" r="150"/>
   <circle class="fil0 str0" cx="62000" cy="51500" r="150"/>
   <circle class="fil0 str0" cx="62000" cy="45500" r="150"/>
   <circle class="fil0 str0" cx="62000" cy="39500" r="150"/>
   <circle class="fil0 str0" cx="63500" cy="57500" r="150"/>
   <circle class="fil0 str0" cx="63500" cy="51500" r="150"/>
   <circle class="fil0 str0" cx="63500" cy="45500" r="150"/>
   <circle class="fil0 str0" cx="63500" cy="39500" r="150"/>
   <circle class="fil0 str0" cx="65000" cy="57500" r="150"/>
   <circle class="fil0 str0" cx="65000" cy="51500" r="150"/>
   <circle class="fil0 str0" cx="65000" cy="45500" r="150"/>
   <circle class="fil0 str0" cx="65000" cy="39500" r="150"/>
   <circle class="fil0 str0" cx="66500" cy="57500" r="150"/>
   <circle class="fil0 str0" cx="66500" cy="51500" r="150"/>
   <circle class="fil0 str0" cx="66500" cy="45500" r="150"/>
   <circle class="fil0 str0" cx="66500" cy="39500" r="150"/>
   <circle class="fil0 str0" cx="68000" cy="57500" r="150"/>
   <circle class="fil0 str0" cx="68000" cy="51500" r="150"/>
   <circle class="fil0 str0" cx="68000" cy="45500" r="150"/>
   <circle class="fil0 str0" cx="68000" cy="39500" r="150"/>
   <circle class="fil0 str0" cx="69500" cy="57500" r="150"/>
   <circle class="fil0 str0" cx="69500" cy="51500" r="150"/>
   <circle class="fil0 str0" cx="69500" cy="45500" r="150"/>
   <circle class="fil0 str0" cx="69500" cy="39500" r="150"/>
   <circle class="fil0 str0" cx="71000" cy="62750" r="300"/>
   <circle class="fil0 str0" cx="71000" cy="62000" r="150"/>
   <circle class="fil0 str0" cx="71000" cy="61250" r="300"/>
   <circle class="fil0 str0" cx="71000" cy="60500" r="150"/>
   <circle class="fil0 str0" cx="71000" cy="59750" r="300"/>
   <circle class="fil0 str0" cx="71000" cy="59000" r="150"/>
   <circle class="fil0 str0" cx="71000" cy="58250" r="300"/>
   <circle class="fil0 str0" cx="71000" cy="57500" r="150"/>
   <circle class="fil0 str0" cx="71000" cy="56750" r="300"/>
   <circle class="fil0 str0" cx="71000" cy="56000" r="150"/>
   <circle class="fil0 str0" cx="71000" cy="55250" r="300"/>
   <circle class="fil0 str0" cx="71000" cy="54500" r="150"/>
   <circle class="fil0 str0" cx="71000" cy="53750" r="300"/>
   <circle class="fil0 str0" cx="71000" cy="53000" r="150"/>
   <circle class="fil0 str0" cx="71000" cy="52250" r="300"/>
   <circle class="fil0 str0" cx="71000" cy="51500" r="150"/>
   <circle class="fil0 str0" cx="71000" cy="50750" r="300"/>
   <circle class="fil0 str0" cx="71000" cy="50000" r="150"/>
   <circle class="fil0 str0" cx="71000" cy="49250" r="300"/>
   <circle class="fil0 str0" cx="71000" cy="48500" r="150"/>
   <circle class="fil0 str0" cx="71000" cy="47750" r="300"/>
   <circle class="fil0 str0" cx="71000" cy="47000" r="150"/>
   <circle class="fil0 str0" cx="71000" cy="46250" r="300"/>
   <circle class="fil0 str0" cx="71000" cy="45500" r="150"/>
   <circle class="fil0 str0" cx="71000" cy="44750" r="300"/>
   <circle class="fil0 str0" cx="71000" cy="44000" r="150"/>
   <circle class="fil0 str0" cx="71000" cy="43250" r="300"/>
   <circle class="fil0 str0" cx="71000" cy="42500" r="150"/>
   <circle class="fil0 str0" cx="71000" cy="41750" r="300"/>
   <circle class="fil0 str0" cx="71000" cy="41000" r="150"/>
   <circle class="fil0 str0" cx="71000" cy="40250" r="300"/>
   <circle class="fil0 str0" cx="71000" cy="39500" r="150"/>
   <circle class="fil0 str0" cx="71000" cy="38750" r="300"/>
   <circle class="fil0 str0" cx="71000" cy="38000" r="150"/>
   <circle class="fil0 str0" cx="71000" cy="37250" r="300"/>
   <circle class="fil0 str0" cx="65000" cy="62750" r="300"/>
   <circle class="fil0 str0" cx="65000" cy="62000" r="150"/>
   <circle class="fil0 str0" cx="65000" cy="61250" r="300"/>
   <circle class="fil0 str0" cx="65000" cy="60500" r="150"/>
   <circle class="fil0 str0" cx="65000" cy="59750" r="300"/>
   <circle class="fil0 str0" cx="65000" cy="59000" r="150"/>
   <circle class="fil0 str0" cx="65000" cy="58250" r="300"/>
   <circle class="fil0 str0" cx="65000" cy="56750" r="300"/>
   <circle class="fil0 str0" cx="65000" cy="56000" r="150"/>
   <circle class="fil0 str0" cx="65000" cy="55250" r="300"/>
   <circle class="fil0 str0" cx="65000" cy="54500" r="150"/>
   <circle class="fil0 str0" cx="65000" cy="53750" r="300"/>
   <circle class="fil0 str0" cx="65000" cy="53000" r="150"/>
   <circle class="fil0 str0" cx="65000" cy="52250" r="300"/>
   <circle class="fil0 str0" cx="65000" cy="50750" r="300"/>
   <circle class="fil0 str0" cx="65000" cy="50000" r="150"/>
   <circle class="fil0 str0" cx="65000" cy="49250" r="300"/>
   <circle class="fil0 str0" cx="65000" cy="48500" r="150"/>
   <circle class="fil0 str0" cx="65000" cy="47750" r="300"/>
   <circle class="fil0 str0" cx="65000" cy="47000" r="150"/>
   <circle class="fil0 str0" cx="65000" cy="46250" r="300"/>
   <circle class="fil0 str0" cx="65000" cy="44750" r="300"/>
   <circle class="fil0 str0" cx="65000" cy="44000" r="150"/>
   <circle class="fil0 str0" cx="65000" cy="43250" r="300"/>
   <circle class="fil0 str0" cx="65000" cy="42500" r="150"/>
   <circle class="fil0 str0" cx="65000" cy="41750" r="300"/>
   <circle class="fil0 str0" cx="65000" cy="41000" r="150"/>
   <circle class="fil0 str0" cx="65000" cy="40250" r="300"/>
   <circle class="fil0 str0" cx="65000" cy="38750" r="300"/>
   <circle class="fil0 str0" cx="65000" cy="38000" r="150"/>
   <circle class="fil0 str0" cx="65000" cy="37250" r="300"/>
   <circle class="fil0 str0" cx="59000" cy="62750" r="300"/>
   <circle class="fil0 str0" cx="59000" cy="62000" r="150"/>
   <circle class="fil0 str0" cx="59000" cy="61250" r="300"/>
   <circle class="fil0 str0" cx="59000" cy="60500" r="150"/>
   <circle class="fil0 str0" cx="59000" cy="59750" r="300"/>
   <circle class="fil0 str0" cx="59000" cy="59000" r="150"/>
   <circle class="fil0 str0" cx="59000" cy="58250" r="300"/>
   <circle class="fil0 str0" cx="59000" cy="56750" r="300"/>
   <circle class="fil0 str0" cx="59000" cy="56000" r="150"/>
   <circle class="fil0 str0" cx="59000" cy="55250" r="300"/>
   <circle class="fil0 str0" cx="59000" cy="54500" r="150"/>
   <circle class="fil0 str0" cx="59000" cy="53750" r="300"/>
   <circle class="fil0 str0" cx="59000" cy="53000" r="150"/>
   <circle class="fil0 str0" cx="59000" cy="52250" r="300"/>
   <circle class="fil0 str0" cx="59000" cy="50750" r="300"/>
   <circle class="fil0 str0" cx="59000" cy="50000" r="150"/>
   <circle class="fil0 str0" cx="59000" cy="49250" r="300"/>
   <circle class="fil0 str0" cx="59000" cy="48500" r="150"/>
   <circle class="fil0 str0" cx="59000" cy="47750" r="300"/>
   <circle class="fil0 str0" cx="59000" cy="47000" r="150"/>
   <circle class="fil0 str0" cx="59000" cy="46250" r="300"/>
   <circle class="fil0 str0" cx="59000" cy="44750" r="300"/>
   <circle class="fil0 str0" cx="59000" cy="44000" r="150"/>
   <circle class="fil0 str0" cx="59000" cy="43250" r="300"/>
   <circle class="fil0 str0" cx="59000" cy="42500" r="150"/>
   <circle class="fil0 str0" cx="59000" cy="41750" r="300"/>
   <circle class="fil0 str0" cx="59000" cy="41000" r="150"/>
   <circle class="fil0 str0" cx="59000" cy="40250" r="300"/>
   <circle class="fil0 str0" cx="59000" cy="38750" r="300"/>
   <circle class="fil0 str0" cx="59000" cy="38000" r="150"/>
   <circle class="fil0 str0" cx="59000" cy="37250" r="300"/>
   <circle class="fil0 str0" cx="53000" cy="62750" r="300"/>
   <circle class="fil0 str0" cx="53000" cy="62000" r="150"/>
   <circle class="fil0 str0" cx="53000" cy="61250" r="300"/>
   <circle class="fil0 str0" cx="53000" cy="60500" r="150"/>
   <circle class="fil0 str0" cx="53000" cy="59750" r="300"/>
   <circle class="fil0 str0" cx="53000" cy="59000" r="150"/>
   <circle class="fil0 str0" cx="53000" cy="58250" r="300"/>
   <circle class="fil0 str0" cx="53000" cy="56750" r="300"/>
   <circle class="fil0 str0" cx="53000" cy="56000" r="150"/>
   <circle class="fil0 str0" cx="53000" cy="55250" r="300"/>
   <circle class="fil0 str0" cx="53000" cy="54500" r="150"/>
   <circle class="fil0 str0" cx="53000" cy="53750" r="300"/>
   <circle class="fil0 str0" cx="53000" cy="53000" r="150"/>
   <circle class="fil0 str0" cx="53000" cy="52250" r="300"/>
   <circle class="fil0 str0" cx="53000" cy="50750" r="300"/>
   <circle class="fil0 str0" cx="53000" cy="50000" r="150"/>
   <circle class="fil0 str0" cx="53000" cy="49250" r="300"/>
   <circle class="fil0 str0" cx="53000" cy="48500" r="150"/>
   <circle class="fil0 str0" cx="53000" cy="47750" r="300"/>
   <circle class="fil0 str0" cx="53000" cy="47000" r="150"/>
   <circle class="fil0 str0" cx="53000" cy="46250" r="300"/>
   <circle class="fil0 str0" cx="53000" cy="44750" r="300"/>
   <circle class="fil0 str0" cx="53000" cy="44000" r="150"/>
   <circle class="fil0 str0" cx="53000" cy="43250" r="300"/>
   <circle class="fil0 str0" cx="53000" cy="42500" r="150"/>
   <circle class="fil0 str0" cx="53000" cy="41750" r="300"/>
   <circle class="fil0 str0" cx="53000" cy="41000" r="150"/>
   <circle class="fil0 str0" cx="53000" cy="40250" r="300"/>
   <circle class="fil0 str0" cx="53000" cy="38750" r="300"/>
   <circle class="fil0 str0" cx="53000" cy="38000" r="150"/>
   <circle class="fil0 str0" cx="53000" cy="37250" r="300"/>
   <circle class="fil0 str0" cx="47000" cy="62750" r="300"/>
   <circle class="fil0 str0" cx="47000" cy="62000" r="150"/>
   <circle class="fil0 str0" cx="47000" cy="61250" r="300"/>
   <circle class="fil0 str0" cx="47000" cy="60500" r="150"/>
   <circle class="fil0 str0" cx="47000" cy="59750" r="300"/>
   <circle class="fil0 str0" cx="47000" cy="59000" r="150"/>
   <circle class="fil0 str0" cx="47000" cy="58250" r="300"/>
   <circle class="fil0 str0" cx="47000" cy="56750" r="300"/>
   <circle class="fil0 str0" cx="47000" cy="56000" r="150"/>
   <circle class="fil0 str0" cx="47000" cy="55250" r="300"/>
   <circle class="fil0 str0" cx="47000" cy="54500" r="150"/>
   <circle class="fil0 str0" cx="47000" cy="53750" r="300"/>
   <circle class="fil0 str0" cx="47000" cy="53000" r="150"/>
   <circle class="fil0 str0" cx="47000" cy="52250" r="300"/>
   <circle class="fil0 str0" cx="47000" cy="50750" r="300"/>
   <circle class="fil0 str0" cx="47000" cy="50000" r="150"/>
   <circle class="fil0 str0" cx="47000" cy="49250" r="300"/>
   <circle class="fil0 str0" cx="47000" cy="48500" r="150"/>
   <circle class="fil0 str0" cx="47000" cy="47750" r="300"/>
   <circle class="fil0 str0" cx="47000" cy="47000" r="150"/>
   <circle class="fil0 str0" cx="47000" cy="46250" r="300"/>
   <circle class="fil0 str0" cx="47000" cy="44750" r="300"/>
   <circle class="fil0 str0" cx="47000" cy="44000" r="150"/>
   <circle class="fil0 str0" cx="47000" cy="43250" r="300"/>
   <circle class="fil0 str0" cx="47000" cy="42500" r="150"/>
   <circle class="fil0 str0" cx="47000" cy="41750" r="300"/>
   <circle class="fil0 str0" cx="47000" cy="41000" r="150"/>
   <circle class="fil0 str0" cx="47000" cy="40250" r="300"/>
   <circle class="fil0 str0" cx="47000" cy="38750" r="300"/>
   <circle class="fil0 str0" cx="47000" cy="38000" r="150"/>
   <circle class="fil0 str0" cx="47000" cy="37250" r="300"/>
   <circle class="fil0 str0" cx="41000" cy="62750" r="300"/>
   <circle class="fil0 str0" cx="41000" cy="62000" r="150"/>
   <circle class="fil0 str0" cx="41000" cy="61250" r="300"/>
   <circle class="fil0 str0" cx="41000" cy="60500" r="150"/>
   <circle class="fil0 str0" cx="41000" cy="59750" r="300"/>
   <circle class="fil0 str0" cx="41000" cy="59000" r="150"/>
   <circle class="fil0 str0" cx="41000" cy="58250" r="300"/>
   <circle class="fil0 str0" cx="41000" cy="56750" r="300"/>
   <circle class="fil0 str0" cx="41000" cy="56000" r="150"/>
   <circle class="fil0 str0" cx="41000" cy="55250" r="300"/>
   <circle class="fil0 str0" cx="41000" cy="54500" r="150"/>
   <circle class="fil0 str0" cx="41000" cy="53750" r="300"/>
   <circle class="fil0 str0" cx="41000" cy="53000" r="150"/>
   <circle class="fil0 str0" cx="41000" cy="52250" r="300"/>
   <circle class="fil0 str0" cx="41000" cy="50750" r="300"/>
   <circle class="fil0 str0" cx="41000" cy="50000" r="150"/>
   <circle class="fil0 str0" cx="41000" cy="49250" r="300"/>
   <circle class="fil0 str0" cx="41000" cy="48500" r="150"/>
   <circle class="fil0 str0" cx="41000" cy="47750" r="300"/>
   <circle class="fil0 str0" cx="41000" cy="47000" r="150"/>
   <circle class="fil0 str0" cx="41000" cy="46250" r="300"/>
   <circle class="fil0 str0" cx="41000" cy="44750" r="300"/>
   <circle class="fil0 str0" cx="41000" cy="44000" r="150"/>
   <circle class="fil0 str0" cx="41000" cy="43250" r="300"/>
   <circle class="fil0 str0" cx="41000" cy="42500" r="150"/>
   <circle class="fil0 str0" cx="41000" cy="41750" r="300"/>
   <circle class="fil0 str0" cx="41000" cy="41000" r="150"/>
   <circle class="fil0 str0" cx="41000" cy="40250" r="300"/>
   <circle class="fil0 str0" cx="41000" cy="38750" r="300"/>
   <circle class="fil0 str0" cx="41000" cy="38000" r="150"/>
   <circle class="fil0 str0" cx="41000" cy="37250" r="300"/>
   <circle class="fil0 str0" cx="35000" cy="62750" r="300"/>
   <circle class="fil0 str0" cx="35000" cy="62000" r="150"/>
   <circle class="fil0 str0" cx="35000" cy="61250" r="300"/>
   <circle class="fil0 str0" cx="35000" cy="60500" r="150"/>
   <circle class="fil0 str0" cx="35000" cy="59750" r="300"/>
   <circle class="fil0 str0" cx="35000" cy="59000" r="150"/>
   <circle class="fil0 str0" cx="35000" cy="58250" r="300"/>
   <circle class="fil0 str0" cx="35000" cy="56750" r="300"/>
   <circle class="fil0 str0" cx="35000" cy="56000" r="150"/>
   <circle class="fil0 str0" cx="35000" cy="55250" r="300"/>
   <circle class="fil0 str0" cx="35000" cy="54500" r="150"/>
   <circle class="fil0 str0" cx="35000" cy="53750" r="300"/>
   <circle class="fil0 str0" cx="35000" cy="53000" r="150"/>
   <circle class="fil0 str0" cx="35000" cy="52250" r="300"/>
   <circle class="fil0 str0" cx="35000" cy="50750" r="300"/>
   <circle class="fil0 str0" cx="35000" cy="50000" r="150"/>
   <circle class="fil0 str0" cx="35000" cy="49250" r="300"/>
   <circle class="fil0 str0" cx="35000" cy="48500" r="150"/>
   <circle class="fil0 str0" cx="35000" cy="47750" r="300"/>
   <circle class="fil0 str0" cx="35000" cy="47000" r="150"/>
   <circle class="fil0 str0" cx="35000" cy="46250" r="300"/>
   <circle class="fil0 str0" cx="35000" cy="44750" r="300"/>
   <circle class="fil0 str0" cx="35000" cy="44000" r="150"/>
   <circle class="fil0 str0" cx="35000" cy="43250" r="300"/>
   <circle class="fil0 str0" cx="35000" cy="42500" r="150"/>
   <circle class="fil0 str0" cx="35000" cy="41750" r="300"/>
   <circle class="fil0 str0" cx="35000" cy="41000" r="150"/>
   <circle class="fil0 str0" cx="35000" cy="40250" r="300"/>
   <circle class="fil0 str0" cx="35000" cy="38750" r="300"/>
   <circle class="fil0 str0" cx="35000" cy="38000" r="150"/>
   <circle class="fil0 str0" cx="35000" cy="37250" r="300"/>
  </g>
 </g>
</svg>
